<?xml version="1.0" standalone="no"?>
<!DOCTYPE svg PUBLIC "-//W3C//DTD SVG 20010904//EN"
 "http://www.w3.org/TR/2001/REC-SVG-20010904/DTD/svg10.dtd">
<svg version="1.0" xmlns="http://www.w3.org/2000/svg"
 width="404.000000pt" height="455.000000pt" viewBox="0 0 404.000000 455.000000"
 preserveAspectRatio="xMidYMid meet">

<g transform="translate(0.000000,455.000000) scale(0.100000,-0.100000)"
fill="#000000" stroke="none">
<path d="M1919 4537 c-26 -7 -103 -45 -170 -85 -1310 -755 -1598 -924 -1636
-961 -23 -23 -57 -72 -75 -108 l-33 -68 0 -1040 0 -1040 32 -65 c18 -36 54
-86 80 -112 35 -34 270 -175 883 -529 459 -265 855 -491 880 -503 64 -29 216
-29 280 0 42 19 1624 931 1700 979 58 37 117 106 147 170 l28 60 0 1040 0
1040 -32 65 c-17 36 -53 86 -80 112 -35 34 -265 172 -883 529 -459 265 -855
491 -879 502 -56 24 -179 32 -242 14z m310 -933 c348 -51 659 -245 887 -553
35 -47 64 -90 64 -96 0 -8 -100 -68 -531 -317 l-47 -27 -27 41 c-140 212 -407
329 -655 288 -346 -57 -587 -359 -567 -710 10 -171 69 -302 197 -430 252 -254
654 -267 913 -30 35 33 81 84 102 114 l38 56 31 -19 c17 -10 146 -85 286 -166
140 -81 257 -149 259 -152 8 -6 -28 -63 -101 -160 -189 -251 -460 -422 -778
-490 -120 -26 -420 -25 -539 1 -548 119 -946 513 -1056 1043 -136 660 196
1278 821 1526 222 88 464 116 703 81z m991 -1179 l0 -75 75 0 75 0 0 -75 0
-75 -75 0 -75 0 0 -75 0 -75 -75 0 -75 0 0 75 0 75 -75 0 -75 0 0 75 0 75 75
0 75 0 0 75 0 75 75 0 75 0 0 -75z m560 0 l0 -75 75 0 75 0 0 -75 0 -75 -75 0
-75 0 0 -75 0 -75 -75 0 -75 0 0 75 0 75 -75 0 -75 0 0 75 0 75 75 0 75 0 0
75 0 75 75 0 75 0 0 -75z"/>
</g>
</svg>
