<?xml version="1.0" standalone="no"?>
<!DOCTYPE svg PUBLIC "-//W3C//DTD SVG 20010904//EN"
 "http://www.w3.org/TR/2001/REC-SVG-20010904/DTD/svg10.dtd">
<svg version="1.0" xmlns="http://www.w3.org/2000/svg"
 width="512.000000pt" height="409.000000pt" viewBox="0 0 512.000000 409.000000"
 preserveAspectRatio="xMidYMid meet">

<g transform="translate(0.000000,409.000000) scale(0.100000,-0.100000)"
fill="#000000" stroke="none">
<path d="M2375 3064 c-334 -50 -571 -176 -763 -409 -208 -251 -288 -526 -237
-818 31 -177 105 -317 231 -438 172 -165 361 -239 607 -239 382 0 688 177 915
529 34 52 43 60 48 45 28 -78 58 -141 90 -191 59 -91 188 -211 284 -266 291
-163 638 -164 965 -2 133 66 218 129 321 238 225 238 316 513 273 824 -37 271
-197 487 -456 617 -112 56 -200 77 -348 83 -283 11 -565 -74 -761 -231 -131
-105 -250 -258 -324 -418 l-45 -98 -403 0 c-274 0 -410 -4 -424 -11 -28 -15
-170 -311 -166 -347 2 -18 11 -28 28 -33 14 -4 132 -7 263 -8 l238 -1 -29 -42
c-200 -290 -617 -285 -755 10 -26 56 -32 82 -35 157 -8 191 61 344 203 452
209 159 428 158 596 -2 l57 -54 128 35 c71 19 165 44 209 55 145 36 148 38
140 68 -9 36 -58 119 -113 192 -90 120 -283 243 -442 283 -65 17 -239 28 -295
20z m2007 -521 c123 -58 206 -172 231 -319 14 -83 -7 -199 -55 -293 -62 -123
-216 -248 -352 -286 -79 -23 -209 -16 -289 14 -205 79 -305 303 -236 527 55
182 172 302 353 366 72 25 92 28 181 26 88 -3 108 -7 167 -35z"/>
<path d="M415 2543 c-19 -21 -35 -41 -35 -44 0 -13 178 -19 542 -19 l377 0 30
44 c17 24 27 46 24 50 -4 3 -208 6 -455 6 l-449 0 -34 -37z"/>
<path d="M64 2342 c-5 -4 -23 -24 -38 -44 l-28 -38 605 0 606 0 10 38 c6 20
11 40 11 45 0 9 -1152 9 -1166 -1z"/>
<path d="M631 2086 c-12 -18 -21 -38 -21 -43 0 -9 271 -23 461 -23 98 0 112 8
107 62 l-3 33 -262 3 -261 2 -21 -34z"/>
</g>
</svg>
