<?xml version="1.0" standalone="no"?>
<!DOCTYPE svg PUBLIC "-//W3C//DTD SVG 20010904//EN"
 "http://www.w3.org/TR/2001/REC-SVG-20010904/DTD/svg10.dtd">
<svg version="1.0" xmlns="http://www.w3.org/2000/svg"
 width="512.000000pt" height="512.000000pt" viewBox="0 0 512.000000 512.000000"
 preserveAspectRatio="xMidYMid meet">

<g transform="translate(0.000000,512.000000) scale(0.100000,-0.100000)"
fill="#000000" stroke="none">
<path d="M356 5088 c2 -18 94 -1048 204 -2288 110 -1240 201 -2261 203 -2269
1 -9 312 -101 920 -272 l918 -259 917 256 c504 141 920 260 925 263 4 4 97
1017 207 2252 109 1234 202 2268 205 2297 l6 52 -2255 0 -2255 0 5 -32z m3664
-915 c0 -5 -11 -127 -25 -273 -14 -146 -25 -268 -25 -272 0 -5 -486 -8 -1080
-8 l-1080 0 5 -42 c5 -42 45 -513 45 -530 0 -4 464 -8 1030 -8 817 0 1030 -3
1030 -12 -1 -71 -160 -1722 -166 -1728 -5 -4 -266 -78 -581 -164 l-572 -157
-576 159 c-317 88 -577 161 -580 163 -2 3 -18 182 -34 399 -17 217 -34 416
-37 443 l-6 47 280 0 280 0 6 -37 c3 -21 13 -121 22 -223 9 -102 18 -186 19
-188 1 -1 143 -40 314 -87 l313 -84 310 84 c170 46 312 85 314 88 4 3 73 685
74 720 0 4 -441 7 -980 7 -895 0 -980 1 -980 16 0 26 -139 1604 -145 1652 l-6
42 1415 0 c779 0 1416 -3 1416 -7z"/>
</g>
</svg>
