<?xml version="1.0" standalone="no"?>
<!DOCTYPE svg PUBLIC "-//W3C//DTD SVG 20010904//EN"
 "http://www.w3.org/TR/2001/REC-SVG-20010904/DTD/svg10.dtd">
<svg version="1.0" xmlns="http://www.w3.org/2000/svg"
 width="512.000000pt" height="512.000000pt" viewBox="0 0 512.000000 512.000000"
 preserveAspectRatio="xMidYMid meet">

<g transform="translate(0.000000,512.000000) scale(0.100000,-0.100000)"
fill="#000000" stroke="none">
<path d="M0 2560 l0 -2560 2560 0 2560 0 0 2560 0 2560 -2560 0 -2560 0 0
-2560z m4135 215 c102 -28 211 -92 286 -167 61 -61 156 -185 147 -192 -1 -2
-86 -56 -186 -121 -145 -93 -186 -115 -193 -104 -5 8 -9 17 -9 20 0 19 -100
114 -144 137 -44 23 -63 27 -141 27 -99 0 -129 -11 -182 -65 -84 -86 -62 -253
44 -327 39 -28 149 -82 268 -133 400 -170 578 -315 649 -532 19 -60 24 -96 25
-199 4 -221 -40 -340 -174 -475 -66 -67 -97 -89 -175 -128 -135 -66 -225 -87
-400 -93 -268 -10 -484 50 -670 186 -92 67 -258 277 -236 299 3 3 90 54 193
113 l188 109 15 -23 c44 -66 123 -147 179 -184 94 -64 180 -87 300 -80 122 6
181 28 242 86 76 73 89 173 35 265 -41 70 -109 111 -390 232 -385 167 -535
304 -603 554 -12 46 -18 100 -17 185 0 104 4 131 27 200 48 140 149 265 271
335 71 40 177 79 245 90 86 14 336 4 406 -15z m-1353 -812 c3 -839 0 -991 -27
-1094 -41 -156 -150 -305 -275 -376 -211 -120 -541 -130 -776 -23 -82 37 -127
68 -197 138 -56 54 -157 194 -157 217 0 8 345 228 381 243 4 2 23 -23 42 -55
41 -66 106 -133 155 -158 52 -26 159 -31 220 -11 68 23 126 87 141 157 7 33
11 335 11 903 0 469 3 856 7 859 3 4 111 7 239 7 l233 0 3 -807z"/>
</g>
</svg>
