<?xml version="1.0" encoding="UTF-8"?>
<svg version="1.1" xmlns="http://www.w3.org/2000/svg" width="3000" height="2000">
<path d="M0 0 C14.17888383 9.25406958 23.07071188 21.68250758 26.75 38.25 C27.29494583 44.13853452 27.28350069 49.98446118 27.24447632 55.89361572 C27.24765839 57.65243656 27.25259141 59.41125495 27.25910914 61.1700666 C27.27186175 65.97242423 27.2598579 70.77444145 27.24358058 75.5767765 C27.23036662 80.76863251 27.24033691 85.96045231 27.24734497 91.15231323 C27.25740838 101.31442145 27.24616944 111.47639907 27.22764437 121.63849106 C27.20681662 133.49308081 27.20701844 145.34764275 27.20798953 157.20224735 C27.20899013 178.37444233 27.19069025 199.54657685 27.16162109 220.71875 C27.1334906 241.21811017 27.11927783 261.71741712 27.12060547 282.21679688 C27.12068538 283.4776805 27.12076529 284.73856412 27.12084763 286.03765634 C27.12092834 287.29644875 27.12100905 288.55524117 27.1210922 289.85217881 C27.12247658 313.23914822 27.11065941 336.6260952 27.09278577 360.01305731 C27.0867815 368.25545294 27.08462998 376.49784442 27.08372116 384.740242 C27.08234829 394.80911519 27.07330157 404.87795059 27.05505554 414.94680777 C27.04590045 420.07393293 27.03969812 425.20101021 27.04224396 430.32814407 C27.06235238 483.30779328 27.06235238 483.30779328 22.75 499.25 C22.49511972 501.07744355 22.27822991 502.91124105 22.125 504.75 C22.05023437 505.6059375 21.97546875 506.461875 21.8984375 507.34375 C21.84945312 507.9728125 21.80046875 508.601875 21.75 509.25 C21.09 509.25 20.43 509.25 19.75 509.25 C19.5953125 511.0753125 19.5953125 511.0753125 19.4375 512.9375 C18.31346964 522.86643488 15.72550452 532.10794911 11.75 541.25 C10.32460507 544.74614583 8.98447583 548.26677519 7.6875 551.8125 C7.34589844 552.74191406 7.00429687 553.67132812 6.65234375 554.62890625 C5.89528552 556.82798017 5.26698691 558.98485115 4.75 561.25 C4.09 561.25 3.43 561.25 2.75 561.25 C2.66492187 561.91128906 2.57984375 562.57257812 2.4921875 563.25390625 C1.50945637 567.22103666 -0.2517157 570.57185987 -2.125 574.1875 C-2.47691406 574.87779297 -2.82882812 575.56808594 -3.19140625 576.27929688 C-3.88461625 577.6386585 -4.58076354 578.99652676 -5.2800293 580.3527832 C-6.14807552 582.05064055 -6.98807113 583.7627711 -7.82421875 585.4765625 C-9.13598318 588.02821385 -10.55727425 590.3308076 -12.1875 592.6875 C-14.0950658 595.48494761 -15.87231555 598.28115233 -17.5 601.25 C-19.25 604.25 -19.25 604.25 -21.25 605.25 C-21.94453856 606.56902934 -22.60787523 607.9046755 -23.25 609.25 C-24.98493516 611.84262744 -26.87474305 614.31995878 -28.75 616.8125 C-29.28318848 617.52341797 -29.81637695 618.23433594 -30.36572266 618.96679688 C-34.34676579 624.20856285 -38.56878088 629.06281151 -43.078125 633.859375 C-45.01823025 635.99488653 -46.70717663 638.15070041 -48.375 640.5 C-50.97656553 644.10957953 -54.00297681 646.87130816 -57.41796875 649.70703125 C-59.12842071 651.1476038 -60.68041674 652.65948896 -62.25 654.25 C-74.31479471 665.41304459 -87.51471247 675.25792633 -101.25 684.25 C-101.93368652 684.7022998 -102.61737305 685.15459961 -103.32177734 685.62060547 C-137.07451393 707.76862759 -177.09613071 720.75548784 -216.94287109 725.94140625 C-219.05732388 726.22422829 -221.16215486 726.54426698 -223.26953125 726.875 C-233.92008305 728.42379319 -244.57240835 728.4337743 -255.3125 728.4375 C-256.08111359 728.43849701 -256.84972717 728.43949402 -257.64163208 728.44052124 C-265.57206247 728.43935685 -273.37876821 728.33004428 -281.25 727.25 C-283.69862365 727.03364195 -286.14739869 726.82576455 -288.59765625 726.62890625 C-291.48952705 726.21578185 -294.26208259 725.51043398 -297.08764648 724.77856445 C-299.98651024 724.06996786 -302.90772464 723.54539221 -305.8425293 723.00927734 C-327.57793218 718.97563093 -347.92496986 711.83294628 -368.25 703.25 C-368.96631592 702.95109863 -369.68263184 702.65219727 -370.4206543 702.34423828 C-373.0520693 701.2368868 -375.48941546 700.10523716 -377.9375 698.625 C-380.09697204 697.3409896 -381.79870286 696.70394391 -384.25 696.25 C-384.25 695.59 -384.25 694.93 -384.25 694.25 C-384.97445313 693.97929688 -385.69890625 693.70859375 -386.4453125 693.4296875 C-389.19169106 692.27452549 -391.5916255 690.93711271 -394.125 689.375 C-396.92982127 687.65242488 -399.73455965 685.98098779 -402.61328125 684.3828125 C-406.46880881 682.18875416 -410.00793922 679.64725995 -413.5625 677 C-414.54416138 676.27321045 -414.54416138 676.27321045 -415.5456543 675.53173828 C-423.64884583 669.50391229 -431.40815093 663.21906965 -438.87109375 656.41015625 C-441.03271952 654.44730067 -443.22526262 652.5303374 -445.4375 650.625 C-456.54590921 640.92187147 -465.60340322 629.46299906 -474.82617188 618.01513672 C-476.02816314 616.5250138 -477.23783268 615.04108932 -478.44921875 613.55859375 C-489.27867121 599.67528268 -497.75398626 583.13780112 -505.25 567.25 C-505.58773437 566.53730957 -505.92546875 565.82461914 -506.2734375 565.09033203 C-519.25 537.47245066 -519.25 537.47245066 -519.25 528.25 C-519.91 527.92 -520.57 527.59 -521.25 527.25 C-521.9842434 524.7017435 -522.58597591 522.21648307 -523.125 519.625 C-523.37999268 518.42858887 -523.37999268 518.42858887 -523.64013672 517.20800781 C-536.6354157 455.03592012 -533.09455029 392.76553215 -507.25 334.25 C-506.91355469 333.48075195 -506.57710937 332.71150391 -506.23046875 331.91894531 C-495.08241251 306.63595323 -479.36095931 282.98186338 -460.55859375 262.7421875 C-458.53059379 260.55290836 -456.56788817 258.32700005 -454.625 256.0625 C-448.6777389 249.23777415 -442.17254277 243.07147691 -435.25 237.25 C-434.73002441 236.8055957 -434.21004883 236.36119141 -433.67431641 235.90332031 C-417.27630225 221.93684637 -399.40015051 210.10199848 -380.25 200.25 C-379.45190918 199.8379834 -378.65381836 199.4259668 -377.83154297 199.00146484 C-343.51987397 181.49935346 -304.3260956 170.23139134 -265.6171875 170.046875 C-264.13702904 170.03635353 -264.13702904 170.03635353 -262.62696838 170.02561951 C-259.4595987 170.00820603 -256.2924158 170.00176728 -253.125 170 C-252.044534 169.99932526 -250.96406799 169.99865051 -249.8508606 169.99795532 C-234.43641879 170.01328139 -219.42555803 170.29503287 -204.25 173.25 C-202.8578125 173.50740967 -202.8578125 173.50740967 -201.4375 173.77001953 C-161.68431269 181.24377904 -121.5834513 196.89761783 -89.09259033 221.35723877 C-88.37281635 221.89863117 -87.65304237 222.44002357 -86.91145706 222.99782181 C-86.36317623 223.41104061 -85.8148954 223.82425941 -85.25 224.25 C-85.24780016 222.83919694 -85.24780016 222.83919694 -85.24555588 221.39989281 C-85.20889325 198.4706253 -85.14935521 175.54150309 -85.06609726 152.61235619 C-85.0263583 141.52379502 -84.99393971 130.4353043 -84.97900391 119.34667969 C-84.96596071 109.67715073 -84.93892808 100.0077771 -84.89538693 90.33833563 C-84.87283209 85.22266692 -84.85708573 80.10718936 -84.85811615 74.99146652 C-84.8588663 70.16672561 -84.84077381 65.3424063 -84.80883217 60.51777458 C-84.80038176 58.75631194 -84.79854982 56.99480173 -84.80419731 55.23332787 C-84.85632101 36.46108088 -80.90270151 21.62901317 -67.73046875 7.57421875 C-49.66962705 -9.34893213 -21.35087757 -11.93041403 0 0 Z " fill="#888888" transform="translate(1454.25,639.75)"/>
<path d="M0 0 C0.94082428 0.00182281 1.88164856 0.00364563 2.85098267 0.00552368 C17.74381504 0.0539595 32.24411711 0.69346895 46.9375 3.3125 C47.90494141 3.47878906 48.87238281 3.64507813 49.86914062 3.81640625 C105.34180743 13.59930634 158.55470282 40.80448005 197.9375 81.3125 C198.72125 82.09625 199.505 82.88 200.3125 83.6875 C201.17875 84.55375 202.045 85.42 202.9375 86.3125 C203.55496094 86.90675781 204.17242188 87.50101563 204.80859375 88.11328125 C205.44925781 88.73589844 206.08992188 89.35851562 206.75 90 C207.35457031 90.58136719 207.95914062 91.16273438 208.58203125 91.76171875 C209.9375 93.3125 209.9375 93.3125 209.9375 95.3125 C210.5975 95.3125 211.2575 95.3125 211.9375 95.3125 C213.19921875 96.65087891 213.19921875 96.65087891 214.625 98.5390625 C215.41765259 99.58042358 215.41765259 99.58042358 216.22631836 100.64282227 C217.07335327 101.77868774 217.07335327 101.77868774 217.9375 102.9375 C218.52345947 103.71730225 219.10941895 104.49710449 219.71313477 105.30053711 C220.9060989 106.89327028 222.09564399 108.48857012 223.28173828 110.08642578 C224.68459739 111.97248732 226.10246668 113.84543678 227.52734375 115.71484375 C256.68790262 154.96757607 274.07865075 202.8870185 278.67822266 251.43310547 C278.90953705 253.53462842 278.90953705 253.53462842 279.9375 256.3125 C279.98363987 258.18693221 279.9754669 260.06288444 279.9375 261.9375 C279.87352923 268.24217512 280.19554873 274.46777045 280.66992188 280.75048828 C281.04238174 286.10273652 281.04238174 286.10273652 279.9375 288.3125 C279.86700221 291.33509286 279.94058721 294.3445618 280 297.3671875 C279.94559619 299.9309671 279.59438683 301.86598449 278.9375 304.3125 C278.958125 305.529375 278.97875 306.74625 279 308 C279.06652854 311.96214438 278.31837189 315.45270793 277.375 319.28515625 C276.84521212 321.39448667 276.84521212 321.39448667 276.9375 323.9375 C276.9375 326.55332728 276.27106163 328.67591811 275.53466797 331.16748047 C274.34991485 335.42309819 273.45631836 339.75100029 272.5 344.0625 C270.05822144 354.87837234 267.59613723 365.15840776 263.1796875 375.36328125 C262.04749803 378.05134115 261.06820644 380.74132985 260.125 383.5 C248.93111233 414.81569383 248.93111233 414.81569383 241.9375 418.3125 C241.22043018 420.29498715 240.55459587 422.29665349 239.9375 424.3125 C239.6075 424.9725 239.2775 425.6325 238.9375 426.3125 C238.2775 426.3125 237.6175 426.3125 236.9375 426.3125 C236.710625 426.9828125 236.48375 427.653125 236.25 428.34375 C234.56152751 432.16291396 232.32545433 435.39914207 229.9375 438.8125 C229.45418213 439.50794922 228.97086426 440.20339844 228.47290039 440.91992188 C225.18791961 445.61137693 221.8318466 450.24617515 218.375 454.8125 C217.95798828 455.37001953 217.54097656 455.92753906 217.11132812 456.50195312 C216.10271258 457.81164794 215.02604732 459.06844592 213.9375 460.3125 C213.2775 460.3125 212.6175 460.3125 211.9375 460.3125 C211.56625 461.1478125 211.56625 461.1478125 211.1875 462 C208.58221838 466.819771 204.82795058 470.51252501 200.9375 474.3125 C200.14859375 475.116875 200.14859375 475.116875 199.34375 475.9375 C195.72228754 479.62480723 191.98200869 483.10042222 188.0625 486.46875 C186.52440279 487.80327552 185.00589945 489.16049537 183.5 490.53125 C182.695625 491.2634375 181.89125 491.995625 181.0625 492.75 C180.32257813 493.42933594 179.58265625 494.10867188 178.8203125 494.80859375 C176.9375 496.3125 176.9375 496.3125 174.9375 496.3125 C174.9375 496.9725 174.9375 497.6325 174.9375 498.3125 C172.98152816 499.70962274 170.9715906 501.03177629 168.9375 502.3125 C164.77646021 504.69679735 164.77646021 504.69679735 161.9375 508.3125 C160.55325496 509.17908316 159.12961561 509.98357763 157.6875 510.75 C156.87667969 511.18828125 156.06585937 511.6265625 155.23046875 512.078125 C154.47378906 512.48546875 153.71710938 512.8928125 152.9375 513.3125 C150.21260383 514.87786588 148.15225456 516.09774544 145.9375 518.3125 C132.30756549 526.79464809 117.69665281 533.08813766 102.9375 539.3125 C101.8959375 539.76753906 100.854375 540.22257812 99.78125 540.69140625 C98.7809375 541.12324219 97.780625 541.55507812 96.75 542 C95.46029297 542.56267578 95.46029297 542.56267578 94.14453125 543.13671875 C84.55256693 546.65338289 74.43969772 548.64845993 64.5 550.9375 C62.47506404 551.40588867 60.45026749 551.87487504 58.42552185 552.34408569 C56.60756187 552.7650596 54.78926453 553.18457588 52.97094727 553.60400391 C51.25226092 554.00542264 49.53564791 554.41688018 47.82739258 554.8605957 C29.3378788 559.28174155 9.78838417 558.72869173 -9.0625 558.3125 C-10.12839355 558.29703125 -11.19428711 558.2815625 -12.29248047 558.265625 C-25.56075681 558.06153038 -38.12275932 556.59132834 -51.08691406 553.74560547 C-52.58245965 553.4177387 -54.08319247 553.11341757 -55.5859375 552.8203125 C-73.93250466 549.0583981 -91.74541336 543.4119314 -109.0625 536.3125 C-109.74989258 536.03301514 -110.43728516 535.75353027 -111.14550781 535.46557617 C-112.97627229 534.71656361 -114.80082183 533.95241335 -116.625 533.1875 C-118.42130859 532.44113281 -118.42130859 532.44113281 -120.25390625 531.6796875 C-123.0625 530.3125 -123.0625 530.3125 -124.0625 528.3125 C-127.09184491 527.65477572 -127.09184491 527.65477572 -130.0625 527.3125 C-130.0625 526.6525 -130.0625 525.9925 -130.0625 525.3125 C-130.87332031 525.09078125 -131.68414062 524.8690625 -132.51953125 524.640625 C-136.98919099 522.96511859 -140.74256888 520.63082579 -144.75 518.0625 C-145.57072998 517.54107422 -146.39145996 517.01964844 -147.23706055 516.48242188 C-155.06963887 511.43596845 -162.54730323 505.94572149 -169.98828125 500.34375 C-172.43370396 498.50283284 -174.89235138 496.72742721 -177.453125 495.05078125 C-180.40640027 493.08340476 -182.61413961 490.8802926 -185.0625 488.3125 C-188.44395188 484.84141928 -191.82231435 481.46107247 -195.5625 478.375 C-199.50640846 475.0575289 -202.75534708 471.2506729 -206.0625 467.3125 C-207.14446146 466.04049848 -208.22771787 464.76959686 -209.3125 463.5 C-209.77140625 462.95730469 -210.2303125 462.41460938 -210.703125 461.85546875 C-212.75768252 459.52342789 -214.9568315 457.4091112 -217.25 455.3125 C-219.0625 453.3125 -219.0625 453.3125 -219.0625 450.3125 C-220.0525 449.9825 -221.0425 449.6525 -222.0625 449.3125 C-222.5575 447.8275 -222.5575 447.8275 -223.0625 446.3125 C-223.7225 445.9825 -224.3825 445.6525 -225.0625 445.3125 C-226.09263277 443.66428756 -227.08315076 441.99138441 -228.0625 440.3125 C-229.64708564 437.9660164 -231.24624604 435.63043457 -232.85546875 433.30078125 C-234.0625 431.3125 -234.0625 431.3125 -234.0625 429.3125 C-234.7225 429.3125 -235.3825 429.3125 -236.0625 429.3125 C-237.73218026 426.31416752 -239.39785212 423.31362896 -241.0625 420.3125 C-241.44954102 419.61785645 -241.83658203 418.92321289 -242.23535156 418.20751953 C-257.9130795 389.89022353 -270.0761136 358.79005672 -274.78125 326.625 C-274.90886719 325.76132813 -275.03648437 324.89765625 -275.16796875 324.0078125 C-275.43098958 322.2109375 -275.69401042 320.4140625 -275.95703125 318.6171875 C-276.68765343 313.63725173 -276.68765343 313.63725173 -277.59375 308.6875 C-278.88633937 302.13838052 -279.19195193 295.83638555 -279.046875 289.1875 C-279.03164795 288.3313913 -279.0164209 287.47528259 -279.00073242 286.5932312 C-278.9470493 283.83270146 -278.88172124 281.07268199 -278.8125 278.3125 C-278.78949829 277.36876526 -278.76649658 276.42503052 -278.74279785 275.45269775 C-278.36965122 260.93112596 -277.62931534 246.63640661 -275.0625 232.3125 C-274.88702637 231.32733398 -274.71155273 230.34216797 -274.53076172 229.32714844 C-264.22098071 173.12594358 -237.47646535 123.38367482 -198.0625 82.3125 C-197.20914063 81.41789063 -196.35578125 80.52328125 -195.4765625 79.6015625 C-190.52733972 74.52743819 -185.35327534 69.92202503 -179.80859375 65.5078125 C-178.06782668 64.11618933 -176.34839272 62.69709047 -174.66015625 61.2421875 C-140.09446477 31.64565545 -95.91573534 13.16016302 -51.625 4.5 C-50.63306641 4.30519043 -49.64113281 4.11038086 -48.61914062 3.90966797 C-32.43499021 0.91015609 -16.4365508 -0.06643126 0 0 Z " fill="#9C5789" transform="translate(624.0625,808.6875)"/>
<path d="M0 0 C1.59272232 0.00323273 1.59272232 0.00323273 3.21762085 0.00653076 C18.47629828 0.05625623 33.35908088 0.36065265 48.375 3.3125 C49.41140625 3.50585938 50.4478125 3.69921875 51.515625 3.8984375 C76.15606501 8.58359159 99.87744602 16.20309635 122.375 27.3125 C123.23287109 27.73257324 124.09074219 28.15264648 124.97460938 28.58544922 C137.77113224 34.90636903 149.75163008 42.0348478 161.375 50.3125 C162.07496094 50.8089502 162.77492188 51.30540039 163.49609375 51.81689453 C172.03281687 57.9193798 179.97015465 64.41804283 187.56640625 71.65625 C189.76506702 73.735651 191.98517117 75.69622008 194.3125 77.625 C205.31455155 87.18796464 214.67974804 98.66665699 223.375 110.3125 C223.78669434 110.85664551 224.19838867 111.40079102 224.62255859 111.96142578 C235.92043039 126.95515584 245.52025301 143.26851844 253.375 160.3125 C253.73158691 161.08078125 254.08817383 161.8490625 254.45556641 162.640625 C277.65225317 213.15651329 283.47185819 267.50743958 276.375 322.3125 C276.22393799 323.50681641 276.07287598 324.70113281 275.91723633 325.93164062 C275.00441395 332.77711726 273.79875391 339.32451219 271.8125 345.9375 C271.37346219 347.45045245 270.93465182 348.96347092 270.49609375 350.4765625 C270.12613281 351.74242187 269.75617187 353.00828125 269.375 354.3125 C269.04147757 355.64578605 268.7081394 356.9791182 268.375 358.3125 C262.44170321 378.37160722 254.15076812 396.44527549 244.25683594 414.81738281 C242.75209757 417.62453052 241.38437064 420.28438807 240.375 423.3125 C239.715 423.3125 239.055 423.3125 238.375 423.3125 C238.148125 424.15683594 237.92125 425.00117187 237.6875 425.87109375 C236.13296413 429.94712382 234.00326388 432.9310213 231.375 436.375 C230.64567261 437.3496521 230.64567261 437.3496521 229.90161133 438.34399414 C228.402422 440.34105131 226.89114209 442.32829053 225.375 444.3125 C224.68349854 445.21887207 224.68349854 445.21887207 223.97802734 446.14355469 C221.85942493 448.91539927 219.73040362 451.67867769 217.58984375 454.43359375 C215.72037744 456.86357024 213.91545132 459.32447024 212.125 461.8125 C209.59951225 465.20811378 206.65785612 467.63261746 203.375 470.3125 C202.33428551 471.4826155 201.31525144 472.67219224 200.3125 473.875 C191.31434223 484.37285073 180.37260922 493.01945064 169.375 501.3125 C168.71435547 501.81894043 168.05371094 502.32538086 167.37304688 502.84716797 C139.32993323 524.27521976 95.01849139 551.14781015 58.375 551.3125 C58.375 551.9725 58.375 552.6325 58.375 553.3125 C57.65054687 553.37308594 56.92609375 553.43367188 56.1796875 553.49609375 C55.21289062 553.57988281 54.24609375 553.66367188 53.25 553.75 C52.29867188 553.83121094 51.34734375 553.91242187 50.3671875 553.99609375 C46.44685837 554.41064552 42.58991434 555.07979031 38.71875 555.82128906 C28.95420467 557.56160466 19.21889306 557.80159258 9.32177734 558.00048828 C6.40791971 558.06180724 3.49527678 558.14529189 0.58203125 558.23046875 C-16.84356018 558.66508874 -33.87268897 557.51492448 -50.9375 553.8125 C-51.96810547 553.59980469 -52.99871094 553.38710937 -54.06054688 553.16796875 C-58.90053247 552.15847719 -63.71889258 551.09117367 -68.50537109 549.85180664 C-70.11696217 549.44176233 -71.73433599 549.05436948 -73.35400391 548.67749023 C-80.73874086 546.92866278 -87.7424012 544.62360144 -94.8125 541.875 C-95.91875732 541.44832031 -97.02501465 541.02164063 -98.16479492 540.58203125 C-109.45144908 536.13792614 -120.33463963 530.91232273 -131.17504883 525.48242188 C-133.62258523 524.31365312 -136.0962322 523.2913414 -138.625 522.3125 C-138.625 521.6525 -138.625 520.9925 -138.625 520.3125 C-139.29015625 520.08046875 -139.9553125 519.8484375 -140.640625 519.609375 C-144.46805747 517.94614518 -147.86084651 515.8005827 -151.375 513.5625 C-152.43364258 512.89250977 -152.43364258 512.89250977 -153.51367188 512.20898438 C-154.91359448 511.32069556 -156.31207482 510.43012899 -157.70898438 509.53710938 C-159.35943278 508.48223562 -161.01516024 507.43562969 -162.671875 506.390625 C-163.48140625 505.86984375 -164.2909375 505.3490625 -165.125 504.8125 C-165.8159375 504.3690625 -166.506875 503.925625 -167.21875 503.46875 C-167.6828125 503.0871875 -168.146875 502.705625 -168.625 502.3125 C-168.625 501.6525 -168.625 500.9925 -168.625 500.3125 C-169.615 500.3125 -170.605 500.3125 -171.625 500.3125 C-172.77119729 499.23576922 -173.90534437 498.14403248 -174.984375 497 C-179.85475635 491.99046489 -185.12107053 487.30265211 -190.8125 483.25 C-194.44233747 480.61745121 -197.21739735 477.57556359 -200.08203125 474.140625 C-201.70527749 472.15728892 -201.70527749 472.15728892 -204.0625 469.9375 C-205.625 468.3125 -205.625 468.3125 -205.625 466.3125 C-206.285 466.3125 -206.945 466.3125 -207.625 466.3125 C-210.85158686 462.84252835 -213.69770424 459.03662731 -216.625 455.3125 C-217.84509766 453.77916016 -217.84509766 453.77916016 -219.08984375 452.21484375 C-235.38728059 431.55398298 -263.625 395.69662912 -263.625 368.3125 C-264.285 367.9825 -264.945 367.6525 -265.625 367.3125 C-266.40625 364.8359375 -266.40625 364.8359375 -267.125 361.6875 C-267.94168086 358.1969148 -268.75765358 354.73888056 -269.8125 351.3125 C-270.625 348.3125 -270.625 348.3125 -270.625 344.3125 C-271.285 343.9825 -271.945 343.6525 -272.625 343.3125 C-273.15234375 341.109375 -273.15234375 341.109375 -273.5625 338.0625 C-273.72492188 336.90621094 -273.88734375 335.74992187 -274.0546875 334.55859375 C-274.18762207 333.56835205 -274.18762207 333.56835205 -274.32324219 332.55810547 C-274.79699043 329.03259064 -275.28961978 325.50978236 -275.78540039 321.98730469 C-276.05173963 320.09139622 -276.31400185 318.19491018 -276.57202148 316.29785156 C-276.69391846 315.42225586 -276.81581543 314.54666016 -276.94140625 313.64453125 C-277.10298218 312.46467651 -277.10298218 312.46467651 -277.26782227 311.26098633 C-277.54454456 309.24123303 -277.54454456 309.24123303 -278.625 307.3125 C-278.72945231 305.90845402 -278.77364607 304.49966743 -278.78613281 303.09179688 C-278.79559433 302.21394531 -278.80505585 301.33609375 -278.81480408 300.43164062 C-278.81919998 299.47451172 -278.82359589 298.51738281 -278.828125 297.53125 C-278.83513931 296.53867188 -278.84215363 295.54609375 -278.84938049 294.5234375 C-278.86701207 291.28641305 -278.87324447 288.04957088 -278.875 284.8125 C-278.87567474 283.71494385 -278.87634949 282.6173877 -278.87704468 281.48657227 C-278.86109423 265.22844916 -278.46753572 249.36051663 -275.625 233.3125 C-275.45871094 232.33667969 -275.29242187 231.36085938 -275.12109375 230.35546875 C-266.81908107 182.94175187 -246.37660369 138.32954922 -215.625 101.3125 C-215.16448242 100.75046875 -214.70396484 100.1884375 -214.22949219 99.609375 C-203.23684018 86.22832636 -191.25237972 74.01972693 -177.625 63.3125 C-176.83867188 62.63574219 -176.05234375 61.95898438 -175.2421875 61.26171875 C-140.72114362 31.66452282 -96.02162627 12.60682312 -51.6875 4 C-50.55658936 3.77920776 -50.55658936 3.77920776 -49.40283203 3.55395508 C-32.964072 0.57854299 -16.66928556 -0.06088969 0 0 Z " fill="#888888" transform="translate(1784.625,809.6875)"/>
<path d="M0 0 C1.06298309 0.00182281 2.12596619 0.00364563 3.22116089 0.00552368 C18.49175345 0.04966042 33.40608507 0.37496777 48.4375 3.3125 C49.85361572 3.57788574 49.85361572 3.57788574 51.29833984 3.84863281 C100.82317703 13.29825573 146.57379496 34.88514187 184.4375 68.3125 C185.25992188 69.0240625 186.08234375 69.735625 186.9296875 70.46875 C198.34962691 80.50331971 209.15105004 91.26428053 218.4375 103.3125 C219.63246094 104.81683594 219.63246094 104.81683594 220.8515625 106.3515625 C256.09322889 150.96083276 279.34698122 209.07157911 279.640625 266.2890625 C279.64763931 267.2090654 279.65465363 268.1290683 279.66188049 269.07695007 C279.67928892 272.0305171 279.68573311 274.98388355 279.6875 277.9375 C279.68851212 279.45215347 279.68851212 279.45215347 279.68954468 280.99740601 C279.67361686 295.98994437 279.24151084 310.54346571 276.4375 325.3125 C276.24994141 326.32521973 276.06238281 327.33793945 275.86914062 328.38134766 C272.57563956 345.84809479 267.80853016 362.54038758 262.10058594 379.35546875 C261.20302337 382.00453411 260.31946439 384.65820716 259.4375 387.3125 C258.7775 387.3125 258.1175 387.3125 257.4375 387.3125 C257.27749512 387.84544678 257.11749023 388.37839355 256.95263672 388.92749023 C255.02414078 395.05162459 252.47402221 400.66124695 249.5625 406.375 C248.93021484 407.6444043 248.93021484 407.6444043 248.28515625 408.93945312 C245.90089377 413.66787581 243.35796762 418.19272469 240.44873047 422.61889648 C239.27126798 424.45313416 239.27126798 424.45313416 238.4375 427.3125 C237.7775 427.3125 237.1175 427.3125 236.4375 427.3125 C236.19257813 428.02019531 235.94765625 428.72789062 235.6953125 429.45703125 C234.26949715 432.69389777 232.45288847 435.18834274 230.3125 438 C227.43478004 441.31306399 227.43478004 441.31306399 226.4375 445.3125 C225.31639704 446.39856849 224.19319059 447.48251038 223.0625 448.55859375 C220.95871272 450.829268 219.23018191 453.28984345 217.4375 455.8125 C214.67688846 459.67942403 211.89364781 463.0382547 208.4375 466.3125 C207.47030143 467.45086011 206.51262361 468.59735004 205.5625 469.75 C202.97212088 472.81983233 200.16653251 475.36777416 197.078125 477.92578125 C195.27438403 479.41119163 195.27438403 479.41119163 193.125 481.625 C187.57859497 487.17140503 181.73269726 492.62300339 175.4375 497.3125 C174.7775 497.3125 174.1175 497.3125 173.4375 497.3125 C173.4375 497.9725 173.4375 498.6325 173.4375 499.3125 C171.13914817 501.0729397 168.84050304 502.70525365 166.4375 504.3125 C165.7141748 504.80161865 164.99084961 505.2907373 164.24560547 505.79467773 C144.53109479 519.03949688 124.47085407 530.3723102 102.4375 539.3125 C101.57898437 539.66731445 100.72046875 540.02212891 99.8359375 540.38769531 C95.08491528 542.33080599 90.40949348 544.00264442 85.4375 545.3125 C83.69889861 545.79050378 81.96064837 546.26978569 80.22265625 546.75 C78.31522751 547.27128487 76.40767267 547.79210853 74.5 548.3125 C73.54931641 548.57289063 72.59863281 548.83328125 71.61914062 549.1015625 C48.34510539 555.4534012 25.96152454 557.65431578 1.85327148 557.51831055 C-1.52042128 557.49988849 -4.89383988 557.49780295 -8.26757812 557.49804688 C-36.78428564 557.45427784 -36.78428564 557.45427784 -46.5625 554.3125 C-48.22930739 553.93604629 -49.90042647 553.57844429 -51.57421875 553.234375 C-86.14410387 546.11093904 -118.51712892 533.97124955 -148.5625 515.3125 C-149.25118164 514.88984863 -149.93986328 514.46719727 -150.64941406 514.03173828 C-152.64792453 512.8022832 -154.63819874 511.56077208 -156.625 510.3125 C-157.52883423 509.75163696 -157.52883423 509.75163696 -158.45092773 509.17944336 C-159.85799302 508.27846264 -161.21644188 507.30231136 -162.5625 506.3125 C-162.5625 505.6525 -162.5625 504.9925 -162.5625 504.3125 C-163.26761719 504.07917969 -163.97273438 503.84585937 -164.69921875 503.60546875 C-168.1202763 502.06062557 -170.52440011 500.06463529 -173.375 497.625 C-173.89980957 497.17874268 -174.42461914 496.73248535 -174.96533203 496.27270508 C-178.61829561 493.15766642 -182.23979979 490.00517751 -185.83203125 486.8203125 C-187.3921713 485.46091282 -189.00592919 484.1636482 -190.625 482.875 C-193.67502927 480.21433617 -196.16154457 477.36304769 -198.7734375 474.28515625 C-200.45787972 472.42785643 -202.17832096 470.88613702 -204.125 469.3125 C-207.26428916 466.71494658 -209.50665925 463.90682363 -211.86328125 460.59765625 C-213.805696 457.98544331 -215.92309945 455.57850504 -218.0625 453.125 C-222.78295273 447.59666605 -226.84626482 441.66968972 -230.875 435.625 C-231.75478516 434.30689331 -231.75478516 434.30689331 -232.65234375 432.9621582 C-242.5625 417.90884581 -242.5625 417.90884581 -242.5625 414.3125 C-243.2225 414.3125 -243.8825 414.3125 -244.5625 414.3125 C-246.0719588 411.21284597 -247.56840667 408.10708597 -249.0625 405 C-249.49175781 404.11892578 -249.92101563 403.23785156 -250.36328125 402.33007812 C-250.76933594 401.48251953 -251.17539063 400.63496094 -251.59375 399.76171875 C-251.97080078 398.98143311 -252.34785156 398.20114746 -252.73632812 397.3972168 C-253.5625 395.3125 -253.5625 395.3125 -253.5625 392.3125 C-254.2225 391.9825 -254.8825 391.6525 -255.5625 391.3125 C-256.61230469 389.06958008 -256.61230469 389.06958008 -257.734375 386.08203125 C-258.14856689 384.98060791 -258.56275879 383.87918457 -258.98950195 382.74438477 C-259.42609131 381.54998779 -259.86268066 380.35559082 -260.3125 379.125 C-260.76133545 377.89773193 -261.2101709 376.67046387 -261.67260742 375.40600586 C-286.77174168 306.00851408 -284.03814906 228.01863077 -252.90283203 160.96411133 C-243.37816095 141.00169509 -232.19168193 122.72756581 -218.5625 105.3125 C-218.10004883 104.71872559 -217.63759766 104.12495117 -217.16113281 103.51318359 C-203.42993039 86.13159067 -186.62322164 69.14867373 -168.5625 56.3125 C-167.45420545 55.48902594 -166.34746871 54.66345171 -165.2421875 53.8359375 C-117.15766063 18.20168383 -59.66946544 -0.21191296 0 0 Z " fill="#888888" transform="translate(2374.5625,809.6875)"/>
<path d="M0 0 C2.44072688 2.1464816 4.8044144 4.35040998 7.15234375 6.59765625 C8.32603516 7.67660156 8.32603516 7.67660156 9.5234375 8.77734375 C27.34853623 25.71831759 40.39380221 47.37324312 48.15234375 70.59765625 C48.65625712 71.92206305 49.16420033 73.24494229 49.67578125 74.56640625 C51.1291394 78.41342162 52.21773057 82.29266665 53.21484375 86.28515625 C53.69630859 88.17814453 53.69630859 88.17814453 54.1875 90.109375 C56.74546871 101.47359485 57.59761047 112.674228 57.58984375 124.28515625 C57.58991425 125.04744537 57.58998474 125.8097345 57.59005737 126.59512329 C57.43502424 170.52785145 39.40106932 210.21813721 9.15234375 241.59765625 C8.48976563 242.31179688 7.8271875 243.0259375 7.14453125 243.76171875 C-20.56437683 272.86186908 -62.84092507 288.45999104 -102.328125 289.8359375 C-129.48232689 290.36159436 -155.64152588 285.0062873 -179.84765625 272.59765625 C-181.62462891 271.74107422 -181.62462891 271.74107422 -183.4375 270.8671875 C-219.32494771 253.19544766 -246.73517921 220.69331018 -260.84765625 183.59765625 C-261.09999023 182.93894531 -261.35232422 182.28023437 -261.61230469 181.6015625 C-268.65165592 162.91117135 -271.2097031 144.73455931 -271.28515625 124.84765625 C-271.29142029 124.07690765 -271.29768433 123.30615906 -271.30413818 122.51205444 C-271.3811486 107.52435031 -269.62852787 92.80898265 -265.09765625 78.47265625 C-264.84161621 77.64483643 -264.58557617 76.8170166 -264.32177734 75.96411133 C-261.75115605 67.89663708 -258.54976275 60.20601511 -254.84765625 52.59765625 C-254.54633789 51.97052734 -254.24501953 51.34339844 -253.93457031 50.69726562 C-245.96187721 34.31317038 -234.87231899 20.29670242 -221.84765625 7.59765625 C-221.26242187 6.96730469 -220.6771875 6.33695313 -220.07421875 5.6875 C-162.44307494 -55.05015528 -61.44617443 -51.83730764 0 0 Z " fill="#FEFEFE" transform="translate(1891.84765625,963.40234375)"/>
<path d="M0 0 C0.90878906 0.13277344 1.81757813 0.26554688 2.75390625 0.40234375 C29.18341852 4.53810946 55.30007492 16.16442125 76 33 C76.55397461 33.44714355 77.10794922 33.89428711 77.67871094 34.35498047 C105.26382052 56.76307422 124.02371016 86.13035004 133.875 120.25 C134.16165527 121.22042236 134.16165527 121.22042236 134.45410156 122.21044922 C138.10206262 135.71982223 138.41253873 149.78826522 138.375 163.6875 C138.3737915 164.52105011 138.37258301 165.35460022 138.37133789 166.21340942 C138.32045034 179.17965031 137.68972294 191.48953314 134 204 C133.7421875 204.8957373 133.484375 205.79147461 133.21875 206.71435547 C126.06135069 230.84158406 114.29553491 253.31423802 97.0859375 271.76171875 C95.13555617 273.85454366 93.28368633 276.00298541 91.4375 278.1875 C75.73344083 296.06377597 53.1180727 308.92767439 31 317 C30.29246582 317.26796387 29.58493164 317.53592773 28.85595703 317.81201172 C-10.1137037 332.37838389 -55.14636586 329.88732726 -93 313 C-133.29188723 294.14666231 -164.41984518 261.32885133 -180.0625 219.57421875 C-194.3856216 179.87308513 -194.35846536 135.44508994 -176.74047852 96.67871094 C-175.84495294 94.7764777 -174.9280887 92.88654231 -174 91 C-173.69336426 90.36900391 -173.38672852 89.73800781 -173.07080078 89.08789062 C-154.03481486 50.36460978 -119.7020144 20.85447174 -79.16699219 6.46704102 C-70.5557342 3.53822266 -61.97857012 1.49477849 -53 0 C-51.94425781 -0.20496094 -50.88851562 -0.40992188 -49.80078125 -0.62109375 C-33.49589218 -3.47297423 -16.25088843 -2.87253034 0 0 Z " fill="#FEFEFE" transform="translate(2401,926)"/>
<path d="M0 0 C1.19882813 0.42925781 2.39765625 0.85851562 3.6328125 1.30078125 C18.40199586 6.86666245 32.63250093 14.15067808 45 24 C45.75410156 24.55300781 46.50820312 25.10601563 47.28515625 25.67578125 C61.26223121 36.199422 73.46017455 49.36451169 83 64 C83.40154297 64.61584961 83.80308594 65.23169922 84.21679688 65.86621094 C101.47183002 92.72757129 110.45097812 122.83642729 110.4375 154.75 C110.43860275 155.89435516 110.43860275 155.89435516 110.43972778 157.06182861 C110.37060456 184.55854393 103.28268442 210.9297582 90 235 C89.42378906 236.06605469 88.84757812 237.13210938 88.25390625 238.23046875 C81.3946787 250.47569483 72.63502892 260.89698396 63 271 C62.22140625 271.84304688 61.4428125 272.68609375 60.640625 273.5546875 C32.96399465 302.62443683 -8.59219061 318.79154058 -48.2734375 320.16015625 C-86.64144192 321.07851855 -123.67238718 309.7727863 -154 286 C-154.87785156 285.32582031 -155.75570313 284.65164063 -156.66015625 283.95703125 C-186.64463272 260.271452 -205.76947148 227.8397655 -215 191 C-215.26901123 189.92854736 -215.26901123 189.92854736 -215.54345703 188.83544922 C-221.31226255 164.32232231 -219.67524908 136.07055164 -213 112 C-212.77006348 111.16742676 -212.54012695 110.33485352 -212.30322266 109.47705078 C-200.91412369 69.68371633 -173.15056718 33.58298785 -137 13.1875 C-134.3527013 11.75254892 -131.6802072 10.37222937 -129 9 C-128.35160156 8.65630371 -127.70320313 8.31260742 -127.03515625 7.95849609 C-88.72727266 -12.24796428 -40.55193643 -15.12933296 0 0 Z " fill="#FEFEFE" transform="translate(1256,933)"/>
<path d="M0 0 C1.25464554 -0.00110275 1.25464554 -0.00110275 2.53463745 -0.00222778 C17.09747544 0.03126676 30.75146512 1.43566592 44.8125 5.4375 C45.74320313 5.69982422 46.67390625 5.96214844 47.6328125 6.23242188 C89.15805777 18.29093669 124.73855067 46.52245316 145.62255859 84.41162109 C146.70113839 86.41263885 147.76209503 88.42156118 148.8125 90.4375 C149.29396484 91.35934082 149.29396484 91.35934082 149.78515625 92.29980469 C169.42639533 130.53447616 170.44769697 175.30031982 158.04248047 215.96142578 C150.58670286 238.88645625 138.37988265 258.99043332 121.8125 276.4375 C120.76146455 277.67963281 119.71846878 278.92866211 118.6875 280.1875 C115.40694296 284.03147681 111.71561197 287.23875757 107.8125 290.4375 C106.45898438 291.56478516 106.45898438 291.56478516 105.078125 292.71484375 C70.82644274 320.22920272 27.73322678 332.07509803 -15.75634766 328.11230469 C-50.36655601 324.01234918 -82.20162026 310.30661523 -107.88671875 286.546875 C-109.9588264 284.64714982 -112.08591131 282.85523619 -114.25 281.0625 C-119.21132845 276.72880948 -123.15459594 271.62167752 -127.1875 266.4375 C-127.93128906 265.509375 -128.67507813 264.58125 -129.44140625 263.625 C-151.85894921 234.93054501 -162.48865136 199.67386461 -162.625 163.625 C-162.63126404 162.84998138 -162.63752808 162.07496277 -162.64398193 161.27645874 C-162.71986455 146.42803972 -160.67029193 132.28044391 -156.5 118 C-156.24436279 117.1236792 -155.98872559 116.2473584 -155.7253418 115.34448242 C-147.9941032 89.82332968 -133.36146196 67.74733458 -115.1875 48.4375 C-114.65125 47.84839844 -114.115 47.25929688 -113.5625 46.65234375 C-84.85725199 16.29654398 -41.09368156 -0.01573673 0 0 Z " fill="#FEFEFE" transform="translate(620.1875,924.5625)"/>
</svg>
