<?xml version="1.0" standalone="no"?>
<!DOCTYPE svg PUBLIC "-//W3C//DTD SVG 20010904//EN"
 "http://www.w3.org/TR/2001/REC-SVG-20010904/DTD/svg10.dtd">
<svg version="1.0" xmlns="http://www.w3.org/2000/svg"
 width="512.000000pt" height="512.000000pt" viewBox="0 0 512.000000 512.000000"
 preserveAspectRatio="xMidYMid meet">

<g transform="translate(0.000000,512.000000) scale(0.100000,-0.100000)"
fill="#000000" stroke="none">
<path d="M1592 4464 c-75 -20 -102 -36 -155 -93 -63 -67 -113 -175 -139 -297
-27 -135 -22 -437 13 -624 33 -186 42 -165 -86 -209 -150 -51 -286 -112 -396
-177 -425 -251 -513 -559 -240 -834 136 -138 343 -254 611 -344 157 -52 145
-28 109 -221 -20 -113 -24 -160 -23 -355 0 -251 12 -322 75 -447 176 -349 634
-280 1150 171 l97 84 78 -70 c383 -338 721 -470 969 -377 71 26 155 105 198
186 95 177 111 495 44 860 l-23 122 106 36 c454 159 750 411 768 655 20 286
-259 537 -796 715 -91 30 -112 40 -108 53 12 40 45 205 58 287 7 52 13 163 12
265 -1 195 -17 280 -74 396 -176 360 -628 298 -1151 -160 l-97 -84 -78 70
c-358 316 -686 456 -922 392z m284 -204 c90 -31 225 -107 336 -189 102 -77
228 -187 228 -200 0 -4 -39 -52 -86 -107 -47 -54 -125 -149 -172 -211 l-87
-112 -60 -6 c-102 -11 -306 -45 -393 -65 -46 -11 -89 -20 -97 -20 -26 0 -60
344 -52 536 5 154 18 209 69 294 26 42 45 61 88 83 49 25 62 28 112 22 32 -3
83 -15 114 -25z m1723 -47 c48 -49 61 -70 82 -133 22 -69 24 -90 24 -270 -1
-173 -4 -211 -29 -338 -27 -136 -30 -143 -50 -138 -44 13 -286 55 -408 72
l-127 17 -95 126 c-52 69 -131 167 -174 216 -94 105 -98 85 43 203 231 193
446 300 608 301 l69 1 57 -57z m-871 -656 l82 -97 -216 0 -216 0 29 34 c15 18
64 75 108 126 l79 92 26 -29 c14 -16 62 -73 108 -126z m224 -323 c19 -4 43
-31 91 -103 70 -105 192 -319 270 -474 l49 -97 -57 -112 c-96 -191 -244 -436
-320 -533 -15 -19 -30 -20 -328 -23 -172 -2 -343 0 -380 5 l-69 8 -101 155
c-115 177 -252 418 -268 471 -13 43 -2 73 93 244 46 83 253 426 275 454 13 18
669 22 745 5z m-1022 -38 c0 -3 -27 -45 -60 -95 -33 -49 -69 -118 -80 -151
-25 -74 -68 -146 -80 -134 -9 9 -120 301 -120 315 0 9 120 37 235 55 95 14
105 15 105 10z m1445 -17 c39 -5 101 -17 138 -26 67 -15 68 -16 62 -41 -8 -32
-69 -195 -97 -261 l-20 -46 -23 58 c-27 65 -42 91 -132 229 -35 54 -63 100
-63 103 0 3 15 3 33 0 17 -3 64 -10 102 -16z m575 -135 c52 -14 145 -50 205
-79 245 -118 381 -242 401 -363 6 -36 2 -52 -25 -106 -74 -150 -316 -316 -602
-411 -59 -19 -113 -35 -122 -35 -11 0 -28 38 -58 128 -23 70 -66 184 -95 255
l-53 127 45 107 c25 59 68 168 96 243 28 74 54 145 59 157 7 19 12 21 31 13
13 -5 66 -21 118 -36z m-2520 -94 c39 -123 93 -257 140 -350 l29 -57 -48 -114
c-27 -63 -70 -178 -97 -255 l-48 -142 -50 18 c-188 65 -366 149 -483 227 -134
89 -233 211 -233 287 0 108 133 244 350 359 133 71 347 150 389 144 8 -1 29
-49 51 -117z m2078 -722 c57 -159 74 -220 66 -228 -20 -17 -331 -70 -322 -54
53 88 123 201 152 244 20 30 42 70 48 88 7 17 15 32 19 32 4 0 20 -37 37 -82z
m-1674 -132 c49 -71 100 -165 94 -172 -7 -7 -314 50 -326 61 -2 2 82 246 103
298 6 15 15 5 45 -50 20 -37 58 -99 84 -137z m-114 -335 c96 -16 202 -32 235
-36 127 -13 117 -7 203 -118 44 -56 124 -153 178 -216 l98 -114 -25 -21 c-14
-12 -68 -57 -120 -100 -153 -129 -327 -234 -448 -270 -30 -9 -89 -19 -132 -22
-69 -6 -81 -4 -113 15 -83 51 -132 232 -123 451 4 115 55 460 67 460 3 0 84
-13 180 -29z m1930 -3 c0 -2 12 -57 26 -123 34 -160 44 -432 20 -544 -22 -105
-71 -189 -131 -226 -87 -54 -193 -38 -376 57 -105 55 -267 171 -369 265 l-65
60 84 94 c46 52 124 149 174 216 l91 122 61 6 c80 9 381 54 425 65 38 9 60 12
60 8z m-840 -84 c0 -9 -89 -124 -154 -198 l-61 -69 -71 77 c-39 42 -90 103
-113 136 l-42 60 220 0 c122 0 221 -3 221 -6z"/>
<path d="M2500 2945 c-30 -9 -73 -26 -95 -40 -58 -34 -132 -117 -163 -183 -24
-50 -27 -69 -27 -162 0 -99 2 -110 33 -172 41 -85 128 -167 209 -199 45 -18
79 -23 153 -23 87 -1 101 2 162 31 87 41 151 101 188 177 63 127 63 245 0 372
-79 161 -282 248 -460 199z"/>
</g>
</svg>
