<?xml version="1.0" encoding="UTF-8"?>
<svg version="1.1" xmlns="http://www.w3.org/2000/svg" width="1024" height="1024">
<path d="M0 0 C1.61343608 0.57007705 3.22696339 1.13989595 4.84057617 1.70947266 C15.22420024 5.38745847 25.54531455 9.21859238 35.85241699 13.1048584 C92.59414376 34.48211983 129.96199876 28.86811955 185.6015625 8 C186.53840378 7.64923904 187.47524506 7.29847809 188.44047546 6.93708801 C193.05605904 5.20851588 197.66872488 3.47299918 202.27563477 1.72143555 C210.92975491 -1.55025572 219.61452034 -4.64776389 228.45703125 -7.375 C229.64802681 -7.75130302 229.64802681 -7.75130302 230.86308289 -8.13520813 C242.14277168 -11.51012955 254.32806289 -11.90070486 265.07421875 -6.609375 C277.03384925 0.86321165 284.32587303 11.63680288 289.25 24.625 C289.65597412 25.6672876 290.06194824 26.7095752 290.48022461 27.78344727 C291.92734147 31.53435503 293.34437303 35.29590885 294.75 39.0625 C295.03482239 39.82542358 295.31964478 40.58834717 295.61309814 41.37438965 C302.42091455 59.63944172 309.11027386 77.94683058 315.40260315 96.39651489 C318.10055766 104.27101228 320.93498205 112.08944429 323.81640625 119.8984375 C324.79513273 122.55813623 325.77252386 125.21832429 326.74951172 127.87866211 C326.99808143 128.55542401 327.24665113 129.23218592 327.50275326 129.92945576 C331.55784075 140.97886156 335.54800564 152.05187378 339.53979492 163.12426758 C340.71122694 166.37340528 341.88448119 169.621881 343.05863476 172.87003613 C343.52755687 174.16846931 343.9957668 175.46715992 344.46325397 176.76611042 C345.6059119 179.94070856 346.75843167 183.11065062 347.92753601 186.27568054 C350.06165908 192.09860363 352.02292013 197.8668017 353.5793457 203.87231445 C355.80514713 213.6573918 355.80514713 213.6573918 361.53652954 221.49783325 C366.59879958 224.14967978 371.95463168 224.754155 377.5625 225.375 C379.16887469 225.62901398 380.77375957 225.89264199 382.37695312 226.16601562 C386.15498977 226.79033138 389.9372637 227.31365785 393.7354126 227.79840088 C396.60899346 228.17510838 399.46663293 228.62297122 402.32421875 229.10546875 C403.16944092 229.24364014 404.01466309 229.38181152 404.88549805 229.52416992 C405.80842651 229.79064331 405.80842651 229.79064331 406.75 230.0625 C407.08 230.7225 407.41 231.3825 407.75 232.0625 C409.79112661 232.57587854 409.79112661 232.57587854 412.3125 232.875 C418.15348957 233.8166012 423.59236813 235.48559017 429.17797852 237.38598633 C432.81843223 238.59255474 435.90751377 239.34438123 439.75 239.0625 C440.08 239.7225 440.41 240.3825 440.75 241.0625 C442.58651469 241.94590813 442.58651469 241.94590813 444.84375 242.69140625 C445.70121826 242.99949219 446.55868652 243.30757812 447.44213867 243.625 C448.36873291 243.955 449.29532715 244.285 450.25 244.625 C483.31332044 256.8437469 483.31332044 256.8437469 491.3125 269.6875 C493.75 275.41032609 493.75 275.41032609 493.75 279.0625 C489.25964498 289.53999504 480.21220006 294.02266886 470.04931641 298.17578125 C448.54318012 306.46950465 417.06711005 317.32288433 393.75 316.0625 C393.42 316.7225 393.09 317.3825 392.75 318.0625 C390.90209961 318.40625 390.90209961 318.40625 388.46484375 318.5625 C382.34914361 319.05898554 376.35877704 320.0355631 370.3125 321.0625 C369.23806641 321.24039062 368.16363281 321.41828125 367.05664062 321.6015625 C361.33214958 322.53600696 361.33214958 322.53600696 355.75 324.0625 C356.5853125 325.02736328 356.5853125 325.02736328 357.4375 326.01171875 C366.17884655 336.36253621 373.167976 347.24332597 377.75 360.0625 C378.04648437 360.87332031 378.34296875 361.68414062 378.6484375 362.51953125 C387.2507293 389.56138913 381.73317386 418.81457558 369.2109375 443.57421875 C365.68100682 450.2143886 361.36924766 456.14806621 356.75 462.0625 C355.69619141 463.46628906 355.69619141 463.46628906 354.62109375 464.8984375 C346.77413348 475.1255912 335.80106511 485.24207395 323.75 490.0625 C323.75 493.6925 323.75 497.3225 323.75 501.0625 C324.56597656 501.47757812 325.38195312 501.89265625 326.22265625 502.3203125 C342.8332521 510.90728816 359.06511696 520.54873909 374.03271484 531.77783203 C375.94521267 533.20853484 377.87253576 534.61794525 379.80078125 536.02734375 C387.49165675 541.68126839 394.76368541 547.54447099 401.75 554.0625 C403.0782573 555.2349425 404.41141541 556.40186217 405.75 557.5625 C407.08382798 558.72860111 408.41714039 559.89529216 409.75 561.0625 C410.49636719 561.71476563 411.24273438 562.36703125 412.01171875 563.0390625 C421.20476832 571.18105487 430.15431572 579.7561968 438.09765625 589.13671875 C439.28411842 590.51952217 440.50469994 591.87332244 441.74609375 593.20703125 C448.11079369 600.04823279 453.68203404 607.36938761 459.1796875 614.90966797 C460.22990063 616.34946576 461.28462664 617.78598219 462.34375 619.21923828 C477.09867896 639.21343276 477.09867896 639.21343276 479.75 648.0625 C476.87381634 661.83074015 459.95509099 670.79261354 448.99267578 678.08569336 C440.54900287 683.58837203 431.80916298 688.62174812 423.09912109 693.68725586 C421.40890636 694.67675696 419.73660822 695.69709611 418.07666016 696.73657227 C415.75 698.0625 415.75 698.0625 413.75 698.0625 C413.42 698.7225 413.09 699.3825 412.75 700.0625 C411.08333333 700.72916667 409.41666667 701.39583333 407.75 702.0625 C407.42 702.7225 407.09 703.3825 406.75 704.0625 C407.35545654 704.32240723 407.96091309 704.58231445 408.5847168 704.85009766 C504.47779989 746.16587741 504.47779989 746.16587741 524.5390625 795.3125 C526.04672374 799.19423069 527.42111694 803.11655169 528.75 807.0625 C529.1219751 808.13169678 529.4939502 809.20089355 529.87719727 810.30249023 C532.84393998 818.95886091 535.35189384 827.65346774 537.54516602 836.53637695 C538.07058853 838.65765566 538.61003179 840.77506059 539.15039062 842.89257812 C539.49302166 844.26281252 539.83484939 845.63324809 540.17578125 847.00390625 C540.47911377 848.21763916 540.78244629 849.43137207 541.0949707 850.68188477 C541.72006864 853.90802383 541.87593606 856.78722501 541.75 860.0625 C542.41 860.3925 543.07 860.7225 543.75 861.0625 C544.20384216 862.82064819 544.20384216 862.82064819 544.49389648 865.14208984 C544.60701675 866.00951813 544.72013702 866.87694641 544.83668518 867.7706604 C544.95116501 868.72032684 545.06564484 869.66999329 545.18359375 870.6484375 C545.30971542 871.63331146 545.4358371 872.61818542 545.56578064 873.63290405 C545.83278293 875.72253118 546.09596752 877.81264908 546.35565186 879.90319824 C546.73259303 882.92304487 547.12320017 885.94071543 547.52001953 888.95800781 C548.16609631 893.87218653 548.80067318 898.7877427 549.42993164 903.70410156 C549.81329549 906.69370347 550.20058725 909.68278125 550.58789062 912.671875 C551.33417554 918.46572621 552.0538639 924.26241319 552.75 930.0625 C552.86156433 930.98816772 552.97312866 931.91383545 553.08807373 932.86755371 C553.40403128 935.54321 553.70314434 938.22017421 553.99609375 940.8984375 C554.08858902 941.67845123 554.18108429 942.45846497 554.27638245 943.26211548 C555.08619797 951.01914214 555.28009956 959.41835398 550.75 966.0625 C544.70099177 973.31402192 535.85211045 975.05880614 526.9375 976.8125 C523.18498204 977.10681513 519.51335439 977.12852376 515.75 977.0625 C515.42 977.7225 515.09 978.3825 514.75 979.0625 C512.2023972 979.35356887 509.74372406 979.52924846 507.1875 979.625 C505.72517505 979.69751733 504.26293251 979.77171734 502.80078125 979.84765625 C502.09904785 979.88262207 501.39731445 979.91758789 500.67431641 979.95361328 C494.52049896 980.21129339 494.52049896 980.21129339 488.75 982.0625 C486.57696717 982.2315242 484.40001485 982.35047459 482.22265625 982.44921875 C471.760146 983.01778868 461.3796911 984.25249771 450.97299194 985.44284058 C444.83520788 986.14354243 438.69585152 986.83018026 432.55651283 987.51709938 C431.01462934 987.68962791 429.47275817 987.86226661 427.93089867 988.03500938 C403.77206563 990.74121941 379.60562055 993.37818411 355.4375 996 C354.24634583 996.1292474 353.05519165 996.2584948 351.82794189 996.39165878 C318.63056229 999.9914942 285.42432042 1003.47096741 252.1875 1006.6875 C251.34252834 1006.76928875 250.49755669 1006.8510775 249.62697983 1006.9353447 C239.91502705 1007.87437901 230.20191543 1008.80048869 220.48730469 1009.71160889 C216.97111337 1010.04173993 213.45527678 1010.37545379 209.93945312 1010.70947266 C207.9583628 1010.89517142 205.97724534 1011.08058104 203.99609375 1011.265625 C203.14365585 1011.34712799 202.29121796 1011.42863098 201.41294861 1011.51260376 C195.17747087 1012.08690248 189.01354006 1012.30035595 182.75 1012.0625 C182.42 1012.7225 182.09 1013.3825 181.75 1014.0625 C161.68816674 1014.08582739 141.62633622 1014.10347839 121.56449223 1014.11431217 C112.25010284 1014.11947547 102.93572187 1014.12651881 93.62133789 1014.13793945 C85.5059464 1014.14788526 77.390561 1014.15435318 69.27516359 1014.15658849 C64.97540212 1014.15789578 60.67565808 1014.16098274 56.37590218 1014.16823006 C52.33357158 1014.17498865 48.29126568 1014.17711729 44.24892998 1014.17560768 C42.76095826 1014.17588408 41.27298577 1014.17789016 39.78501892 1014.18170547 C37.76224862 1014.18664014 35.73946524 1014.18489816 33.71669006 1014.18275452 C32.5819629 1014.18367631 31.44723574 1014.1845981 30.2781229 1014.18554783 C27.75 1014.0625 27.75 1014.0625 26.75 1013.0625 C23.69691772 1012.75596875 20.65794744 1012.51067435 17.59765625 1012.30078125 C15.57144141 1012.1528118 13.54523755 1012.00469188 11.51904297 1011.85644531 C9.88440094 1011.73928162 9.88440094 1011.73928162 8.21673584 1011.61975098 C-8.88458494 1010.39023423 -25.9698095 1009.03482601 -43.04296875 1007.46484375 C-43.78629644 1007.39656687 -44.52962414 1007.32828999 -45.29547691 1007.25794411 C-52.66668701 1006.57985647 -60.03702383 1005.89285323 -67.40634251 1005.19451237 C-69.50063929 1004.99664625 -71.59510704 1004.80070965 -73.68965149 1004.60548401 C-76.25438761 1004.36600282 -78.81878163 1004.12281537 -81.38273621 1003.87510681 C-88.02944946 1003.25709307 -94.57443858 1002.90165458 -101.25 1003.0625 C-101.25 1002.4025 -101.25 1001.7425 -101.25 1001.0625 C-101.86858887 1001.07990234 -102.48717773 1001.09730469 -103.12451172 1001.11523438 C-111.29046749 1001.24020072 -119.26520165 1000.45643011 -127.375 999.5625 C-137.47145685 998.38966151 -137.47145685 998.38966151 -147.6171875 998.03125 C-148.81601562 998.0415625 -150.01484375 998.051875 -151.25 998.0625 C-151.58 997.7325 -151.91 997.4025 -152.25 997.0625 C-154.75610167 996.6983997 -157.24711765 996.39293004 -159.76391602 996.12280273 C-160.94454872 995.99091049 -160.94454872 995.99091049 -162.14903259 995.85635376 C-164.76685354 995.5651578 -167.38533352 995.28044423 -170.00390625 994.99609375 C-171.82180083 994.7960002 -173.63966649 994.59564372 -175.45750427 994.39503479 C-179.27808414 993.97444241 -183.09899613 993.5570424 -186.92016602 993.1418457 C-191.80423089 992.61090526 -196.68740048 992.07219552 -201.57034397 991.53105068 C-205.33021457 991.1152449 -209.09053272 990.70360734 -212.85099602 990.29319954 C-214.65035872 990.09632281 -216.44958243 989.89817129 -218.24865913 989.69869804 C-220.7754409 989.41917976 -223.30277382 989.14528955 -225.83032227 988.87280273 C-226.56674957 988.79021713 -227.30317688 988.70763153 -228.06192017 988.62254333 C-232.81753401 988.11753815 -237.46725466 987.9927726 -242.25 988.0625 C-242.25 987.4025 -242.25 986.7425 -242.25 986.0625 C-246.54 985.7325 -250.83 985.4025 -255.25 985.0625 C-255.58 985.7225 -255.91 986.3825 -256.25 987.0625 C-256.25 986.4025 -256.25 985.7425 -256.25 985.0625 C-257.15951416 984.95703857 -258.06902832 984.85157715 -259.00610352 984.74291992 C-263.27509733 984.24693836 -267.54385364 983.74896158 -271.8125 983.25 C-272.58243286 983.16012817 -273.35236572 983.07025635 -274.14562988 982.97766113 C-284.86647782 981.72418275 -295.57684416 980.41742276 -306.26782227 978.92651367 C-310.63542048 978.33220046 -314.82811118 977.91799383 -319.25 978.0625 C-319.25 977.4025 -319.25 976.7425 -319.25 976.0625 C-320.52875 975.98 -321.8075 975.8975 -323.125 975.8125 C-329.87881331 975.06445106 -336.52643538 973.10272817 -341.25 968.0625 C-342.24 967.4025 -343.23 966.7425 -344.25 966.0625 C-345.67149484 963.1446948 -346.25 961.33045703 -346.25 958.0625 C-346.91 957.7325 -347.57 957.4025 -348.25 957.0625 C-334.12033914 834.2242762 -334.12033914 834.2242762 -314.25 791.0625 C-313.77844482 790.03092773 -313.77844482 790.03092773 -313.29736328 788.97851562 C-309.09989658 779.91081752 -304.40231738 771.96230659 -298.25 764.0625 C-297.59 763.0725 -296.93 762.0825 -296.25 761.0625 C-295.59 761.0625 -294.93 761.0625 -294.25 761.0625 C-294.05664062 760.51851562 -293.86328125 759.97453125 -293.6640625 759.4140625 C-291.62259677 756.01913883 -288.69947773 753.85124324 -285.625 751.4375 C-284.96201904 750.91260986 -284.29903809 750.38771973 -283.6159668 749.84692383 C-276.51406736 744.32989037 -268.97329057 739.64775217 -261.25 735.0625 C-260.22261719 734.43730469 -259.19523437 733.81210937 -258.13671875 733.16796875 C-243.89335678 724.6296611 -228.70359227 717.90206497 -213.5456543 711.18261719 C-211.36256174 710.21319288 -209.18306475 709.2360409 -207.00390625 708.2578125 C-206.33742569 707.96512482 -205.67094513 707.67243713 -204.98426819 707.37088013 C-201.47023026 705.9537093 -201.47023026 705.9537093 -199.25 703.0625 C-201.78682516 701.739856 -204.32877651 700.42932639 -206.875 699.125 C-207.58785156 698.75181641 -208.30070313 698.37863281 -209.03515625 697.99414062 C-213.11918102 695.91466012 -216.6202221 694.52255679 -221.25 694.0625 C-220.92 693.4025 -220.59 692.7425 -220.25 692.0625 C-220.96027344 691.72476563 -221.67054688 691.38703125 -222.40234375 691.0390625 C-223.32144531 690.59304688 -224.24054688 690.14703125 -225.1875 689.6875 C-226.10402344 689.24664063 -227.02054687 688.80578125 -227.96484375 688.3515625 C-230.25 687.0625 -230.25 687.0625 -231.25 685.0625 C-232.56252882 684.35575371 -233.90278717 683.70065344 -235.25 683.0625 C-241.63255904 679.59791191 -247.40961749 675.47419144 -253.28515625 671.22070312 C-254.01089844 670.70056641 -254.73664063 670.18042969 -255.484375 669.64453125 C-256.13631836 669.17249268 -256.78826172 668.7004541 -257.45996094 668.21411133 C-259.35669872 666.88952398 -259.35669872 666.88952398 -262.25 666.0625 C-264.80086286 663.58265884 -267.00139467 660.81589428 -269.25 658.0625 C-270.4875 656.6084375 -270.4875 656.6084375 -271.75 655.125 C-273.8405236 650.85684764 -273.30815816 647.62463863 -272.25 643.0625 C-271.03370221 640.2493057 -269.46471191 637.78415432 -267.75 635.25 C-267.07831787 634.21915283 -267.07831787 634.21915283 -266.39306641 633.16748047 C-262.27949857 626.92825508 -257.8678263 620.93819854 -253.25 615.0625 C-252.30060547 613.84046875 -252.30060547 613.84046875 -251.33203125 612.59375 C-243.10360196 602.14279652 -234.36524292 592.10522171 -225.25878906 582.4128418 C-223.12226818 580.13219053 -221.0744303 577.84093234 -219.1328125 575.390625 C-217.41187768 573.2626641 -215.72548242 571.61348439 -213.625 569.875 C-210.39312637 567.12103745 -207.40196418 564.22737185 -204.4375 561.1875 C-200.1873963 556.88508733 -195.71970125 553.02778597 -190.98828125 549.265625 C-188.9076742 547.59164158 -186.88774431 545.88895378 -184.875 544.13671875 C-181.35954347 541.10873758 -177.69516034 538.34346378 -173.9375 535.625 C-173.2787085 535.14619385 -172.61991699 534.6673877 -171.94116211 534.17407227 C-170.04661825 532.8000355 -168.14858045 531.43095051 -166.25 530.0625 C-165.38117188 529.43085937 -164.51234375 528.79921875 -163.6171875 528.1484375 C-153.06438576 520.60050134 -141.9341752 513.90590651 -130.625 507.5625 C-129.87927734 507.14121826 -129.13355469 506.71993652 -128.36523438 506.28588867 C-124.40790467 504.09599283 -120.61941743 502.33059591 -116.25 501.0625 C-116.40597656 500.43601562 -116.56195313 499.80953125 -116.72265625 499.1640625 C-116.91730469 498.34679687 -117.11195313 497.52953125 -117.3125 496.6875 C-117.50972656 495.87539063 -117.70695313 495.06328125 -117.91015625 494.2265625 C-118.25 492.0625 -118.25 492.0625 -117.25 490.0625 C-118.1265625 489.81113281 -119.003125 489.55976563 -119.90625 489.30078125 C-125.39183721 487.26931963 -129.6501721 483.60877451 -134.25 480.0625 C-134.84296875 479.61519531 -135.4359375 479.16789062 -136.046875 478.70703125 C-140.34485047 475.32179788 -143.76002756 471.24011531 -147.25 467.0625 C-147.8790625 466.34449219 -148.508125 465.62648438 -149.15625 464.88671875 C-162.86002169 448.70865495 -169.84369187 429.23747289 -174.77270508 408.90917969 C-175.19534241 407.27397316 -175.71590987 405.6647704 -176.25 404.0625 C-177.06903492 374.4705377 -170.16670421 348.37582006 -150.25 326.0625 C-149.59 325.4025 -148.93 324.7425 -148.25 324.0625 C-149.52713867 323.85157715 -150.80427734 323.6406543 -152.12011719 323.42333984 C-254.30041914 306.50123397 -254.30041914 306.50123397 -277.25 290.0625 C-277.83910156 289.66546875 -278.42820312 289.2684375 -279.03515625 288.859375 C-283.10108143 285.86237855 -286.35042186 282.10558955 -287.25 277.0625 C-285.03438616 267.68362335 -275.3667686 260.9222707 -267.65625 256.1015625 C-262.13189689 252.85721495 -256.39947647 250.44297453 -250.4375 248.125 C-248.80868896 247.48377197 -248.80868896 247.48377197 -247.14697266 246.82958984 C-232.98192744 241.31694201 -218.68015484 236.42404136 -203.890625 232.88671875 C-203.01921875 232.61472656 -202.1478125 232.34273437 -201.25 232.0625 C-200.92 231.4025 -200.59 230.7425 -200.25 230.0625 C-198.26912881 229.851296 -196.2872878 229.64796519 -194.30322266 229.46923828 C-190.49817663 228.96234506 -186.80225359 228.11015411 -183.07421875 227.21484375 C-182.3372879 227.03821198 -181.60035706 226.8615802 -180.84109497 226.67959595 C-178.53889979 226.12374656 -176.23804327 225.56264467 -173.9375 225 C-171.61462294 224.4330744 -169.29140069 223.86785849 -166.9667511 223.3082428 C-165.5288369 222.9620405 -164.0919155 222.61168043 -162.65617371 222.25657654 C-159.37906665 221.46698514 -156.65069123 221.0625 -153.25 221.0625 C-153.12238281 220.34843994 -152.99476563 219.63437988 -152.86328125 218.89868164 C-152.24791894 216.05287593 -151.41064896 213.42639084 -150.4375 210.68359375 C-150.08429688 209.68005859 -149.73109375 208.67652344 -149.3671875 207.64257812 C-148.99851562 206.60552734 -148.62984375 205.56847656 -148.25 204.5 C-147.51924276 202.43676058 -146.79001334 200.37297923 -146.0625 198.30859375 C-145.57716797 196.94238892 -145.57716797 196.94238892 -145.08203125 195.54858398 C-144.24193866 193.15992968 -144.24193866 193.15992968 -143.76831055 191.046875 C-143.12748919 188.59346191 -142.15835494 186.39141656 -141.14453125 184.06640625 C-137.75689821 176.04165335 -134.82803278 167.85792777 -131.89135742 159.65942383 C-130.92746182 156.97201282 -129.95515694 154.28773794 -128.98242188 151.60351562 C-128.3666801 149.89080733 -127.75142735 148.17792313 -127.13671875 146.46484375 C-126.84617111 145.66489487 -126.55562347 144.86494598 -126.25627136 144.04075623 C-125.14875713 140.93038909 -124.25 138.39038516 -124.25 135.0625 C-123.59 135.0625 -122.93 135.0625 -122.25 135.0625 C-122.04697266 134.21619019 -122.04697266 134.21619019 -121.83984375 133.3527832 C-119.30314669 123.42909518 -115.72365495 113.87377815 -112.25 104.25 C-111.57525911 102.37102495 -110.90078264 100.49195493 -110.2265625 98.61279297 C-105.83792002 86.39663461 -101.39456815 74.20087071 -96.89697266 62.02441406 C-94.68383024 56.02315263 -92.52497775 50.01084072 -90.46289062 43.95605469 C-78.84200903 9.89251482 -78.84200903 9.89251482 -70.25 1.0625 C-69.59 1.0625 -68.93 1.0625 -68.25 1.0625 C-68.25 0.4025 -68.25 -0.2575 -68.25 -0.9375 C-45.95995713 -16.68913029 -23.46226524 -8.36831453 0 0 Z " fill="#074D80" transform="translate(408.25,9.9375)"/>
<path d="M0 0 C14.46724537 -0.05178619 28.92750012 -0.04230881 43.39282227 0.21435547 C45.25361404 0.24715386 45.25361404 0.24715386 47.15199757 0.28061485 C49.11189597 0.31526674 51.07179434 0.34992081 53.03169018 0.38471782 C102.58844303 1.25720188 152.15049646 1.1525216 201.71317065 1.12856841 C210.46625503 1.12478369 219.21932813 1.12617125 227.97241211 1.13037109 C297.11507517 1.26785573 297.11507517 1.26785573 366.24783802 0.28061485 C367.16193282 0.25874926 368.07602762 0.23688366 369.01782227 0.21435547 C369.89035739 0.19323008 370.76289251 0.17210468 371.6618681 0.15033913 C383.43928205 -0.11014276 395.22048551 -0.0434487 407 0 C407.00706718 0.72906555 407.01413437 1.4581311 407.02141571 2.20928955 C407.08673995 8.83803851 407.16777213 15.46632929 407.26245117 22.09472656 C407.29557919 24.59694251 407.32364833 27.09923101 407.34643555 29.6015625 C407.38020452 33.21125019 407.43253274 36.82028024 407.48828125 40.4296875 C407.49786613 42.09123367 407.49786613 42.09123367 407.50764465 43.78634644 C407.65380686 51.61604511 407.9033061 59.9033061 413.6875 65.6875 C419.11655267 67.83863408 423.99395204 66.57395598 429.2109375 64.37109375 C430.60390824 63.73733127 431.99197609 63.09268487 433.375 62.4375 C440.78816047 59 440.78816047 59 443 59 C451.87384528 77.22153667 450.07090836 96.55424115 443.6875 115.375 C435.70617848 136.02284358 421.78759442 149.86551856 403.453125 161.703125 C396.58151742 166.01241683 396.58151742 166.01241683 393 173 C392.58215549 176.17941689 392.35509749 179.36478734 392.125 182.5625 C388.18317254 228.83070544 368.43776236 273.08951302 338 308 C337.34515625 308.76441406 336.6903125 309.52882813 336.015625 310.31640625 C325.2906628 322.55334621 313.8159466 334.10385133 300.69140625 343.75292969 C299.01897152 344.98601234 297.36864524 346.24479604 295.71875 347.5078125 C263.55680572 371.74655495 224.97895312 383.12501147 184.86328125 378.4921875 C137.58190882 371.62359199 93.46830097 339.17800843 65 302 C64.58041016 301.45682129 64.16082031 300.91364258 63.72851562 300.35400391 C45.45739968 276.5815483 15.43654513 232.00870816 19.32641602 200.34277344 C20.26568655 197.0759231 21.98687183 195.80347024 24.5625 193.625 C25.46871094 192.84769531 26.37492187 192.07039062 27.30859375 191.26953125 C28.19675781 190.52058594 29.08492188 189.77164063 30 189 C31.37666673 187.77270036 32.75183067 186.54371147 34.125 185.3125 C37.9263189 181.99216431 41.91729348 178.96430553 46 176 C46.58265625 176.37511719 47.1653125 176.75023437 47.765625 177.13671875 C69.19041496 190.51036908 91.60446887 194.13990559 116.05126953 188.49609375 C136.6146545 183.26121549 156.10339841 169.60867611 167.04248047 151.25048828 C178.34062606 131.31890234 182.61398744 107.69818972 176.96484375 85.2578125 C170.64618221 63.92273671 158.3949928 46.18197575 138.71484375 35.16015625 C118.99143907 24.82884904 95.64906298 21.15474484 73.75 26.5 C50.26489584 34.21964072 31.73416623 48.95273834 20.46484375 71.00390625 C10.72128268 92.90457104 9.86740938 117.1683443 18.37890625 139.640625 C19.2303984 141.64927315 20.11413753 143.64495346 21.046875 145.6171875 C22 148 22 148 22 152 C20.80664062 153.55566406 20.80664062 153.55566406 19.15625 155.015625 C18.56972656 155.54414063 17.98320312 156.07265625 17.37890625 156.6171875 C16.75886719 157.15601563 16.13882813 157.69484375 15.5 158.25 C14.87996094 158.80429687 14.25992188 159.35859375 13.62109375 159.9296875 C12.08949443 161.29634535 10.54586106 162.64949501 9 164 C0.90158506 160.50415494 -5.360739 155.74936005 -12 150 C-12.7115625 149.43410156 -13.423125 148.86820313 -14.15625 148.28515625 C-30.00740193 135.42182065 -38.54784206 115.00199639 -40.8125 95.07348633 C-41.93064127 82.70841628 -42.14891813 69.72337719 -35 59 C-29.46531727 60.71450322 -24.48175367 63.15959924 -19.31640625 65.7578125 C-15.61434428 67.14445055 -12.92288668 67.31946862 -9 67 C-5.96803213 65.48401607 -4.48652897 64.13520831 -3.14201355 60.99807739 C-0.95790241 54.08341994 -0.52994013 47.65128255 -0.48828125 40.4296875 C-0.47033005 39.26744659 -0.45237885 38.10520569 -0.43388367 36.90774536 C-0.38011295 33.23019944 -0.34599132 29.55278081 -0.3125 25.875 C-0.27929765 23.36716991 -0.24480533 20.85935655 -0.20898438 18.3515625 C-0.12200268 12.23452415 -0.0592985 6.11735719 0 0 Z " fill="#FEFEFE" transform="translate(308,313)"/>
<path d="M0 0 C0.66 0.33 1.32 0.66 2 1 C-9.42712607 75.05205829 -26.01048699 145.51307689 -57 214 C-57.39815918 214.89025879 -57.79631836 215.78051758 -58.20654297 216.69775391 C-68.13259613 238.86702718 -79.92228676 262.82026184 -95 282 C-95.66 282 -96.32 282 -97 282 C-101.71051838 260.03731375 -106.24805684 238.03977894 -110.67810059 216.0189209 C-111.22553316 213.29802706 -111.77520103 210.57759974 -112.32678223 207.85754395 C-113.10903989 203.99862873 -113.88308664 200.13809193 -114.65625 196.27734375 C-114.89337708 195.11116013 -115.13050415 193.9449765 -115.37481689 192.74345398 C-115.58950623 191.66401016 -115.80419556 190.58456635 -116.02539062 189.47241211 C-116.30896423 188.06215004 -116.30896423 188.06215004 -116.5982666 186.62339783 C-117.00215822 183.98590642 -117.24824115 181.6594844 -117 179 C-115.07656494 176.9831065 -113.30293198 175.38054076 -111.125 173.6875 C-110.53581787 173.20893555 -109.94663574 172.73037109 -109.33959961 172.23730469 C-106.62644568 170.04211317 -103.8726793 167.90066567 -101.12109375 165.75390625 C-92.2958291 158.99724161 -92.2958291 158.99724161 -86.75 149.625 C-87.32940728 141.22359444 -95.62500628 133.42163997 -100.625 126.9375 C-102.04480913 125.08635024 -103.46407476 123.23478351 -104.8828125 121.3828125 C-105.92743652 120.0201123 -105.92743652 120.0201123 -106.99316406 118.62988281 C-109.85631187 114.87783559 -112.67880746 111.09611987 -115.5 107.3125 C-117.32923519 104.87189673 -119.16302517 102.43478194 -121 100 C-122.15822266 98.46472656 -122.15822266 98.46472656 -123.33984375 96.8984375 C-124.37818359 95.55652344 -124.37818359 95.55652344 -125.4375 94.1875 C-126.01371094 93.43855469 -126.58992187 92.68960938 -127.18359375 91.91796875 C-132.49462197 86.30997981 -139.06836148 85.25737589 -146.4609375 84.7734375 C-160.83909162 84.33943506 -160.83909162 84.33943506 -173.46875 90.109375 C-176.57878241 93.66095522 -179.49988179 97.31937536 -182.375 101.0625 C-182.97715332 101.84109375 -183.57930664 102.6196875 -184.19970703 103.421875 C-189.46338028 110.25013068 -194.62986706 117.15048508 -199.78540039 124.06054688 C-203.62367636 129.19654745 -207.51850429 134.26210347 -211.58203125 139.22265625 C-214.06945499 142.34050143 -215.32095247 144.34302819 -215.4375 148.3125 C-215.49744141 149.42044922 -215.49744141 149.42044922 -215.55859375 150.55078125 C-214.14367336 156.75466296 -208.08063103 160.78088907 -203.25 164.4375 C-202.33009277 165.1480957 -202.33009277 165.1480957 -201.39160156 165.87304688 C-198.65726311 167.98300883 -195.90651771 170.07101059 -193.15625 172.16015625 C-192.3621875 172.76730469 -191.568125 173.37445312 -190.75 174 C-190.06421875 174.515625 -189.3784375 175.03125 -188.671875 175.5625 C-187 177 -187 177 -185 180 C-185.12367249 182.55691528 -185.12367249 182.55691528 -185.66430664 185.65673828 C-185.96729172 187.40642914 -185.96729172 187.40642914 -186.27639771 189.19146729 C-187.56533599 195.97553039 -188.94460655 202.7360685 -190.37109375 209.4921875 C-190.6976716 211.05186388 -191.02392313 212.61160862 -191.34986877 214.17141724 C-192.20222538 218.24650042 -193.05855045 222.32073878 -193.91589355 226.39477539 C-195.1188592 232.11484466 -196.31628358 237.83607699 -197.51441956 243.55715942 C-198.14970625 246.59055282 -198.78642313 249.62363983 -199.42442322 252.65646362 C-199.57271104 253.36282015 -199.72099886 254.06917667 -199.87378025 254.79693794 C-200.16386424 256.17817525 -200.45473979 257.5592466 -200.74646664 258.94013786 C-201.47119429 262.38969584 -202.16565653 265.84200765 -202.81448364 269.30670166 C-202.94592553 269.99850084 -203.07736742 270.69030003 -203.2127924 271.40306282 C-203.57185537 273.30508988 -203.92203207 275.20878832 -204.2716217 277.11257935 C-205 280 -205 280 -207 282 C-213.2855693 274.54220234 -218.14600267 266.41849221 -223 258 C-223.37946777 257.34547852 -223.75893555 256.69095703 -224.14990234 256.01660156 C-229.39966556 246.93435422 -234.3014274 237.71754544 -238.88720703 228.28320312 C-239.66706293 226.68311265 -240.45236249 225.08566921 -241.24169922 223.49023438 C-273.08656671 159.11566353 -291.62018456 88.48990372 -300.875 17.4375 C-301.00753174 16.43734863 -301.14006348 15.43719727 -301.27661133 14.40673828 C-301.44519653 13.02784424 -301.44519653 13.02784424 -301.6171875 11.62109375 C-301.71628418 10.8211499 -301.81538086 10.02120605 -301.91748047 9.19702148 C-302.00289444 6.92293769 -301.66333866 5.16651477 -301 3 C-300.2471875 3.65484375 -299.494375 4.3096875 -298.71875 4.984375 C-290.11071533 12.40632817 -281.19146734 19.31701271 -272 26 C-271.43812988 26.40992188 -270.87625977 26.81984375 -270.29736328 27.2421875 C-226.92337277 58.68140713 -174.8285469 74.4539237 -121.3671875 65.9609375 C-73.87697118 57.70250978 -35.47333019 31.25031469 0 0 Z " fill="#FDFEFE" transform="translate(663,660)"/>
<path d="M0 0 C130.35 0 260.7 0 395 0 C400.62472948 13.49935074 400.62472948 13.49935074 402.4296875 18.41015625 C403.02934326 20.03546265 403.02934326 20.03546265 403.64111328 21.69360352 C404.0482959 22.80533936 404.45547852 23.9170752 404.875 25.0625 C405.30409668 26.229021 405.73319336 27.39554199 406.17529297 28.59741211 C407.04020991 30.94875383 407.90432004 33.3003925 408.76757812 35.65234375 C409.90435387 38.74019418 411.05101585 41.82409378 412.203125 44.90625 C412.53070801 45.78531006 412.85829102 46.66437012 413.19580078 47.57006836 C413.80126485 49.19413107 414.40890543 50.81738453 415.01904297 52.43969727 C417 57.77476101 417 57.77476101 417 60 C272.13 60 127.26 60 -22 60 C-19.53127279 52.59381838 -16.99039845 45.22927088 -14.375 37.875 C-13.98699219 36.77285156 -13.59898437 35.67070312 -13.19921875 34.53515625 C-9.06129131 22.90457787 -4.50667175 11.51705002 0 0 Z " fill="#32AFFD" transform="translate(314,170)"/>
<path d="M0 0 C3.21630141 1.52603415 5.28769299 3.09800771 7.75 5.6875 C11.10358338 9.13510908 14.58186001 12.33461068 18.23828125 15.45703125 C19.89815811 16.91080366 21.45933981 18.42141586 23 20 C21.58098338 23.22745524 19.87144235 25.37258107 17.37646484 27.85058594 C16.63584808 28.59105164 15.89523132 29.33151733 15.13217163 30.09442139 C13.93366074 31.27744843 13.93366074 31.27744843 12.7109375 32.484375 C11.89251373 33.29996887 11.07408997 34.11556274 10.23086548 34.95587158 C7.61690027 37.55864562 4.99606495 40.15437762 2.375 42.75 C0.60110546 44.5138634 -1.17233766 46.2781809 -2.9453125 48.04296875 C-7.29165142 52.36726136 -11.64365081 56.6857933 -16 61 C-11.4364995 66.47162589 -6.59436889 71.5482829 -1.55126953 76.578125 C-0.72443665 77.40671021 0.10239624 78.23529541 0.95428467 79.08898926 C3.672752 81.8118373 6.39483684 84.53103499 9.1171875 87.25 C11.01796006 89.15099569 12.91813353 91.05258989 14.81838989 92.95410156 C18.79591371 96.93343964 22.77552947 100.91067646 26.75634766 104.88671875 C31.3411289 109.46606256 35.92230194 114.04899231 40.50161064 118.63380814 C44.45071649 122.58747083 48.40179134 126.53915787 52.35447991 130.48923874 C54.70758752 132.8407972 57.05983385 135.19319822 59.41070175 137.54699707 C62.03554173 140.17439104 64.66359109 142.79853355 67.29248047 145.421875 C68.05845551 146.18987427 68.82443054 146.95787354 69.61361694 147.74914551 C73.63582151 151.7557264 77.75343415 155.56942172 82.05189705 159.27662659 C85.39517415 162.23422945 88.52307222 165.40081282 91.66601562 168.56835938 C92.38585129 169.2896553 93.10568695 170.01095123 93.84733582 170.75410461 C95.39635107 172.30689954 96.944211 173.8608477 98.49101257 175.41584778 C100.94460379 177.88230491 103.40139468 180.3455351 105.85900879 182.8079834 C111.95953992 188.9218221 118.05459841 195.04110726 124.14984131 201.16021729 C129.31054082 206.34070284 134.47332051 211.51909852 139.63883972 216.69477844 C142.04926275 219.11164385 144.45663357 221.53152087 146.8638916 223.95153809 C148.35377295 225.44505482 149.84379649 226.93842973 151.33398438 228.43164062 C152.32394661 229.42935234 152.32394661 229.42935234 153.33390808 230.44721985 C157.14602932 234.25976732 161.07873136 237.86361084 165.15865326 241.38743401 C167.63697122 243.55782982 169.98003397 245.84542763 172.31445312 248.16918945 C172.78379272 248.63517044 173.25313232 249.10115143 173.73669434 249.58125305 C175.25413352 251.08935606 176.76792983 252.60104582 178.28125 254.11328125 C179.34591685 255.17472851 180.41065609 256.23610317 181.47546387 257.29740906 C183.68918521 259.50518649 185.90087508 261.71497596 188.11132812 263.92602539 C190.94880702 266.76360682 193.79315935 269.59419227 196.63922882 272.42315388 C198.83184971 274.60469489 201.01994977 276.79072642 203.20677185 278.97807884 C204.25459151 280.02471674 205.30403701 281.06972953 206.3551178 282.11309242 C207.81507862 283.56331428 209.26863683 285.01966289 210.72070312 286.4777832 C211.54928833 287.30494339 212.37787354 288.13210358 213.23156738 288.98432922 C215 291 215 291 215 293 C210.18011918 292.88079659 205.36040513 292.75649642 200.54077148 292.62768555 C198.90473913 292.58465327 197.26867095 292.54295935 195.63256836 292.50268555 C193.26665497 292.44420554 190.90091673 292.38074516 188.53515625 292.31640625 C187.81602554 292.29969376 187.09689484 292.28298126 186.35597229 292.26576233 C184.98828911 292.22679529 183.62088561 292.17473976 182.25434297 292.10664457 C180.79434141 292.03757733 179.33284316 291.9936751 177.87127453 291.97981888 C171.31614042 291.66785379 168.25786122 289.40238747 163.7875824 284.78147888 C162.82659784 283.83639313 162.82659784 283.83639313 161.84619945 282.87221473 C159.87986046 280.93161406 157.94017603 278.96670746 156 277 C154.86289293 275.8774694 153.72350728 274.75724087 152.58152962 273.6396656 C149.16130591 270.2841901 145.77897848 266.89195917 142.39868164 263.49633789 C141.11905125 262.21478084 139.83918746 260.9334568 138.55911255 259.65234375 C135.83725693 256.927365 133.11695242 254.2008513 130.39790535 251.47307014 C126.09169656 247.15317016 121.78152448 242.8372385 117.47080994 238.52183533 C108.3317097 229.37171341 99.19688833 220.21732535 90.0625 211.0625 C80.17246367 201.15037859 70.28165588 191.23903367 60.38597006 181.3325519 C56.10663077 177.0482538 51.82973516 172.76153604 47.55474579 168.47289765 C44.89443018 165.80509434 42.23201879 163.13939005 39.56904984 160.47423553 C38.3411244 159.24444743 37.11405897 158.0137999 35.88794899 156.78220177 C30.34402916 151.21425991 24.80616225 145.70649712 18.82692623 140.60010242 C15.40610363 137.60399539 12.22926201 134.35946141 9.0234375 131.13696289 C8.27124435 130.38491577 7.51905121 129.63286865 6.74406433 128.85803223 C4.28532863 126.39860592 1.8301432 123.93566835 -0.625 121.47265625 C-2.33970604 119.756083 -4.05463458 118.03973198 -5.76977539 116.32359314 C-10.26326784 111.82629938 -14.75374789 107.3260096 -19.24359131 102.82507324 C-23.83374343 98.22465551 -28.42676017 93.62709974 -33.01953125 89.02929688 C-42.01581473 80.02231819 -51.00901377 71.01226637 -60 62 C-58.15627446 58.01310718 -55.54585748 55.27719227 -52.44873047 52.22167969 C-51.88273132 51.65538849 -51.31673218 51.08909729 -50.73358154 50.50564575 C-48.8661528 48.63960762 -46.99174538 46.78074904 -45.1171875 44.921875 C-43.81923589 43.62765446 -42.52172584 42.33299095 -41.22463989 41.03790283 C-37.81285164 37.63374354 -34.39509948 34.23563366 -30.97607422 30.83874512 C-27.4869408 27.37008593 -24.00347613 23.89574417 -20.51953125 20.421875 C-13.68522632 13.60900698 -6.84460797 6.8025158 0 0 Z " fill="#31AEFD" transform="translate(252,730)"/>
<path d="M0 0 C2.94242388 1.3256907 5.00260886 2.75992373 7.26464844 5.0534668 C8.18645905 5.98034554 8.18645905 5.98034554 9.12689209 6.9259491 C10.10822113 7.92746758 10.10822113 7.92746758 11.109375 8.94921875 C11.79501526 9.64006058 12.48065552 10.3309024 13.18707275 11.04267883 C15.37952077 13.25292138 17.5651891 15.46970992 19.75 17.6875 C21.9213312 19.88661303 24.09415664 22.08419366 26.27008057 24.27876282 C27.62202456 25.64278233 28.97129021 27.00946394 30.31732178 28.37931824 C34.13705604 32.23882989 38.08133977 35.87433853 42.19268799 39.42100525 C44.45938859 41.40135414 46.59854204 43.48529603 48.71875 45.62109375 C49.50507812 46.41064453 50.29140625 47.20019531 51.1015625 48.01367188 C51.89304687 48.81353516 52.68453125 49.61339844 53.5 50.4375 C54.32242187 51.26443359 55.14484375 52.09136719 55.9921875 52.94335938 C57.99712113 54.95994959 59.99966253 56.97885236 62 59 C60.55522767 62.30789016 58.75998282 64.48971074 56.21434784 67.03454113 C55.42086834 67.83261942 54.62738885 68.63069771 53.80986452 69.45296019 C52.93380918 70.32387197 52.05775384 71.19478375 51.15515137 72.09208679 C49.76425521 73.48660457 49.76425521 73.48660457 48.34526014 74.90929443 C45.76997279 77.49100146 43.18847522 80.0664199 40.60592818 82.64086211 C37.82247517 85.41774274 35.04478418 88.20037655 32.26637268 90.9822998 C26.82243218 96.43128479 21.37316108 101.87490886 15.92207634 107.31674584 C9.57860446 113.64984179 3.24035479 119.98815336 -3.09768754 126.32668231 C-14.40297345 137.63246898 -25.71308573 148.93341515 -37.02587891 160.23168945 C-48.012256 171.20397383 -58.99511944 182.17975942 -69.97412109 193.15942383 C-70.65051284 193.83585553 -71.32690458 194.51228723 -72.02379304 195.20921686 C-72.69899671 195.88446087 -73.37420037 196.55970489 -74.06986475 197.25541085 C-86.55772061 209.74395591 -99.04886096 222.22921117 -111.54153922 234.71293211 C-115.96517983 239.13355204 -120.38783931 243.55515212 -124.81019592 247.9770565 C-130.1956065 253.36178612 -135.58289632 258.74462755 -140.97256625 264.12509402 C-143.72438781 266.87228751 -146.47540546 269.62027345 -149.22428703 272.37040901 C-152.19853451 275.34594752 -155.17662186 278.31761198 -158.15515137 281.28886414 C-159.46923438 282.60527005 -159.46923438 282.60527005 -160.80986452 283.94827002 C-161.60334402 284.73852507 -162.39682351 285.52878012 -163.21434784 286.34298229 C-164.24594064 287.37351846 -164.24594064 287.37351846 -165.2983737 288.42487353 C-168.51312585 291.40063925 -171.26929505 291.2573835 -175.5546875 291.53515625 C-176.21147491 291.57813339 -176.86826233 291.62111053 -177.54495239 291.66539001 C-178.94194243 291.75568728 -180.33907469 291.84380617 -181.73632812 291.92993164 C-183.83247119 292.0598638 -185.92791792 292.19830502 -188.0234375 292.33789062 C-196.0214134 292.85419941 -203.98261851 293.12839223 -212 293 C-207.21313634 287.24035261 -202.0773599 281.93902052 -196.77456665 276.65431213 C-195.39480323 275.27326708 -195.39480323 275.27326708 -193.98716581 273.86432213 C-191.44900734 271.32393913 -188.90776087 268.78666541 -186.36597657 266.24991095 C-183.61986285 263.508131 -180.87665547 260.76344585 -178.13308716 258.01911926 C-173.38426898 253.2697777 -168.63362885 248.52226498 -163.88173294 243.77600288 C-157.01136052 236.91377062 -150.14376352 230.04876626 -143.27683251 223.18309044 C-132.13459064 212.04303514 -120.99011921 200.90521308 -109.84423828 189.76879883 C-99.01949646 178.95324135 -88.1958094 168.13663012 -77.37353516 157.31860352 C-76.70602449 156.65135557 -76.03851382 155.98410763 -75.35077555 155.29664005 C-72.00195018 151.94911975 -68.6531455 148.60157876 -65.30435109 145.25402749 C-37.53943989 117.49947659 -9.77090711 89.74855137 18 62 C16.43388545 58.70184188 14.7486877 56.50279528 12.1484375 53.91796875 C11.37886719 53.15033203 10.60929688 52.38269531 9.81640625 51.59179688 C9.01074219 50.79837891 8.20507812 50.00496094 7.375 49.1875 C6.59253906 48.40568359 5.81007813 47.62386719 5.00390625 46.81835938 C0.71650391 42.56295257 -3.64741863 38.46737 -8.26220703 34.56835938 C-10.63732781 32.4248112 -12.64800455 30.04278956 -14.6796875 27.578125 C-16.33752809 25.59656406 -18.13864417 23.78976522 -20 22 C-18.51346494 18.53370165 -16.54277649 16.30977964 -13.8671875 13.671875 C-12.65869141 12.47304688 -12.65869141 12.47304688 -11.42578125 11.25 C-10.58402344 10.425 -9.74226562 9.6 -8.875 8.75 C-7.60076172 7.48929688 -7.60076172 7.48929688 -6.30078125 6.203125 C-4.20495077 4.13084317 -2.10459287 2.06337607 0 0 Z " fill="#31AFFD" transform="translate(770,730)"/>
<path d="M0 0 C11.93011721 9.08879805 20.16640187 20.14353489 23 35 C23.27907013 37.7574238 23.33491801 40.47977422 23.3125 43.25 C23.30686035 43.98943848 23.3012207 44.72887695 23.29541016 45.49072266 C22.9743612 60.14772026 17.53160484 72.07683017 7.48828125 82.7109375 C-4.04499942 93.32083149 -18.14800179 98.56681007 -33.67578125 98.2421875 C-48.47511255 97.16397535 -62.17137901 90.10332269 -72 79 C-81.57116321 65.83556733 -85.1698791 53.22789433 -84 37 C-82.29425375 27.43343519 -78.76739249 19.77013537 -73 12 C-72.52691406 11.34386719 -72.05382812 10.68773437 -71.56640625 10.01171875 C-67.56724307 4.9023063 -62.42446312 1.47303186 -57 -2 C-56.22011719 -2.51691406 -55.44023437 -3.03382813 -54.63671875 -3.56640625 C-37.53661001 -12.86379871 -16.01027876 -10.1923966 0 0 Z " fill="#FDFEFE" transform="translate(434,376)"/>
<path d="M0 0 C1.77649681 -0.0049926 1.77649681 -0.0049926 3.58888245 -0.01008606 C6.0824444 -0.015127 8.57601304 -0.01749527 11.06958008 -0.01733398 C14.86355781 -0.0195224 18.65724538 -0.03771401 22.45117188 -0.05664062 C24.8841136 -0.05957484 27.31705669 -0.06155945 29.75 -0.0625 C31.43481728 -0.07327827 31.43481728 -0.07327827 33.15367126 -0.08427429 C42.6180386 -0.05709484 51.00335199 -0.00902349 58.1640625 6.73046875 C61.1205524 10.05765004 60.71133653 13.4414081 60.65625 17.6953125 C60.27392903 22.0954793 58.35855499 24.22302762 55.37890625 27.29296875 C48.29860456 31.81231025 39.60868426 32.84816147 31.44140625 34.16796875 C31.415625 34.92980469 31.38984375 35.69164062 31.36328125 36.4765625 C30.85610634 45.70945125 29.51492868 52.64852439 22.56640625 59.10546875 C17.00555502 63.52143885 11.98767665 64.66246254 4.96484375 64.47265625 C-0.94111011 63.75955346 -5.05289218 61.17100746 -8.87109375 56.66796875 C-13.54837729 49.84958539 -15.11493101 41.32758197 -14.55859375 33.16796875 C-15.34363281 33.02101563 -16.12867188 32.8740625 -16.9375 32.72265625 C-23.84534835 31.24785182 -28.86942338 29.61590455 -33.55859375 24.16796875 C-35.53797371 20.20920884 -34.9735982 15.48279438 -34.55859375 11.16796875 C-32.36639727 5.92575978 -29.25192654 4.12218002 -24.265625 1.9296875 C-16.41208235 -0.28018381 -8.08907542 0.00799985 0 0 Z " fill="#07497B" transform="translate(596.55859375,365.83203125)"/>
<path d="M0 0 C0.92942413 -0.00571014 1.85884827 -0.01142029 2.81643677 -0.01730347 C3.83415665 -0.01842133 4.85187653 -0.01953918 5.9004364 -0.02069092 C6.97388306 -0.02565582 8.04732971 -0.03062073 9.15330505 -0.03573608 C12.71184424 -0.05036598 16.27033885 -0.05716111 19.8289032 -0.06268311 C22.29888918 -0.06843387 24.76887514 -0.07419161 27.23886108 -0.07995605 C32.42146513 -0.0904684 37.60405366 -0.09630954 42.78666687 -0.09979248 C49.42802005 -0.10527768 56.0691632 -0.12930548 62.71046162 -0.15776443 C67.81397094 -0.17638656 72.91743086 -0.1815962 78.0209713 -0.18312836 C80.46938892 -0.18615636 82.91780564 -0.19418981 85.36618996 -0.20731354 C88.79182664 -0.22436467 92.21696202 -0.22249578 95.6426239 -0.21600342 C96.65427109 -0.2252182 97.66591827 -0.23443298 98.70822144 -0.243927 C104.04706357 -0.21222496 107.87541202 0.09428313 112.46562195 3.14044189 C116.66660688 7.79558736 117.81998285 10.67080148 117.7507782 16.82012939 C117.20044894 21.298151 114.68647758 24.06756876 111.40312195 26.95294189 C108.19974066 28.91630462 105.56259591 29.26838142 101.89328003 29.28761292 C100.95544174 29.29476822 100.01760345 29.30192352 99.05134583 29.30929565 C98.02427521 29.31198456 96.99720459 29.31467346 95.93901062 29.31744385 C94.85581039 29.32401505 93.77261017 29.33058624 92.65658569 29.33735657 C89.06558669 29.3570964 85.47462949 29.36875298 81.8835907 29.37872314 C80.65818384 29.38279867 79.43277699 29.3868742 78.17023659 29.39107323 C72.35460646 29.40978428 66.5389928 29.42435027 60.72333831 29.4326852 C54.68378405 29.44148471 48.64448093 29.46078677 42.60502625 29.49713135 C36.12412999 29.53551311 29.64346043 29.55436722 23.16245461 29.55888939 C20.6916969 29.5637651 18.22094297 29.57540692 15.75024986 29.59392738 C12.29337031 29.61823213 8.83735541 29.6173693 5.38041687 29.6104126 C4.35941895 29.62322266 3.33842102 29.63603271 2.28648376 29.64923096 C-3.50890733 29.60670509 -6.97714507 29.09220172 -11.53437805 25.14044189 C-15.20770368 20.98378395 -16.17977484 17.72493092 -15.92500305 12.32012939 C-15.14162267 7.94886688 -12.72093079 5.18317006 -9.47187805 2.32794189 C-6.27982112 0.3715199 -3.65630042 0.01346082 0 0 Z " fill="#064679" transform="translate(461.5343780517578,571.8595581054688)"/>
<path d="M0 0 C1.01433609 -0.00145523 2.02867218 -0.00291046 3.07374573 -0.00440979 C5.21105837 -0.00275567 7.34838354 0.0087507 9.4855957 0.02954102 C12.7402662 0.0584725 15.99330319 0.0501431 19.24804688 0.03710938 C21.3320391 0.04334842 23.41602621 0.05174066 25.5 0.0625 C26.94722694 0.05809654 26.94722694 0.05809654 28.4236908 0.05360413 C35.33487369 0.14912038 41.63393784 0.74303406 46.69140625 5.93359375 C49.79577438 10.82894349 50.66467648 13.48581963 49.859375 19.24609375 C48.82660765 23.52576275 46.5232855 26.40235943 43.31640625 29.30859375 C39.83512962 31.37560175 36.54642797 31.6241906 32.55126953 31.65722656 C31.1392778 31.67163788 31.1392778 31.67163788 29.69876099 31.68634033 C28.68828705 31.69059021 27.67781311 31.69484009 26.63671875 31.69921875 C25.06843826 31.70776886 25.06843826 31.70776886 23.46847534 31.7164917 C21.25780242 31.72593171 19.04711549 31.73247171 16.83642578 31.73632812 C13.46101275 31.74603735 10.08620779 31.77707218 6.7109375 31.80859375 C4.56120153 31.81512382 2.41146121 31.82037428 0.26171875 31.82421875 C-0.74470673 31.83656555 -1.7511322 31.84891235 -2.78805542 31.8616333 C-9.3766258 31.84076766 -13.62160612 30.87763969 -18.93359375 26.74609375 C-22.04376181 22.74730624 -22.73399486 18.93252533 -22.55859375 13.93359375 C-21.19973327 8.59521331 -19.18214919 5.57438104 -14.70288086 2.35131836 C-9.95737503 -0.24309847 -5.2978235 -0.06155672 0 0 Z " fill="#09497A" transform="translate(499.68359375,495.50390625)"/>
<path d="M0 0 C4.02626565 1.61180698 6.72653304 4.45282547 9.72003174 7.47952271 C10.28697966 8.04476178 10.85392759 8.61000086 11.43805575 9.19236839 C13.33751328 11.08853038 15.22973195 12.99175465 17.12207031 14.89501953 C18.48181937 16.25533269 19.84200889 17.61520569 21.2026062 18.97467041 C24.89682621 22.66831585 28.58484098 26.36810178 32.2717905 30.06900263 C36.1252743 33.93497647 39.98441061 37.79529923 43.84295654 41.65621948 C51.14960954 48.96909231 58.45114869 56.28704913 65.75087428 63.6068362 C74.06125631 71.93956153 82.37730811 80.26661851 90.69384623 88.59319901 C107.8022236 105.7224898 124.90345151 122.85890351 142 140 C138.41887353 140 137.67708476 139.03090642 135.22137481 136.60395664 C134.72585607 136.09901725 134.23033732 135.59407786 133.71980286 135.07383728 C133.18793875 134.54383088 132.65607464 134.01382448 132.10809344 133.46775728 C130.31851267 131.6807868 128.53989846 129.88328009 126.76098633 128.08569336 C125.48355152 126.8057764 124.205449 125.52652555 122.92672729 124.24789429 C120.16894454 121.48740035 117.41600071 118.72219869 114.66666603 115.95329094 C110.31552852 111.571184 105.95409244 107.19942617 101.5912323 102.82899475 C94.68540342 95.90865495 87.78682626 88.98113571 80.89115781 82.05067307 C68.56107885 69.6588242 56.21900205 57.27893099 43.87401408 44.90193659 C39.54373888 40.55986105 35.21666827 36.21462426 30.89227927 31.8666867 C28.19255207 29.15306725 25.49078496 26.44148519 22.7885704 23.73034286 C21.54128107 22.47801186 20.29487474 21.22480065 19.04944801 19.97061729 C10.46389509 11.31147762 10.46389509 11.31147762 1.29697704 3.27585697 C0.86897462 2.85482417 0.44097219 2.43379137 0 2 C0 1.34 0 0.68 0 0 Z " fill="#002150" transform="translate(275,875)"/>
<path d="M0 0 C3.18259851 1.40509099 5.31348466 3.06921342 7.75878906 5.53173828 C8.83945648 6.61263229 8.83945648 6.61263229 9.94195557 7.71536255 C10.70876648 8.49249603 11.47557739 9.26962952 12.265625 10.0703125 C13.05902283 10.86654022 13.85242065 11.66276794 14.66986084 12.48312378 C17.20130703 15.02575948 19.72570803 17.57526348 22.25 20.125 C23.96568617 21.85071753 25.68182662 23.57598355 27.3984375 25.30078125 C31.60424248 29.52863032 35.80428507 33.76213869 40 38 C37 38 37 38 34.12426758 35.44897461 C32.95679502 34.27422992 31.79742796 33.0913965 30.64453125 31.90234375 C30.02406418 31.27526016 29.40359711 30.64817657 28.764328 30.00209045 C26.77319311 27.98750492 24.79242114 25.96310238 22.8125 23.9375 C20.2186362 21.29702646 17.62014238 18.66117065 15.01953125 16.02734375 C14.40022736 15.39790863 13.78092346 14.76847351 13.14285278 14.1199646 C9.33425605 10.27121999 5.44612968 6.60695109 1.22924805 3.20141602 C0.82359619 2.80494873 0.41794434 2.40848145 0 2 C0 1.34 0 0.68 0 0 Z " fill="#042C62" transform="translate(275,875)"/>
<path d="M0 0 C3.2268998 1.42062515 5.39942512 3.14245441 7.890625 5.625 C8.59960938 6.33140625 9.30859375 7.0378125 10.0390625 7.765625 C10.76867187 8.50296875 11.49828125 9.2403125 12.25 10 C12.99507813 10.73734375 13.74015625 11.4746875 14.5078125 12.234375 C15.21164062 12.94078125 15.91546875 13.6471875 16.640625 14.375 C17.28547852 15.02210938 17.93033203 15.66921875 18.59472656 16.3359375 C20 18 20 18 20 20 C11.09 19.67 2.18 19.34 -7 19 C-7 18.67 -7 18.34 -7 18 C0.59 17.67 8.18 17.34 16 17 C10.73708462 11.77668373 10.73708462 11.77668373 5.46875 6.55883789 C4.8190625 5.91164795 4.169375 5.26445801 3.5 4.59765625 C2.8296875 3.93258057 2.159375 3.26750488 1.46875 2.58227539 C0 1 0 1 0 0 Z " fill="#39CDF8" transform="translate(447,1003)"/>
<path d="M0 0 C-0.99 0.33 -1.98 0.66 -3 1 C-3 1.66 -3 2.32 -3 3 C-7.52081966 3.02917237 -12.04161488 3.0468568 -16.5625 3.0625 C-17.83931641 3.07087891 -19.11613281 3.07925781 -20.43164062 3.08789062 C-22.29272461 3.09272461 -22.29272461 3.09272461 -24.19140625 3.09765625 C-25.89598999 3.10551147 -25.89598999 3.10551147 -27.63500977 3.11352539 C-31.15208567 2.99486905 -34.52771145 2.55780511 -38 2 C-38 1.67 -38 1.34 -38 1 C-33.7133455 0.85610373 -29.42664344 0.71374336 -25.13989258 0.57275391 C-23.68414969 0.52466485 -22.22842017 0.47616942 -20.77270508 0.42724609 C-18.67011921 0.35665568 -16.56748829 0.28756785 -14.46484375 0.21875 C-13.202771 0.17685547 -11.94069824 0.13496094 -10.64038086 0.09179688 C-7.09177252 0.00231416 -3.54955964 -0.01599802 0 0 Z " fill="#031B51" transform="translate(535,691)"/>
<path d="M0 0 C1.32 0.66 2.64 1.32 4 2 C3.41951904 2.09369873 2.83903809 2.18739746 2.2409668 2.28393555 C-0.522814 3.1670567 -1.80377139 4.41613094 -3.85546875 6.45703125 C-4.55994141 7.15763672 -5.26441406 7.85824219 -5.99023438 8.58007812 C-6.71533203 9.31677734 -7.44042969 10.05347656 -8.1875 10.8125 C-8.92419922 11.53759766 -9.66089844 12.26269531 -10.41992188 13.00976562 C-11.12052734 13.71423828 -11.82113281 14.41871094 -12.54296875 15.14453125 C-13.18258545 15.78753174 -13.82220215 16.43053223 -14.48120117 17.09301758 C-16.07880693 19.09894888 -16.59536529 20.49321314 -17 23 C-16.34 23.33 -15.68 23.66 -15 24 C-15.33 24.66 -15.66 25.32 -16 26 C-17.32 24.68 -18.64 23.36 -20 22 C-18.51346494 18.53370165 -16.54277649 16.30977964 -13.8671875 13.671875 C-12.65869141 12.47304688 -12.65869141 12.47304688 -11.42578125 11.25 C-10.58402344 10.425 -9.74226562 9.6 -8.875 8.75 C-8.02550781 7.90953125 -7.17601562 7.0690625 -6.30078125 6.203125 C-4.20495077 4.13084317 -2.10459287 2.06337607 0 0 Z " fill="#36C7F5" transform="translate(770,730)"/>
<path d="M0 0 C0 2.83967231 -0.40267181 5.23735711 -1 8 C-1.66 8 -2.32 8 -3 8 C-3.96142017 10.20703372 -4.91919537 12.41553533 -5.875 14.625 C-6.14441406 15.24246094 -6.41382813 15.85992187 -6.69140625 16.49609375 C-8.3242666 20.27955067 -9.75517063 24.07214033 -11 28 C-12.92213343 23.05737117 -10.41248259 19.05380833 -8.54296875 14.4140625 C-3.70146138 3.70146138 -3.70146138 3.70146138 0 0 Z " fill="#051341" transform="translate(335,372)"/>
<path d="M0 0 C3.04332765 1.3584202 5.12309151 2.88463024 7.453125 5.2578125 C8.071875 5.88300781 8.690625 6.50820313 9.328125 7.15234375 C9.96234375 7.80332031 10.5965625 8.45429687 11.25 9.125 C11.8996875 9.78371094 12.549375 10.44242188 13.21875 11.12109375 C14.81711727 12.74296643 16.41061897 14.3693281 18 16 C17.34 16.66 16.68 17.32 16 18 C15.5153125 17.43152344 15.030625 16.86304688 14.53125 16.27734375 C10.44955048 11.57553988 6.30131976 7.34126588 1.46875 3.41015625 C0.9840625 2.94480469 0.499375 2.47945312 0 2 C0 1.34 0 0.68 0 0 Z " fill="#33B8F0" transform="translate(341,898)"/>
<path d="M0 0 C0.33 0.99 0.66 1.98 1 3 C-0.28725907 4.70250393 -1.62131719 6.37064759 -3 8 C-3 8.66 -3 9.32 -3 10 C-3.9075 10.2475 -4.815 10.495 -5.75 10.75 C-9.10351489 12.03981342 -10.67708236 13.31971042 -13 16 C-13.66 15.67 -14.32 15.34 -15 15 C-10.49985935 10.4116213 -6.07155524 5.96215253 -1 2 C-0.67 1.34 -0.34 0.68 0 0 Z " fill="#072457" transform="translate(331,462)"/>
<path d="M0 0 C0.66 0.33 1.32 0.66 2 1 C1.4225 1.54269531 0.845 2.08539063 0.25 2.64453125 C-0.4925 3.35996094 -1.235 4.07539063 -2 4.8125 C-2.7425 5.52019531 -3.485 6.22789062 -4.25 6.95703125 C-6.32527608 8.93139369 -6.32527608 8.93139369 -6 12 C-8.375 13.75 -8.375 13.75 -11 15 C-11.66 14.67 -12.32 14.34 -13 14 C-11.58474822 12.41540185 -10.1677358 10.83237609 -8.75 9.25 C-7.96109375 8.36828125 -7.1721875 7.4865625 -6.359375 6.578125 C-4.29407328 4.32133835 -2.18264936 2.14260074 0 0 Z " fill="#072052" transform="translate(349,356)"/>
<path d="M0 0 C0.33 0.66 0.66 1.32 1 2 C-0.1796875 4.4609375 -0.1796875 4.4609375 -1.875 7.375 C-4.116513 11.16129482 -4.116513 11.16129482 -5.56640625 15.2734375 C-6 17 -6 17 -8.0625 18.25 C-8.701875 18.4975 -9.34125 18.745 -10 19 C-8.62394084 14.23448987 -6.53221934 10.2751447 -3.875 6.125 C-3.50246094 5.53203125 -3.12992188 4.9390625 -2.74609375 4.328125 C-1.83635 2.8818657 -0.91896202 1.44041954 0 0 Z " fill="#08214D" transform="translate(588,908)"/>
<path d="M0 0 C0 4.02450677 -1.1034499 6.45977315 -3 10 C-6.1875 11.9375 -6.1875 11.9375 -9 13 C-7.50923566 9.7173068 -5.61379679 7.06922559 -3.375 4.25 C-2.74335938 3.45078125 -2.11171875 2.6515625 -1.4609375 1.828125 C-0.97882813 1.22484375 -0.49671875 0.6215625 0 0 Z " fill="#052755" transform="translate(478,764)"/>
<path d="M0 0 C0.66 0.33 1.32 0.66 2 1 C1.34 2.32 0.68 3.64 0 5 C0.78375 5.7425 1.5675 6.485 2.375 7.25 C4.56504531 9.54433318 5.82731386 11.12158858 7 14 C3.78956118 12.61811547 1.95063635 11.07578097 -0.25 8.375 C-0.77078125 7.74335937 -1.2915625 7.11171875 -1.828125 6.4609375 C-2.21484375 5.97882812 -2.6015625 5.49671875 -3 5 C-1.125 1.125 -1.125 1.125 0 0 Z " fill="#07376C" transform="translate(751,747)"/>
<path d="M0 0 C0.33 0 0.66 0 1 0 C1.98248524 4.0527516 2.08159574 7.83861737 2 12 C1.34 11.34 0.68 10.68 0 10 C-0.99 10.495 -0.99 10.495 -2 11 C-2.28571429 3.57142857 -2.28571429 3.57142857 0 0 Z " fill="#0D3966" transform="translate(370,725)"/>
<path d="M0 0 C0 0.33 0 0.66 0 1 C-1.65 1.33 -3.3 1.66 -5 2 C-5 2.33 -5 2.66 -5 3 C-9.95 2.67 -14.9 2.34 -20 2 C-20 1.67 -20 1.34 -20 1 C-13.30386804 0.202163 -6.74233419 -0.12910853 0 0 Z " fill="#0B558A" transform="translate(662,1014)"/>
<path d="M0 0 C3.21043882 1.38188453 5.04936365 2.92421903 7.25 5.625 C8.03117188 6.57246094 8.03117188 6.57246094 8.828125 7.5390625 C9.40820312 8.26222656 9.40820312 8.26222656 10 9 C7 9 7 9 5.17578125 7.5390625 C4.56089844 6.90742187 3.94601562 6.27578125 3.3125 5.625 C2.68988281 4.99851562 2.06726563 4.37203125 1.42578125 3.7265625 C0 2 0 2 0 0 Z " fill="#31AEEA" transform="translate(758,759)"/>
<path d="M0 0 C4.50884026 2.31883213 6.93906776 5.06451569 10 9 C7 9 7 9 4.3125 6.625 C2 4 2 4 2 2 C1.34 2 0.68 2 0 2 C0 1.34 0 0.68 0 0 Z " fill="#30B2EC" transform="translate(410,966)"/>
<path d="M0 0 C-2.44579177 2.30925485 -3.59442134 2.99001814 -7.015625 3.07421875 C-8.08296875 2.94660156 -9.1503125 2.81898438 -10.25 2.6875 C-11.32765625 2.56761719 -12.4053125 2.44773437 -13.515625 2.32421875 C-14.33546875 2.21722656 -15.1553125 2.11023438 -16 2 C-16 1.67 -16 1.34 -16 1 C-10.61509359 0.08342019 -5.45769811 -0.11138159 0 0 Z " fill="#0C5689" transform="translate(731,1007)"/>
<path d="M0 0 C2 1 2 1 2.88671875 2.9609375 C3.15097656 3.75757813 3.41523438 4.55421875 3.6875 5.375 C3.95949219 6.16648437 4.23148437 6.95796875 4.51171875 7.7734375 C5 10 5 10 4 13 C3.67 11.35 3.34 9.7 3 8 C2.01 7.67 1.02 7.34 0 7 C0 4.69 0 2.38 0 0 Z " fill="#092452" transform="translate(333,542)"/>
<path d="M0 0 C3.3 0.66 6.6 1.32 10 2 C10 2.33 10 2.66 10 3 C6.04 3 2.08 3 -2 3 C-1.34 2.01 -0.68 1.02 0 0 Z " fill="#32BFF6" transform="translate(560,1020)"/>
<path d="M0 0 C-0.99 0.33 -1.98 0.66 -3 1 C-3 1.66 -3 2.32 -3 3 C-9.93 2.505 -9.93 2.505 -17 2 C-17 1.67 -17 1.34 -17 1 C-11.30494264 0.3583034 -5.73266804 -0.12462322 0 0 Z " fill="#031541" transform="translate(535,691)"/>
<path d="M0 0 C0.8353125 0.556875 0.8353125 0.556875 1.6875 1.125 C0.4809375 1.5890625 0.4809375 1.5890625 -0.75 2.0625 C-3.20330405 2.88835345 -3.20330405 2.88835345 -4.3125 4.125 C-6.31208364 4.16580783 -8.31295254 4.16754356 -10.3125 4.125 C-9.3225 3.795 -8.3325 3.465 -7.3125 3.125 C-7.3125 2.465 -7.3125 1.805 -7.3125 1.125 C-2.88173077 -1.09038462 -2.88173077 -1.09038462 0 0 Z " fill="#0C5586" transform="translate(637.3125,3.875)"/>
<path d="M0 0 C0.33 0 0.66 0 1 0 C0.50769231 7.38461538 0.50769231 7.38461538 -2.0625 10.5 C-2.701875 10.995 -3.34125 11.49 -4 12 C-4 10.02 -4 8.04 -4 6 C-3.01 6 -2.02 6 -1 6 C-0.67 4.02 -0.34 2.04 0 0 Z " fill="#062250" transform="translate(625,410)"/>
<path d="M0 0 C1.23593891 3.70781672 0.5678132 4.67510253 -0.9375 8.1875 C-1.31777344 9.08855469 -1.69804687 9.98960937 -2.08984375 10.91796875 C-2.54037109 11.94857422 -2.54037109 11.94857422 -3 13 C-3.66 13 -4.32 13 -5 13 C-4.54554036 11.58208592 -4.08625056 10.16571954 -3.625 8.75 C-3.24214844 7.56664062 -3.24214844 7.56664062 -2.8515625 6.359375 C-2.04826333 4.13372042 -1.10288338 2.09068328 0 0 Z " fill="#39CAF8" transform="translate(297,217)"/>
<path d="M0 0 C0.99 0.33 1.98 0.66 3 1 C2.67 3.97 2.34 6.94 2 10 C0 8 0 8 -0.1953125 6.0546875 C-0.13020833 4.03645833 -0.06510417 2.01822917 0 0 Z " fill="#10406E" transform="translate(659,693)"/>
<path d="M0 0 C3.36720387 1.39332574 4.9859524 2.9789286 7 6 C4 6 4 6 1.8125 4.125 C0 2 0 2 0 0 Z " fill="#30B3EE" transform="translate(235,793)"/>
<path d="M0 0 C0.6875 1.8125 0.6875 1.8125 1 4 C-0.84159673 6.48615558 -2.00470711 7.00156904 -5 8 C-3.62845496 5.04590299 -2.01136276 2.55991624 0 0 Z " fill="#052654" transform="translate(487,752)"/>
<path d="M0 0 C0.33 1.32 0.66 2.64 1 4 C0.34 4 -0.32 4 -1 4 C-1.66 5.65 -2.32 7.3 -3 9 C-3.33 8.01 -3.66 7.02 -4 6 C-2.0625 2.8125 -2.0625 2.8125 0 0 Z " fill="#0B2552" transform="translate(602,882)"/>
<path d="M0 0 C0.66 0.33 1.32 0.66 2 1 C0.95125002 3.62187494 0.35068687 4.79371361 -2.125 6.25 C-2.74375 6.4975 -3.3625 6.745 -4 7 C-2.92598892 4.08482708 -2.22189824 2.22189824 0 0 Z " fill="#062857" transform="translate(655,609)"/>
<path d="M0 0 C0 2.83967231 -0.40267181 5.23735711 -1 8 C-1.99 7.01 -2.98 6.02 -4 5 C-2.68 3.35 -1.36 1.7 0 0 Z " fill="#092F60" transform="translate(335,372)"/>
<path d="M0 0 C1.98 0 3.96 0 6 0 C5.67 0.66 5.34 1.32 5 2 C3.35 1.67 1.7 1.34 0 1 C0 0.67 0 0.34 0 0 Z " fill="#075081" transform="translate(168,998)"/>
<path d="M0 0 C1.98 0 3.96 0 6 0 C6 0.33 6 0.66 6 1 C4.02 1 2.04 1 0 1 C0 0.67 0 0.34 0 0 Z " fill="#085284" transform="translate(329,1015)"/>
<path d="M0 0 C1.65 0 3.3 0 5 0 C5 0.33 5 0.66 5 1 C3.35 1 1.7 1 0 1 C0 0.67 0 0.34 0 0 Z " fill="#1F79B9" transform="translate(427,1023)"/>
<path d="M0 0 C4 1 4 1 4 1 Z " fill="#085282" transform="translate(758,1007)"/>
<path d="M0 0 C4 1 4 1 4 1 Z " fill="#095281" transform="translate(753,1007)"/>
<path d="M0 0 C4 1 4 1 4 1 Z " fill="#084F80" transform="translate(248,1007)"/>
<path d="M0 0 C4 1 4 1 4 1 Z " fill="#095180" transform="translate(900,991)"/>
<path d="M0 0 C1 4 1 4 1 4 Z " fill="#074D7C" transform="translate(234,426)"/>
<path d="M0 0 C1 4 1 4 1 4 Z " fill="#054D7C" transform="translate(233,422)"/>
<path d="M0 0 C0.66 0 1.32 0 2 0 C1.67 0.66 1.34 1.32 1 2 C0.67 1.34 0.34 0.68 0 0 Z " fill="#1368A4" transform="translate(420,1022)"/>
<path d="M0 0 C3 1 3 1 3 1 Z " fill="#095181" transform="translate(288,1011)"/>
<path d="M0 0 C3 1 3 1 3 1 Z " fill="#085083" transform="translate(232,1005)"/>
<path d="M0 0 C3 1 3 1 3 1 Z " fill="#095080" transform="translate(829,999)"/>
<path d="M0 0 C3 1 3 1 3 1 Z " fill="#085182" transform="translate(161,997)"/>
<path d="M0 0 C3 1 3 1 3 1 Z " fill="#085180" transform="translate(145,995)"/>
<path d="M0 0 C0.66 0.66 1.32 1.32 2 2 C1.34 2 0.68 2 0 2 C0 1.34 0 0.68 0 0 Z " fill="#084F80" transform="translate(259,476)"/>
<path d="" fill="#074C7D" transform="translate(0,0)"/>
<path d="M0 0 C3 1 3 1 3 1 Z " fill="#095486" transform="translate(256,334)"/>
<path d="M0 0 C3 1 3 1 3 1 Z " fill="#0B5181" transform="translate(804,327)"/>
<path d="M0 0 C3 1 3 1 3 1 Z " fill="#084F81" transform="translate(212,327)"/>
<path d="M0 0 C0.66 0.66 1.32 1.32 2 2 C1.34 2 0.68 2 0 2 C0 1.34 0 0.68 0 0 Z " fill="#084E80" transform="translate(176,318)"/>
<path d="M0 0 C3 1 3 1 3 1 Z " fill="#064F7F" transform="translate(240,232)"/>
<path d="M0 0 C3 1 3 1 3 1 Z " fill="#0A5283" transform="translate(536,35)"/>
<path d="M0 0 C3 1 3 1 3 1 Z " fill="#095181" transform="translate(639,0)"/>
<path d="M0 0 C2 1 2 1 2 1 Z " fill="#1269A8" transform="translate(600,1023)"/>
<path d="M0 0 C2 1 2 1 2 1 Z " fill="#1F78B2" transform="translate(433,1023)"/>
<path d="M0 0 C2 1 2 1 2 1 Z " fill="#136AA4" transform="translate(417,1023)"/>
<path d="M0 0 C2 1 2 1 2 1 Z " fill="#0D5E92" transform="translate(403,1021)"/>
<path d="M0 0 C2 1 2 1 2 1 Z " fill="#0C5A8C" transform="translate(627,1020)"/>
<path d="M0 0 C2 1 2 1 2 1 Z " fill="#0A5688" transform="translate(641,1019)"/>
<path d="M0 0 C2 1 2 1 2 1 Z " fill="#065287" transform="translate(680,1015)"/>
<path d="M0 0 C2 1 2 1 2 1 Z " fill="#095385" transform="translate(691,1014)"/>
<path d="M0 0 C2 1 2 1 2 1 Z " fill="#085183" transform="translate(300,1012)"/>
<path d="M0 0 C2 1 2 1 2 1 Z " fill="#0B5083" transform="translate(279,1010)"/>
<path d="M0 0 C2 1 2 1 2 1 Z " fill="#075082" transform="translate(222,1004)"/>
<path d="M0 0 C2 1 2 1 2 1 Z " fill="#095082" transform="translate(216,1003)"/>
<path d="M0 0 C2 1 2 1 2 1 Z " fill="#085180" transform="translate(913,990)"/>
<path d="M0 0 C2 1 2 1 2 1 Z " fill="#094F81" transform="translate(917,989)"/>
<path d="M0 0 C2 1 2 1 2 1 Z " fill="#085081" transform="translate(926,988)"/>
<path d="" fill="#084D7A" transform="translate(0,0)"/>
<path d="" fill="#094D7D" transform="translate(0,0)"/>
<path d="" fill="#084D7C" transform="translate(0,0)"/>
<path d="" fill="#094F7D" transform="translate(0,0)"/>
<path d="M0 0 C2 1 2 1 2 1 Z " fill="#084A77" transform="translate(80,831)"/>
<path d="" fill="#064C79" transform="translate(0,0)"/>
<path d="M0 0 C2 1 2 1 2 1 Z " fill="#064B79" transform="translate(934,804)"/>
<path d="" fill="#064D7B" transform="translate(0,0)"/>
<path d="M0 0 C2 1 2 1 2 1 Z " fill="#084D7F" transform="translate(121,760)"/>
<path d="" fill="#084D7A" transform="translate(0,0)"/>
<path d="M0 0 C2 1 2 1 2 1 Z " fill="#0A5382" transform="translate(145,744)"/>
<path d="M0 0 C2 1 2 1 2 1 Z " fill="#0A5383" transform="translate(193,720)"/>
<path d="" fill="#074F7F" transform="translate(0,0)"/>
<path d="M0 0 C2 1 2 1 2 1 Z " fill="#074D7C" transform="translate(145,677)"/>
<path d="M0 0 C2 1 2 1 2 1 Z " fill="#074A77" transform="translate(865,621)"/>
<path d="M0 0 C2 1 2 1 2 1 Z " fill="#054B79" transform="translate(231,545)"/>
<path d="M0 0 C2 1 2 1 2 1 Z " fill="#094F7F" transform="translate(252,528)"/>
<path d="" fill="#095080" transform="translate(0,0)"/>
<path d="M0 0 C2 1 2 1 2 1 Z " fill="#0B4F7E" transform="translate(760,479)"/>
<path d="" fill="#074D7D" transform="translate(0,0)"/>
<path d="" fill="#064D7B" transform="translate(0,0)"/>
<path d="" fill="#084B7E" transform="translate(0,0)"/>
<path d="" fill="#064C7C" transform="translate(0,0)"/>
<path d="" fill="#094F81" transform="translate(0,0)"/>
<path d="M0 0 C2 1 2 1 2 1 Z " fill="#0B5080" transform="translate(243,352)"/>
<path d="M0 0 C2 1 2 1 2 1 Z " fill="#064F80" transform="translate(210,326)"/>
<path d="M0 0 C2 1 2 1 2 1 Z " fill="#095182" transform="translate(814,325)"/>
<path d="M0 0 C2 1 2 1 2 1 Z " fill="#094D7E" transform="translate(843,319)"/>
<path d="M0 0 C2 1 2 1 2 1 Z " fill="#064D7D" transform="translate(860,314)"/>
<path d="M0 0 C2 1 2 1 2 1 Z " fill="#054B79" transform="translate(878,308)"/>
<path d="M0 0 C2 1 2 1 2 1 Z " fill="#074A75" transform="translate(875,260)"/>
<path d="" fill="#084E7D" transform="translate(0,0)"/>
<path d="M0 0 C2 1 2 1 2 1 Z " fill="#074879" transform="translate(280,151)"/>
<path d="" fill="#074B7C" transform="translate(0,0)"/>
<path d="M0 0 C2 1 2 1 2 1 Z " fill="#085081" transform="translate(484,35)"/>
<path d="M0 0 C2 1 2 1 2 1 Z " fill="#075182" transform="translate(476,33)"/>
<path d="M0 0 C2 1 2 1 2 1 Z " fill="#0A517F" transform="translate(616,8)"/>
<path d="M0 0 C2 1 2 1 2 1 Z " fill="#085082" transform="translate(667,0)"/>
<path d="M0 0 C2 1 2 1 2 1 Z " fill="#0B5180" transform="translate(353,0)"/>
<path d="" fill="#166BA5" transform="translate(0,0)"/>
<path d="" fill="#1770AA" transform="translate(0,0)"/>
<path d="" fill="#2076B3" transform="translate(0,0)"/>
<path d="" fill="#1F7DBD" transform="translate(0,0)"/>
<path d="" fill="#0D5D93" transform="translate(0,0)"/>
<path d="" fill="#1268A1" transform="translate(0,0)"/>
<path d="" fill="#0F629A" transform="translate(0,0)"/>
<path d="" fill="#106399" transform="translate(0,0)"/>
<path d="" fill="#0C5A8C" transform="translate(0,0)"/>
<path d="" fill="#09578B" transform="translate(0,0)"/>
<path d="" fill="#0A5489" transform="translate(0,0)"/>
<path d="" fill="#0A5686" transform="translate(0,0)"/>
<path d="" fill="#0B5183" transform="translate(0,0)"/>
<path d="" fill="#0A5487" transform="translate(0,0)"/>
<path d="" fill="#085185" transform="translate(0,0)"/>
<path d="" fill="#095182" transform="translate(0,0)"/>
<path d="" fill="#084F86" transform="translate(0,0)"/>
<path d="" fill="#0A5385" transform="translate(0,0)"/>
<path d="" fill="#095385" transform="translate(0,0)"/>
<path d="" fill="#085482" transform="translate(0,0)"/>
<path d="" fill="#0B5684" transform="translate(0,0)"/>
<path d="" fill="#085383" transform="translate(0,0)"/>
<path d="" fill="#075485" transform="translate(0,0)"/>
<path d="" fill="#085084" transform="translate(0,0)"/>
<path d="" fill="#075282" transform="translate(0,0)"/>
<path d="" fill="#075185" transform="translate(0,0)"/>
<path d="" fill="#095282" transform="translate(0,0)"/>
<path d="" fill="#085082" transform="translate(0,0)"/>
<path d="" fill="#095081" transform="translate(0,0)"/>
<path d="" fill="#055082" transform="translate(0,0)"/>
<path d="" fill="#085284" transform="translate(0,0)"/>
<path d="" fill="#085082" transform="translate(0,0)"/>
<path d="" fill="#094F84" transform="translate(0,0)"/>
<path d="" fill="#085285" transform="translate(0,0)"/>
<path d="" fill="#095180" transform="translate(0,0)"/>
<path d="" fill="#094E83" transform="translate(0,0)"/>
<path d="" fill="#0B5484" transform="translate(0,0)"/>
<path d="" fill="#0B5282" transform="translate(0,0)"/>
<path d="" fill="#0B5081" transform="translate(0,0)"/>
<path d="" fill="#085282" transform="translate(0,0)"/>
<path d="" fill="#075183" transform="translate(0,0)"/>
<path d="" fill="#0B4D80" transform="translate(0,0)"/>
<path d="" fill="#0A4D80" transform="translate(0,0)"/>
<path d="" fill="#09507F" transform="translate(0,0)"/>
<path d="" fill="#084F81" transform="translate(0,0)"/>
<path d="" fill="#085284" transform="translate(0,0)"/>
<path d="" fill="#0A5484" transform="translate(0,0)"/>
<path d="" fill="#095283" transform="translate(0,0)"/>
<path d="" fill="#084F82" transform="translate(0,0)"/>
<path d="" fill="#08507F" transform="translate(0,0)"/>
<path d="" fill="#085285" transform="translate(0,0)"/>
<path d="" fill="#095082" transform="translate(0,0)"/>
<path d="" fill="#09507F" transform="translate(0,0)"/>
<path d="" fill="#0C5383" transform="translate(0,0)"/>
<path d="" fill="#095182" transform="translate(0,0)"/>
<path d="" fill="#0B5180" transform="translate(0,0)"/>
<path d="" fill="#0A5180" transform="translate(0,0)"/>
<path d="" fill="#0A5080" transform="translate(0,0)"/>
<path d="" fill="#074D7F" transform="translate(0,0)"/>
<path d="" fill="#064F83" transform="translate(0,0)"/>
<path d="" fill="#075280" transform="translate(0,0)"/>
<path d="" fill="#0B507F" transform="translate(0,0)"/>
<path d="" fill="#08507F" transform="translate(0,0)"/>
<path d="" fill="#09507F" transform="translate(0,0)"/>
<path d="" fill="#084C7A" transform="translate(0,0)"/>
<path d="" fill="#094E7E" transform="translate(0,0)"/>
<path d="" fill="#0B5080" transform="translate(0,0)"/>
<path d="" fill="#084C7E" transform="translate(0,0)"/>
<path d="" fill="#094B78" transform="translate(0,0)"/>
<path d="" fill="#064E80" transform="translate(0,0)"/>
<path d="" fill="#074978" transform="translate(0,0)"/>
<path d="" fill="#084B7A" transform="translate(0,0)"/>
<path d="" fill="#074A78" transform="translate(0,0)"/>
<path d="" fill="#084C7A" transform="translate(0,0)"/>
<path d="" fill="#074B7A" transform="translate(0,0)"/>
<path d="" fill="#084B7A" transform="translate(0,0)"/>
<path d="" fill="#0A4A76" transform="translate(0,0)"/>
<path d="" fill="#094D7A" transform="translate(0,0)"/>
<path d="" fill="#0A4F7E" transform="translate(0,0)"/>
<path d="" fill="#064D7F" transform="translate(0,0)"/>
<path d="" fill="#064F7D" transform="translate(0,0)"/>
<path d="" fill="#084C7E" transform="translate(0,0)"/>
<path d="" fill="#084E7C" transform="translate(0,0)"/>
<path d="" fill="#094D7A" transform="translate(0,0)"/>
<path d="" fill="#084A7A" transform="translate(0,0)"/>
<path d="" fill="#084F7B" transform="translate(0,0)"/>
<path d="" fill="#094D7B" transform="translate(0,0)"/>
<path d="" fill="#074C7B" transform="translate(0,0)"/>
<path d="" fill="#0A4F7B" transform="translate(0,0)"/>
<path d="" fill="#084C7E" transform="translate(0,0)"/>
<path d="" fill="#084B7D" transform="translate(0,0)"/>
<path d="" fill="#08497B" transform="translate(0,0)"/>
<path d="" fill="#0B4C7C" transform="translate(0,0)"/>
<path d="" fill="#09507E" transform="translate(0,0)"/>
<path d="" fill="#094D7A" transform="translate(0,0)"/>
<path d="" fill="#084F80" transform="translate(0,0)"/>
<path d="" fill="#012F51" transform="translate(0,0)"/>
<path d="" fill="#074C7D" transform="translate(0,0)"/>
<path d="" fill="#084C7A" transform="translate(0,0)"/>
<path d="" fill="#094C7E" transform="translate(0,0)"/>
<path d="" fill="#0A4A7C" transform="translate(0,0)"/>
<path d="" fill="#074977" transform="translate(0,0)"/>
<path d="" fill="#074B7A" transform="translate(0,0)"/>
<path d="" fill="#08497B" transform="translate(0,0)"/>
<path d="" fill="#084976" transform="translate(0,0)"/>
<path d="" fill="#074A7C" transform="translate(0,0)"/>
<path d="" fill="#094979" transform="translate(0,0)"/>
<path d="" fill="#094F7D" transform="translate(0,0)"/>
<path d="" fill="#084C78" transform="translate(0,0)"/>
<path d="" fill="#074C7B" transform="translate(0,0)"/>
<path d="" fill="#084A78" transform="translate(0,0)"/>
<path d="" fill="#084F7C" transform="translate(0,0)"/>
<path d="" fill="#07487A" transform="translate(0,0)"/>
<path d="" fill="#084E7B" transform="translate(0,0)"/>
<path d="" fill="#094B7A" transform="translate(0,0)"/>
<path d="" fill="#094D7A" transform="translate(0,0)"/>
<path d="" fill="#064C7A" transform="translate(0,0)"/>
<path d="" fill="#084E7F" transform="translate(0,0)"/>
<path d="" fill="#064E7E" transform="translate(0,0)"/>
<path d="" fill="#095183" transform="translate(0,0)"/>
<path d="" fill="#085081" transform="translate(0,0)"/>
<path d="" fill="#085181" transform="translate(0,0)"/>
<path d="" fill="#084874" transform="translate(0,0)"/>
<path d="" fill="#094E82" transform="translate(0,0)"/>
<path d="" fill="#08507F" transform="translate(0,0)"/>
<path d="" fill="#0B4E82" transform="translate(0,0)"/>
<path d="" fill="#095280" transform="translate(0,0)"/>
<path d="" fill="#0B5280" transform="translate(0,0)"/>
<path d="" fill="#0A5183" transform="translate(0,0)"/>
<path d="" fill="#0B5083" transform="translate(0,0)"/>
<path d="" fill="#0A5381" transform="translate(0,0)"/>
<path d="" fill="#095789" transform="translate(0,0)"/>
<path d="" fill="#0B5584" transform="translate(0,0)"/>
<path d="" fill="#085388" transform="translate(0,0)"/>
<path d="" fill="#095787" transform="translate(0,0)"/>
<path d="" fill="#0C558B" transform="translate(0,0)"/>
<path d="" fill="#095787" transform="translate(0,0)"/>
<path d="" fill="#0A5686" transform="translate(0,0)"/>
<path d="" fill="#0D5186" transform="translate(0,0)"/>
<path d="" fill="#0C5184" transform="translate(0,0)"/>
<path d="" fill="#094F7E" transform="translate(0,0)"/>
<path d="" fill="#084D81" transform="translate(0,0)"/>
<path d="" fill="#0B5382" transform="translate(0,0)"/>
<path d="" fill="#07507F" transform="translate(0,0)"/>
<path d="" fill="#074E7C" transform="translate(0,0)"/>
<path d="" fill="#084B78" transform="translate(0,0)"/>
<path d="" fill="#044A7A" transform="translate(0,0)"/>
<path d="" fill="#064A77" transform="translate(0,0)"/>
<path d="" fill="#074977" transform="translate(0,0)"/>
<path d="" fill="#064976" transform="translate(0,0)"/>
<path d="" fill="#094973" transform="translate(0,0)"/>
<path d="" fill="#044674" transform="translate(0,0)"/>
<path d="" fill="#084A75" transform="translate(0,0)"/>
<path d="" fill="#074873" transform="translate(0,0)"/>
<path d="" fill="#064C79" transform="translate(0,0)"/>
<path d="" fill="#054C75" transform="translate(0,0)"/>
<path d="" fill="#084977" transform="translate(0,0)"/>
<path d="" fill="#054978" transform="translate(0,0)"/>
<path d="" fill="#064878" transform="translate(0,0)"/>
<path d="" fill="#084A77" transform="translate(0,0)"/>
<path d="" fill="#074A7B" transform="translate(0,0)"/>
<path d="" fill="#074975" transform="translate(0,0)"/>
<path d="" fill="#054B76" transform="translate(0,0)"/>
<path d="" fill="#074875" transform="translate(0,0)"/>
<path d="" fill="#084A76" transform="translate(0,0)"/>
<path d="" fill="#064A75" transform="translate(0,0)"/>
<path d="" fill="#074877" transform="translate(0,0)"/>
<path d="" fill="#064879" transform="translate(0,0)"/>
<path d="" fill="#044978" transform="translate(0,0)"/>
<path d="" fill="#05487A" transform="translate(0,0)"/>
<path d="" fill="#074877" transform="translate(0,0)"/>
<path d="" fill="#064B78" transform="translate(0,0)"/>
<path d="" fill="#044A7A" transform="translate(0,0)"/>
<path d="" fill="#074B76" transform="translate(0,0)"/>
<path d="" fill="#064B7B" transform="translate(0,0)"/>
<path d="" fill="#084A79" transform="translate(0,0)"/>
<path d="" fill="#074A77" transform="translate(0,0)"/>
<path d="" fill="#044D7B" transform="translate(0,0)"/>
<path d="" fill="#07497B" transform="translate(0,0)"/>
<path d="" fill="#074E7B" transform="translate(0,0)"/>
<path d="" fill="#094F7B" transform="translate(0,0)"/>
<path d="" fill="#094C79" transform="translate(0,0)"/>
<path d="" fill="#054C7A" transform="translate(0,0)"/>
<path d="" fill="#054B7A" transform="translate(0,0)"/>
<path d="" fill="#084B79" transform="translate(0,0)"/>
<path d="" fill="#084F80" transform="translate(0,0)"/>
<path d="" fill="#074F81" transform="translate(0,0)"/>
<path d="" fill="#085181" transform="translate(0,0)"/>
<path d="" fill="#095383" transform="translate(0,0)"/>
<path d="" fill="#0A4D7E" transform="translate(0,0)"/>
<path d="" fill="#084D7C" transform="translate(0,0)"/>
<path d="" fill="#0A5183" transform="translate(0,0)"/>
<path d="" fill="#085284" transform="translate(0,0)"/>
<path d="" fill="#000002" transform="translate(0,0)"/>
<path d="" fill="#074F7F" transform="translate(0,0)"/>
<path d="" fill="#095084" transform="translate(0,0)"/>
<path d="" fill="#084E7F" transform="translate(0,0)"/>
<path d="" fill="#0A5481" transform="translate(0,0)"/>
<path d="" fill="#0B5284" transform="translate(0,0)"/>
<path d="" fill="#0B5288" transform="translate(0,0)"/>
<path d="" fill="#095185" transform="translate(0,0)"/>
<path d="" fill="#095587" transform="translate(0,0)"/>
<path d="" fill="#085387" transform="translate(0,0)"/>
<path d="" fill="#0E5785" transform="translate(0,0)"/>
<path d="" fill="#0C5686" transform="translate(0,0)"/>
<path d="" fill="#0B5385" transform="translate(0,0)"/>
<path d="" fill="#0B5285" transform="translate(0,0)"/>
<path d="" fill="#075181" transform="translate(0,0)"/>
<path d="" fill="#095280" transform="translate(0,0)"/>
<path d="" fill="#08507F" transform="translate(0,0)"/>
<path d="" fill="#074F7E" transform="translate(0,0)"/>
<path d="" fill="#095080" transform="translate(0,0)"/>
<path d="" fill="#0A4E7D" transform="translate(0,0)"/>
<path d="" fill="#084C7D" transform="translate(0,0)"/>
<path d="" fill="#0A4F7F" transform="translate(0,0)"/>
<path d="" fill="#08507C" transform="translate(0,0)"/>
<path d="" fill="#0A5080" transform="translate(0,0)"/>
<path d="" fill="#074D7D" transform="translate(0,0)"/>
<path d="" fill="#084D7A" transform="translate(0,0)"/>
<path d="" fill="#094C7C" transform="translate(0,0)"/>
<path d="" fill="#084E7B" transform="translate(0,0)"/>
<path d="" fill="#0B4E7C" transform="translate(0,0)"/>
<path d="" fill="#064B77" transform="translate(0,0)"/>
<path d="" fill="#084C7A" transform="translate(0,0)"/>
<path d="" fill="#02314F" transform="translate(0,0)"/>
<path d="" fill="#09507E" transform="translate(0,0)"/>
<path d="" fill="#094C7C" transform="translate(0,0)"/>
<path d="" fill="#09507F" transform="translate(0,0)"/>
<path d="" fill="#0C5080" transform="translate(0,0)"/>
<path d="" fill="#095181" transform="translate(0,0)"/>
<path d="" fill="#074F81" transform="translate(0,0)"/>
<path d="" fill="#095182" transform="translate(0,0)"/>
<path d="" fill="#01304B" transform="translate(0,0)"/>
<path d="" fill="#0A5485" transform="translate(0,0)"/>
<path d="" fill="#0A5584" transform="translate(0,0)"/>
<path d="" fill="#0B5284" transform="translate(0,0)"/>
<path d="" fill="#075283" transform="translate(0,0)"/>
<path d="" fill="#0B5282" transform="translate(0,0)"/>
<path d="" fill="#0A5281" transform="translate(0,0)"/>
<path d="" fill="#0A5486" transform="translate(0,0)"/>
<path d="" fill="#085384" transform="translate(0,0)"/>
<path d="" fill="#094F83" transform="translate(0,0)"/>
<path d="" fill="#0A507C" transform="translate(0,0)"/>
<path d="" fill="#084F80" transform="translate(0,0)"/>
<path d="" fill="#084F7F" transform="translate(0,0)"/>
<path d="" fill="#094F7E" transform="translate(0,0)"/>
<path d="" fill="#095380" transform="translate(0,0)"/>
<path d="" fill="#085083" transform="translate(0,0)"/>
<path d="" fill="#074F80" transform="translate(0,0)"/>
<path d="" fill="#094F7E" transform="translate(0,0)"/>
<path d="" fill="#0A5280" transform="translate(0,0)"/>
<path d="" fill="#094F7F" transform="translate(0,0)"/>
<path d="" fill="#064C7C" transform="translate(0,0)"/>
<path d="" fill="#0A4E7B" transform="translate(0,0)"/>
<path d="" fill="#054A7D" transform="translate(0,0)"/>
<path d="" fill="#084C7F" transform="translate(0,0)"/>
<path d="" fill="#0A4E7F" transform="translate(0,0)"/>
<path d="" fill="#074C7A" transform="translate(0,0)"/>
<path d="" fill="#094D7D" transform="translate(0,0)"/>
<path d="" fill="#064B79" transform="translate(0,0)"/>
<path d="" fill="#05487B" transform="translate(0,0)"/>
<path d="" fill="#044D7D" transform="translate(0,0)"/>
<path d="" fill="#074C7A" transform="translate(0,0)"/>
<path d="" fill="#064B77" transform="translate(0,0)"/>
<path d="" fill="#084877" transform="translate(0,0)"/>
<path d="" fill="#054979" transform="translate(0,0)"/>
<path d="" fill="#074975" transform="translate(0,0)"/>
<path d="" fill="#064874" transform="translate(0,0)"/>
<path d="" fill="#06466D" transform="translate(0,0)"/>
<path d="" fill="#06436F" transform="translate(0,0)"/>
<path d="" fill="#044775" transform="translate(0,0)"/>
<path d="" fill="#074B79" transform="translate(0,0)"/>
<path d="" fill="#054878" transform="translate(0,0)"/>
<path d="" fill="#044672" transform="translate(0,0)"/>
<path d="" fill="#094777" transform="translate(0,0)"/>
<path d="" fill="#064978" transform="translate(0,0)"/>
<path d="" fill="#054470" transform="translate(0,0)"/>
<path d="" fill="#06456E" transform="translate(0,0)"/>
<path d="" fill="#074D7B" transform="translate(0,0)"/>
<path d="" fill="#064A7A" transform="translate(0,0)"/>
<path d="" fill="#094C7C" transform="translate(0,0)"/>
<path d="" fill="#054C79" transform="translate(0,0)"/>
<path d="" fill="#054878" transform="translate(0,0)"/>
<path d="" fill="#084D7A" transform="translate(0,0)"/>
<path d="" fill="#06507F" transform="translate(0,0)"/>
<path d="" fill="#064C7A" transform="translate(0,0)"/>
<path d="" fill="#094E7D" transform="translate(0,0)"/>
<path d="" fill="#0A4E7E" transform="translate(0,0)"/>
<path d="" fill="#0A4D7B" transform="translate(0,0)"/>
<path d="" fill="#06517F" transform="translate(0,0)"/>
<path d="" fill="#085381" transform="translate(0,0)"/>
<path d="" fill="#095180" transform="translate(0,0)"/>
<path d="" fill="#094E81" transform="translate(0,0)"/>
<path d="" fill="#084F7E" transform="translate(0,0)"/>
<path d="" fill="#084F7B" transform="translate(0,0)"/>
<path d="" fill="#095080" transform="translate(0,0)"/>
<path d="" fill="#06507C" transform="translate(0,0)"/>
<path d="" fill="#0A4D7C" transform="translate(0,0)"/>
<path d="" fill="#084A7F" transform="translate(0,0)"/>
<path d="" fill="#0A4E7D" transform="translate(0,0)"/>
<path d="" fill="#084B7C" transform="translate(0,0)"/>
<path d="" fill="#0A4C7A" transform="translate(0,0)"/>
<path d="" fill="#0A4E7C" transform="translate(0,0)"/>
<path d="" fill="#074F80" transform="translate(0,0)"/>
<path d="" fill="#034B79" transform="translate(0,0)"/>
<path d="" fill="#074B78" transform="translate(0,0)"/>
<path d="" fill="#074D7D" transform="translate(0,0)"/>
<path d="" fill="#000100" transform="translate(0,0)"/>
<path d="" fill="#08487A" transform="translate(0,0)"/>
<path d="" fill="#074B7A" transform="translate(0,0)"/>
<path d="" fill="#084D78" transform="translate(0,0)"/>
<path d="" fill="#054B79" transform="translate(0,0)"/>
<path d="" fill="#044876" transform="translate(0,0)"/>
<path d="" fill="#000001" transform="translate(0,0)"/>
<path d="" fill="#084C77" transform="translate(0,0)"/>
<path d="" fill="#054A76" transform="translate(0,0)"/>
<path d="" fill="#0A4B77" transform="translate(0,0)"/>
<path d="" fill="#074D7C" transform="translate(0,0)"/>
<path d="" fill="#084D7C" transform="translate(0,0)"/>
<path d="" fill="#064975" transform="translate(0,0)"/>
<path d="" fill="#000107" transform="translate(0,0)"/>
<path d="" fill="#074D7D" transform="translate(0,0)"/>
<path d="" fill="#08507E" transform="translate(0,0)"/>
<path d="" fill="#000000" transform="translate(0,0)"/>
<path d="" fill="#000000" transform="translate(0,0)"/>
<path d="" fill="#094C7C" transform="translate(0,0)"/>
<path d="" fill="#09507E" transform="translate(0,0)"/>
<path d="" fill="#064975" transform="translate(0,0)"/>
<path d="" fill="#084978" transform="translate(0,0)"/>
<path d="" fill="#0A4E7C" transform="translate(0,0)"/>
<path d="" fill="#095381" transform="translate(0,0)"/>
<path d="" fill="#084C7A" transform="translate(0,0)"/>
<path d="" fill="#085182" transform="translate(0,0)"/>
<path d="" fill="#084C7A" transform="translate(0,0)"/>
<path d="" fill="#0B5484" transform="translate(0,0)"/>
<path d="" fill="#075183" transform="translate(0,0)"/>
<path d="" fill="#085083" transform="translate(0,0)"/>
<path d="" fill="#085385" transform="translate(0,0)"/>
<path d="" fill="#0A5183" transform="translate(0,0)"/>
<path d="" fill="#0A5186" transform="translate(0,0)"/>
<path d="" fill="#095385" transform="translate(0,0)"/>
<path d="" fill="#095082" transform="translate(0,0)"/>
<path d="" fill="#094D78" transform="translate(0,0)"/>
<path d="" fill="#0C5383" transform="translate(0,0)"/>
<path d="" fill="#000000" transform="translate(0,0)"/>
<path d="" fill="#0B5482" transform="translate(0,0)"/>
<path d="" fill="#0D5485" transform="translate(0,0)"/>
<path d="" fill="#085285" transform="translate(0,0)"/>
<path d="" fill="#0A5382" transform="translate(0,0)"/>
<path d="" fill="#074E7F" transform="translate(0,0)"/>
<path d="" fill="#0A5282" transform="translate(0,0)"/>
<path d="" fill="#0B5586" transform="translate(0,0)"/>
<path d="" fill="#095684" transform="translate(0,0)"/>
<path d="" fill="#0A5383" transform="translate(0,0)"/>
<path d="" fill="#0B5480" transform="translate(0,0)"/>
<path d="" fill="#095482" transform="translate(0,0)"/>
<path d="" fill="#0B5582" transform="translate(0,0)"/>
<path d="" fill="#0C5584" transform="translate(0,0)"/>
<path d="" fill="#095082" transform="translate(0,0)"/>
</svg>
