<?xml version="1.0" encoding="UTF-8"?>
<svg version="1.1" xmlns="http://www.w3.org/2000/svg" width="320" height="320">
<path d="M0 0 C1.31194336 0.41862305 1.31194336 0.41862305 2.65039062 0.84570312 C41.19680173 13.35801162 72.34077942 38.1863951 91.27734375 74.296875 C97.0919817 85.75698022 101.08826546 97.49177565 104 110 C104.29148926 111.18916016 104.29148926 111.18916016 104.58886719 112.40234375 C106.38060007 120.69349982 106.37222465 129.00470748 106.37060547 137.44873047 C106.37494459 139.9678287 106.41127187 142.48512017 106.44921875 145.00390625 C106.66043379 175.53557129 95.68446783 206.57225632 76 230 C75.52916992 230.57331055 75.05833984 231.14662109 74.57324219 231.73730469 C68.83942573 238.71744267 63.13177742 245.40290886 56 251 C54.60587891 252.14855469 54.60587891 252.14855469 53.18359375 253.3203125 C45.01484113 259.94220531 36.35719662 265.22494744 27 270 C26.37818848 270.32097656 25.75637695 270.64195312 25.11572266 270.97265625 C9.35861724 278.940809 -9.49567306 284.05618068 -27.16015625 284.23828125 C-27.93901184 284.24793915 -28.71786743 284.25759705 -29.52032471 284.26754761 C-32.03443168 284.2923256 -34.54828416 284.30493562 -37.0625 284.3125 C-37.91637299 284.31545074 -38.77024597 284.31840149 -39.6499939 284.32144165 C-74.73088236 284.34908421 -106.2095874 272.77982155 -133 250 C-133.93972656 249.20207031 -134.87945312 248.40414062 -135.84765625 247.58203125 C-141.01152504 243.056831 -145.72276278 238.37079891 -150 233 C-150.82113281 231.97777344 -151.64226562 230.95554688 -152.48828125 229.90234375 C-162.77994988 216.70533614 -170.63300915 202.03918608 -176 186.1875 C-176.26651367 185.40165527 -176.53302734 184.61581055 -176.80761719 183.80615234 C-181.32645281 169.5101465 -182.55133528 155.63193357 -182.4375 140.75 C-182.43412628 139.89249146 -182.43075256 139.03498291 -182.42727661 138.15148926 C-182.35476168 125.42385757 -181.88999085 113.21859636 -178 101 C-177.6299585 99.82050781 -177.6299585 99.82050781 -177.25244141 98.6171875 C-165.10215018 61.02512626 -140.35067206 30.41146587 -105.28491211 11.88232422 C-95.84903029 7.06335549 -86.08658645 3.22257176 -76 0 C-75.31292969 -0.2273584 -74.62585938 -0.4547168 -73.91796875 -0.68896484 C-52.13315798 -7.56810048 -21.64082516 -7.15038658 0 0 Z " fill="#5C6BC0" transform="translate(198,20)"/>
<path d="M0 0 C12.14579943 -1.04705168 22.71314126 4.51360279 33.02587891 10.3203125 C38.95092605 13.64801245 41.52133463 14.35945669 48.125 12.625 C65.51232501 8.07623771 84.40847057 9.03090543 101.93359375 12.24609375 C102.96625366 12.43220215 102.96625366 12.43220215 104.01977539 12.62207031 C105.9042963 12.98173476 107.77706121 13.40145601 109.6484375 13.82421875 C113.98534669 14.05167902 115.65695774 12.83608776 119.1875 10.375 C127.40598705 4.87715705 136.62056949 -0.18093448 146.6875 -0.0625 C147.68136719 -0.05347656 148.67523438 -0.04445313 149.69921875 -0.03515625 C150.83810547 -0.01775391 150.83810547 -0.01775391 152 0 C156.36049074 10.99602014 157.66243779 22.22852193 154.5625 33.8125 C153.88614291 37.0298931 153.66122441 38.37855852 155.25 41.29296875 C156.4804775 42.79128725 157.74803574 44.25975712 159.046875 45.69921875 C168.78287951 57.16823207 168.94758105 73.72504598 168 88 C166.51104528 104.14561413 160.94427918 118.76720316 149 130 C148.47148437 130.55816406 147.94296875 131.11632812 147.3984375 131.69140625 C136.58766513 142.30813911 119.33362622 145.64340768 105 148 C105 151.24266664 107.05539783 153.5998058 108.7109375 156.3203125 C112.19225573 163.55723463 112.30388484 170.73416896 112.34375 178.61328125 C112.3583728 179.7046489 112.37299561 180.79601654 112.38806152 181.92045593 C112.4500689 186.5637987 112.49008623 191.20726707 112.53173828 195.85083008 C112.56539118 199.25095737 112.61049443 202.65079884 112.65625 206.05078125 C112.66416565 207.63044426 112.66416565 207.63044426 112.67224121 209.24201965 C112.68565552 210.21700912 112.69906982 211.1919986 112.71289062 212.1965332 C112.72382751 213.48271294 112.72382751 213.48271294 112.73498535 214.7948761 C112.86637324 217.28863579 112.86637324 217.28863579 115 220 C115.99 220.66 116.98 221.32 118 222 C104.54429493 227.76673075 90.79528791 228.53963636 76.375 228.4375 C75.54659607 228.43645264 74.71819214 228.43540527 73.86468506 228.43432617 C60.89294779 228.4005187 48.57973632 227.37873014 36 224 C36 222.68 36 221.36 36 220 C36.4844458 219.55938232 36.9688916 219.11876465 37.46801758 218.66479492 C39.82498548 216.10349386 39.43709752 213.78093377 39.51171875 210.36328125 C39.56489258 208.41518555 39.56489258 208.41518555 39.61914062 206.42773438 C39.6422405 205.05599483 39.6650229 203.6842499 39.6875 202.3125 C39.72067542 200.92900393 39.75516531 199.54553871 39.79101562 198.16210938 C39.87363241 194.77482117 39.94274058 191.38779643 40 188 C39.0915332 188.16081055 38.18306641 188.32162109 37.24707031 188.48730469 C24.0467107 190.57157199 11.09696182 189.67173969 0.02734375 181.71484375 C-5.14181313 177.34247406 -8.00502642 172.11791342 -10.875 166.0625 C-15.29213056 156.94066527 -21.67645339 150.64495847 -30 145 C-29.505 143.02 -29.505 143.02 -29 141 C-21.52722964 140.3172088 -16.16252559 140.43058612 -10.08984375 145.09765625 C-5.07498956 149.66257959 -0.881547 154.70493285 3 160.25 C6.59433119 165.18358883 11.25162581 168.08387527 17 170 C24.65950508 170.61465164 33.02882201 170.58698795 40 167 C41.68538352 163.76884604 41.68538352 163.76884604 42 160 C43.61593241 155.85478207 45.26987179 152.4906096 48 149 C47.14003418 148.81207886 47.14003418 148.81207886 46.26269531 148.62036133 C29.51590256 144.91732503 12.97469261 141.23518657 1 128 C0.44570312 127.43796875 -0.10859375 126.8759375 -0.6796875 126.296875 C-12.80271846 113.49745176 -16.17450549 95.12429283 -16.1875 78.0625 C-16.19974609 77.22009766 -16.21199219 76.37769531 -16.22460938 75.50976562 C-16.24472261 66.80073317 -14.63832323 59.56522408 -10.6875 51.8125 C-10.11386719 50.66394531 -9.54023437 49.51539063 -8.94921875 48.33203125 C-7.44576429 45.76199787 -6.18061492 44.0006464 -4.2265625 41.8515625 C-1.78318294 39.30769165 -1.78318294 39.30769165 -1.94921875 36.75390625 C-2.19285156 36.03074219 -2.43648437 35.30757812 -2.6875 34.5625 C-5.5721786 23.5377226 -5.17589932 10.35179864 0 0 Z " fill="#FEFEFE" transform="translate(84,76)"/>
</svg>
