<?xml version="1.0" encoding="UTF-8"?>
<svg version="1.1" xmlns="http://www.w3.org/2000/svg" width="360" height="360">
<path d="M0 0 C1.63269566 -0.00067717 3.26539122 -0.00165058 4.89808655 -0.00289917 C8.2887571 -0.00435722 11.67940096 -0.00228384 15.07006836 0.00244141 C19.35665741 0.00813287 23.64318372 0.00485109 27.92977047 -0.00113106 C31.29236805 -0.00479241 34.65495144 -0.00357282 38.01754951 -0.00100327 C39.59555634 -0.00034905 41.17356457 -0.00110782 42.75156975 -0.00348282 C51.31558467 -0.01355045 59.85403082 0.13832358 68.40844727 0.56298828 C69.56540431 0.61792859 69.56540431 0.61792859 70.74573421 0.67397881 C87.13659757 1.57105503 102.27928158 5.89906032 115.28515625 16.1328125 C115.89746094 16.56980469 116.50976562 17.00679687 117.140625 17.45703125 C129.55015641 26.91326456 136.83374405 43.98484384 138.94168091 59.09960938 C140.38764385 71.86879186 140.43505332 84.6757845 140.41796875 97.5078125 C140.41864498 99.3299155 140.41961764 101.1520184 140.42086792 102.97412109 C140.42232991 106.76595938 140.42023911 110.55777388 140.41552734 114.34960938 C140.40983101 119.16342056 140.41311812 123.97717596 140.41909981 128.79098511 C140.42274623 132.54549567 140.42154827 136.29999341 140.41897202 140.05450439 C140.41831398 141.82757575 140.4190909 143.60064835 140.42145157 145.37371826 C140.44964354 172.48539095 140.04332785 200.23909042 119.8515625 220.80078125 C110.37086013 229.41566605 100.00147135 234.48779182 87.59765625 237.3828125 C86.91638672 237.54612061 86.23511719 237.70942871 85.53320312 237.87768555 C71.75094464 240.83620558 57.15088061 240.2947746 43.12109375 240.30078125 C41.31336442 240.30400848 39.50563533 240.30737354 37.69790649 240.31086731 C33.93124793 240.31680687 30.16461213 240.31871262 26.39794922 240.31811523 C22.58344777 240.31803406 18.76906665 240.32497013 14.95458984 240.33862305 C-58.61846463 240.5978665 -58.61846463 240.5978665 -80.71484375 219.1328125 C-90.87147945 208.11489409 -96.38361603 195.06600681 -98.38964844 180.34448242 C-98.51555737 179.43486598 -98.64146629 178.52524954 -98.77119064 177.58806896 C-100.00922931 167.94511318 -100.11441813 158.39080354 -100.04296875 148.68359375 C-100.03989515 146.80616917 -100.03803124 144.92874226 -100.03729248 143.05131531 C-100.03274335 139.1564328 -100.01852984 135.26176328 -99.99609375 131.36694336 C-99.96775712 126.4290303 -99.95686859 121.49128279 -99.95241165 116.55329609 C-99.94720627 111.76337502 -99.93273556 106.97349314 -99.91796875 102.18359375 C-99.91608803 101.30003016 -99.91420731 100.41646656 -99.91226959 99.50612831 C-99.88736847 90.45997486 -99.75753895 81.43399383 -99.28027344 72.39916992 C-99.24391407 71.68742017 -99.2075547 70.97567041 -99.17009354 70.24235249 C-98.19287024 53.64175301 -94.12075518 38.35553665 -83.71484375 25.1328125 C-83.07675781 24.29621094 -82.43867187 23.45960937 -81.78125 22.59765625 C-70.28797857 8.8882909 -52.87887829 3.33311234 -35.71484375 1.1328125 C-32.94057739 0.89127516 -30.16525814 0.72580305 -27.38452148 0.57861328 C-26.60164733 0.53650286 -25.81877317 0.49439243 -25.01217556 0.45100594 C-16.67415137 0.03433807 -8.34661342 -0.01254329 0 0 Z M-21.71484375 23.5078125 C-22.70097656 23.53858887 -23.68710938 23.56936523 -24.703125 23.60107422 C-39.08980797 24.21408529 -53.03452929 26.55947444 -63.74609375 36.90234375 C-74.18345753 48.72721422 -75.66256865 62.68774259 -76.26953125 77.8203125 C-76.31157684 78.85776611 -76.35362244 79.89521973 -76.39694214 80.96411133 C-76.83307972 92.77627105 -76.86539424 104.58635787 -76.84521484 116.40527344 C-76.83984838 120.12959866 -76.84520366 123.85380335 -76.8515625 127.578125 C-79.0242897 169.01247109 -79.0242897 169.01247109 -62.2890625 204.94140625 C-52.13853711 213.58244531 -39.32121023 216.04316337 -26.3671875 216.69873047 C-25.58310013 216.73999495 -24.79901276 216.78125942 -23.99116516 216.82377434 C-15.79425384 217.22490041 -7.60736384 217.27829735 0.59765625 217.265625 C2.18790705 217.26630222 3.77815775 217.26727568 5.3684082 217.26852417 C8.6691183 217.26998154 11.96980096 217.26791085 15.27050781 217.26318359 C19.44509568 217.25748755 23.61961919 217.26077724 27.79420471 217.26675606 C31.06840476 217.27041535 34.34259022 217.26919881 37.61679077 217.26662827 C39.15375781 217.26597373 40.6907263 217.26673403 42.22769165 217.26910782 C50.46522803 217.27904679 58.67519554 217.13310981 66.90234375 216.69873047 C67.63172653 216.66157991 68.36110931 216.62442936 69.1125946 216.58615303 C82.59150189 215.80129189 96.16639551 212.7031254 105.65625 202.3671875 C121.70110268 180.35842076 117.45245276 149.7082153 117.41552734 123.85107422 C117.40982085 119.81271261 117.41323054 115.77441668 117.4189539 111.73605728 C119.57579479 71.94293776 119.57579479 71.94293776 104.3203125 36.92578125 C92.87526794 25.77048465 77.5958953 23.98564766 62.28515625 23.5078125 C61.18558594 23.47059082 60.08601562 23.43336914 58.953125 23.39501953 C32.10802434 22.63253434 5.1268395 22.59919163 -21.71484375 23.5078125 Z " fill="#9139A6" transform="translate(159.71484375,59.8671875)"/>
<path d="M0 0 C12.00901229 10.11587182 20.27825065 24.29169419 22 40 C23.13955948 59.09261937 18.81232196 75.34111279 6 90 C5.49082031 90.60328125 4.98164063 91.2065625 4.45703125 91.828125 C-6.30721408 103.62892729 -21.56051143 109.07072903 -37.05859375 110.8828125 C-43.96473707 111.08814877 -50.33020411 109.66389364 -57 108 C-57.96164063 107.78085938 -58.92328125 107.56171875 -59.9140625 107.3359375 C-69.5342096 104.86388732 -76.93285424 98.76177527 -84 92 C-84.58523437 91.45214844 -85.17046875 90.90429688 -85.7734375 90.33984375 C-96.58240115 79.2129694 -101.85116946 63.23138037 -102.375 48 C-101.77852403 30.65631403 -95.22108147 14.75049513 -82.8515625 2.5546875 C-58.69657137 -19.08553743 -25.5837449 -18.67021846 0 0 Z M-70.0234375 22.54296875 C-76.75873271 30.91549976 -79.97143395 41.29355773 -79 52 C-77.50503258 63.58073356 -72.08340351 72.70444099 -63 80 C-53.21071733 86.21301222 -42.45585213 88.73762999 -31 86.3125 C-24.61191884 84.49475333 -18.04881532 81.34244437 -13 77 C-13 76.34 -13 75.68 -13 75 C-12.34 75 -11.68 75 -11 75 C-9.24248403 72.69614555 -9.24248403 72.69614555 -7.5 69.8125 C-6.8915625 68.84957031 -6.283125 67.88664062 -5.65625 66.89453125 C-0.2044515 57.36674188 0.14489091 46.07258942 -2.64453125 35.57421875 C-5.86434844 26.12060023 -13.21808188 17.80261147 -22 13 C-38.97663808 5.14167339 -57.30509113 8.99321104 -70.0234375 22.54296875 Z " fill="#CD4276" transform="translate(220,132)"/>
<path d="M0 0 C0.66 0.33 1.32 0.66 2 1 C2.39477539 3.10351562 2.39477539 3.10351562 2.59765625 5.90625 C2.67628906 6.9482959 2.75492188 7.9903418 2.8359375 9.06396484 C2.91070312 10.19785645 2.98546875 11.33174805 3.0625 12.5 C3.18818359 14.24144287 3.18818359 14.24144287 3.31640625 16.01806641 C3.94648809 25.12840992 4.3556991 34.24346008 4.57055664 43.37304688 C4.99821952 57.8477904 7.19705645 72.22757521 17.6484375 83.03125 C27.68503505 91.43398283 40.38256951 93.90869239 53.12109375 94.5703125 C54.28796471 94.63242165 54.28796471 94.63242165 55.47840881 94.69578552 C64.03129902 95.10936884 72.57831433 95.11424536 81.13925171 95.07516479 C84.01447279 95.06215162 86.88964669 95.05582567 89.76489258 95.05102539 C95.8432835 95.03974477 101.92163389 95.02042946 108 95 C115.10637103 94.97635475 122.21272131 94.95604911 129.31912231 94.94406128 C132.15214971 94.93758086 134.98511005 94.92508857 137.81811523 94.91235352 C139.53889915 94.90872451 141.25968368 94.90537235 142.98046875 94.90234375 C143.76786438 94.89717743 144.55526001 94.89201111 145.36651611 94.88668823 C150.77231374 94.88615687 150.77231374 94.88615687 153 96 C155.07640328 102.79991719 155.13929636 109.05029218 154 116 C153.34 116 152.68 116 152 116 C152 116.66 152 117.32 152 118 C142.47515571 119.21453274 133.00643267 119.16394065 123.421875 119.16796875 C121.60557022 119.17119124 119.78926569 119.17455602 117.97296143 119.17805481 C114.17044475 119.18402226 110.36795071 119.18589745 106.56542969 119.18530273 C102.70991284 119.18522184 98.85451572 119.19210775 94.99902344 119.20581055 C21.09582022 119.46451107 21.09582022 119.46451107 -1 98 C-17.53934499 80.05811856 -20.07773001 57.54906875 -20.634552 34.13900757 C-20.68647518 32.16398146 -20.77149754 30.18991426 -20.85717773 28.21606445 C-20.92856899 19.25439652 -20.92856899 19.25439652 -18.27587891 15.67089844 C-16.26714576 13.91204893 -14.22734773 12.46478618 -12 11 C-10.99459121 10.0054382 -9.99379903 9.00616275 -9 8 C-8.195625 7.54625 -7.39125 7.0925 -6.5625 6.625 C-3.66876007 4.78994541 -2.00776969 2.7513881 0 0 Z " fill="#F37B33" transform="translate(80,181)"/>
<path d="M0 0 C0.66 0 1.32 0 2 0 C1.99097656 1.216875 1.98195313 2.43375 1.97265625 3.6875 C2.31635589 6.42743242 2.58458261 7.6199924 4.64404297 9.50390625 C6.86030892 10.81770665 9.09392476 11.93006557 11.4375 13 C12.62182617 13.58974609 12.62182617 13.58974609 13.83007812 14.19140625 C17.7423256 16.26657625 17.7423256 16.26657625 22 17 C22.99 15.515 22.99 15.515 24 14 C24.02336094 22.72014673 24.04103441 31.44028239 24.05181217 40.1604538 C24.05698976 44.21131002 24.06399202 48.26214454 24.07543945 52.31298828 C24.08645334 56.23579618 24.09231521 60.15858345 24.09487724 64.08140564 C24.09669868 65.56420719 24.10025361 67.04700786 24.10573006 68.52980042 C24.19917831 94.92635271 23.14393071 121.73177209 3.56640625 141.66796875 C-9.08619636 153.16508253 -26.64650859 160.74490345 -44 160 C-44 159.34 -44 158.68 -44 158 C-43.34 158 -42.68 158 -42 158 C-41.90271293 152.53030468 -41.9725919 147.39389254 -43 142 C-43 140.68 -43 139.36 -43 138 C-43.66 137.67 -44.32 137.34 -45 137 C-43.24236328 136.67128906 -43.24236328 136.67128906 -41.44921875 136.3359375 C-27.65840341 133.61627 -16.37857255 130.09180357 -8 118 C4.83833353 95.89317568 0.13246418 64.11116711 0.06866455 39.39599609 C0.05829172 34.94368977 0.05383751 30.49137752 0.04882812 26.0390625 C0.03821884 17.35935903 0.02123361 8.67968397 0 0 Z " fill="#E34D5F" transform="translate(276,139)"/>
<path d="M0 0 C0.19953041 4.28990392 -0.33382924 7.07959822 -2 11 C-4.61956334 22.78803501 -2.43456738 33.84877411 4 44 C10.44480828 52.21031255 19.60283108 57.60189585 30 59 C40.84838077 59.8171056 48.51703243 57.03177871 58 52 C59.33151682 51.32971262 60.66422471 50.66176023 62 50 C61.34 50.99 60.68 51.98 60 53 C60.4125 53.4125 60.825 53.825 61.25 54.25 C63.16666667 56.16666667 65.08333333 58.08333333 67 60 C66.67 60.33 66.34 60.66 66 61 C66.78375 61.78375 67.5675 62.5675 68.375 63.375 C69.91666667 64.91666667 71.45833333 66.45833333 73 68 C73.99 68 74.98 68 76 68 C66.09935484 76.21171158 55.62733996 80.75331744 43 83 C42.25492187 83.16628906 41.50984375 83.33257812 40.7421875 83.50390625 C33.11762809 84.88096546 25.42748237 82.68466082 18 81 C16.5459375 80.67322266 16.5459375 80.67322266 15.0625 80.33984375 C5.45490364 77.83286157 -1.93149844 71.76307248 -9 65 C-9.58523437 64.45214844 -10.17046875 63.90429688 -10.7734375 63.33984375 C-21.72194226 52.06932415 -26.9516045 35.92353397 -27.3125 20.5 C-27.19105957 16.36550536 -26.92154272 12.74195162 -25 9 C-24.01 8.67 -23.02 8.34 -22 8 C-21.34 7.34 -20.68 6.68 -20 6 C-19.360625 6.165 -18.72125 6.33 -18.0625 6.5 C-17.381875 6.665 -16.70125 6.83 -16 7 C-15.01 6.34 -14.02 5.68 -13 5 C-11 5 -9 5 -7 5 C-5.28745638 3.94282597 -5.28745638 3.94282597 -3.8125 2.5 C-1 0 -1 0 0 0 Z " fill="#EC6647" transform="translate(145,159)"/>
<path d="M0 0 C0.66 0 1.32 0 2 0 C1.99097656 1.216875 1.98195313 2.43375 1.97265625 3.6875 C2.31635589 6.42743242 2.58458261 7.6199924 4.64404297 9.50390625 C6.86030892 10.81770665 9.09392476 11.93006557 11.4375 13 C12.62182617 13.58974609 12.62182617 13.58974609 13.83007812 14.19140625 C17.7423256 16.26657625 17.7423256 16.26657625 22 17 C22.66 16.01 23.32 15.02 24 14 C24.02336094 22.72014673 24.04103441 31.44028239 24.05181217 40.1604538 C24.05698976 44.21131002 24.06399202 48.26214454 24.07543945 52.31298828 C24.08645334 56.23579618 24.09231521 60.15858345 24.09487724 64.08140564 C24.09669868 65.56420719 24.10025361 67.04700786 24.10573006 68.52980042 C24.20108534 95.46503511 24.20108534 95.46503511 21.4375 107 C21.16808594 108.155 20.89867187 109.31 20.62109375 110.5 C20.41613281 111.325 20.21117187 112.15 20 113 C19.01 113 18.02 113 17 113 C16.67128906 111.72769531 16.34257812 110.45539063 16.00390625 109.14453125 C13.13641162 98.42406995 9.75646833 88.31914071 4.98461914 78.2824707 C4.61199951 77.47382568 4.23937988 76.66518066 3.85546875 75.83203125 C3.52184326 75.13827393 3.18821777 74.4445166 2.84448242 73.72973633 C0.18799503 65.14280787 0.79943781 55.57074552 0.68359375 46.6796875 C0.66297088 45.32633915 0.64197324 43.97299646 0.62062073 42.61965942 C0.56594966 39.09184414 0.5163028 35.56397618 0.46777344 32.03607178 C0.41715175 28.42243879 0.36168002 24.80888042 0.30664062 21.1953125 C0.19973354 14.13027328 0.09814463 7.06516683 0 0 Z " fill="#DA3874" transform="translate(276,139)"/>
<path d="M0 0 C3.875 1.75 3.875 1.75 5 4 C5.99 3.67 6.98 3.34 8 3 C10.26171875 3.33984375 10.26171875 3.33984375 12.6875 3.9375 C13.49574219 4.13214844 14.30398437 4.32679688 15.13671875 4.52734375 C15.75160156 4.68332031 16.36648437 4.83929688 17 5 C17 5.66 17 6.32 17 7 C17.89912109 7.39251953 17.89912109 7.39251953 18.81640625 7.79296875 C21.13061764 9.07220188 22.29659445 10.26250442 23.9375 12.3125 C26.47666649 15.40085008 29.13189359 18.21624966 32 21 C32.66 20.01 33.32 19.02 34 18 C38.62912842 29.93245453 36.44395664 44.56752434 31.7109375 56.15625 C27.81443961 64.40765729 21.92983228 75.30462169 13.25 79.25 C12.5075 79.4975 11.765 79.745 11 80 C10.401875 79.030625 9.80375 78.06125 9.1875 77.0625 C7.28872491 73.76947958 7.28872491 73.76947958 4 73 C4 71.68 4 70.36 4 69 C2.68 68.34 1.36 67.68 0 67 C0 66.34 0 65.68 0 65 C-0.66 64.67 -1.32 64.34 -2 64 C-0.625 61.5 -0.625 61.5 1 59 C1.66 59 2.32 59 3 59 C3.26683594 58.4534375 3.53367188 57.906875 3.80859375 57.34375 C4.65603227 55.67665783 5.54930443 54.03252482 6.47265625 52.40625 C12.24016943 41.86317922 13.52921273 31.15749436 10.3203125 19.5390625 C7.95648271 12.74043699 4.03585544 8.06030134 -1 3 C-0.67 2.01 -0.34 1.02 0 0 Z " fill="#E24C60" transform="translate(206,148)"/>
<path d="M0 0 C1.09266553 3.48819958 1.05366606 6.59805712 0.92993164 10.23730469 C0.88981461 11.49830994 0.84969757 12.75931519 0.80836487 14.05853271 C0.75908265 15.42965115 0.70967688 16.80076515 0.66015625 18.171875 C0.61339487 19.57861737 0.56713208 20.98537639 0.52134705 22.39215088 C0.39972421 26.08797028 0.27133987 29.78352488 0.14154053 33.47906494 C0.01019346 37.25283367 -0.11474997 41.02681383 -0.24023438 44.80078125 C-0.48722691 52.20074247 -0.74136379 59.60043562 -1 67 C-1.33 67 -1.66 67 -2 67 C-2.33 64.36 -2.66 61.72 -3 59 C-4.99983534 59.79117904 -4.99983534 59.79117904 -7 61 C-7.33 61.99 -7.66 62.98 -8 64 C-9.63671875 65.39453125 -9.63671875 65.39453125 -11.6875 66.8125 C-14.5028933 68.82927186 -16.97970356 70.87324594 -19.375 73.375 C-20.24125 74.24125 -21.1075 75.1075 -22 76 C-22.66 76 -23.32 76 -24 76 C-24 57.19 -24 38.38 -24 19 C-20 17 -20 17 -17 16 C-16.26676204 13.98491642 -16.26676204 13.98491642 -16 12 C-15.4225 11.9175 -14.845 11.835 -14.25 11.75 C-11.84627033 11.13509577 -11.84627033 11.13509577 -10.0625 9.0625 C-7.82072155 6.82072155 -5.97835269 5.99278423 -3 5 C-3 4.34 -3 3.68 -3 3 C-2.01 3 -1.02 3 0 3 C0 2.01 0 1.02 0 0 Z " fill="#B24388" transform="translate(84,123)"/>
<path d="M0 0 C1.41791408 0.45445964 2.83428046 0.91374944 4.25 1.375 C5.43335938 1.75785156 5.43335938 1.75785156 6.640625 2.1484375 C9.93628144 3.33792939 12.87452975 4.93059093 15.9375 6.625 C18.97317175 7.98795467 20.73230026 8.28832645 24 8 C26.14146069 19.67905873 29.21634667 39.05185738 24 50 C21.6032896 48.73079864 19.20761907 47.45969813 16.8125 46.1875 C16.13896484 45.83107422 15.46542969 45.47464844 14.77148438 45.10742188 C13.45021138 44.40489136 12.13216105 43.69626169 10.81762695 42.98120117 C9.23624311 42.12753003 7.63522439 41.31042917 6.03125 40.5 C4 39 4 39 3.51171875 36.95703125 C3.75585938 33.97851562 3.75585938 33.97851562 4 31 C3.34 31 2.68 31 2 31 C1.9498877 30.44127197 1.89977539 29.88254395 1.84814453 29.30688477 C1.61309799 26.72483727 1.36909441 24.14370726 1.125 21.5625 C1.04636719 20.68400391 0.96773438 19.80550781 0.88671875 18.90039062 C0.33280099 13.12686317 -0.6349137 7.63815054 -2 2 C-1.34 2 -0.68 2 0 2 C0 1.34 0 0.68 0 0 Z " fill="#B53391" transform="translate(274,108)"/>
<path d="M0 0 C0.66 0.33 1.32 0.66 2 1 C2.41064453 3.29394531 2.41064453 3.29394531 2.6328125 6.328125 C2.75849609 7.99488281 2.75849609 7.99488281 2.88671875 9.6953125 C2.96535156 10.86835938 3.04398438 12.04140625 3.125 13.25 C3.21136719 14.37664062 3.29773438 15.50328125 3.38671875 16.6640625 C3.94820307 24.45354344 4.10175852 32.19205287 4 40 C3.34 39.34 2.68 38.68 2 38 C2.375 34.375 2.375 34.375 3 31 C0.47670613 31.36809149 -0.68625995 31.60759081 -2.30859375 33.63671875 C-2.68113281 34.31347656 -3.05367187 34.99023438 -3.4375 35.6875 C-5.66529976 39.50363848 -7.99582774 42.75224621 -11 46 C-11.66 46 -12.32 46 -13 46 C-13 46.66 -13 47.32 -13 48 C-13.66 48 -14.32 48 -15 48 C-15 48.66 -15 49.32 -15 50 C-16.65 49.67 -18.3 49.34 -20 49 C-20.198996 44.7135497 -20.34347584 40.42959749 -20.43945312 36.13989258 C-20.47948628 34.68368673 -20.53393633 33.22779849 -20.60351562 31.77270508 C-21.1672449 19.6732509 -21.1672449 19.6732509 -18.2890625 15.54736328 C-16.27671643 13.79623521 -14.25857267 12.40942993 -12 11 C-10.99214766 10.00791449 -9.99101236 9.00890757 -9 8 C-8.195625 7.54625 -7.39125 7.0925 -6.5625 6.625 C-3.66876007 4.78994541 -2.00776969 2.7513881 0 0 Z " fill="#EA6D43" transform="translate(80,181)"/>
<path d="M0 0 C3.09056131 3.36325789 4.99735465 6.67279413 5.22265625 11.33203125 C4.77003187 17.10575195 2.37074713 20.90040123 -1.5625 25.125 C-5.72043518 27.2601559 -10.34107135 27.94476627 -14.91015625 26.8046875 C-18.88897224 25.19964496 -21.71460043 23.27762111 -23.89453125 19.5859375 C-26.21414646 14.03257301 -26.0309955 9.92237885 -23.875 4.3125 C-21.46888557 0.05552832 -18.64062833 -1.81949517 -14.09375 -3.3125 C-8.89536485 -4.19110031 -4.45022357 -2.61208775 0 0 Z " fill="#B53590" transform="translate(253.875,104.6875)"/>
<path d="M0 0 C0.33 0 0.66 0 1 0 C1.01635498 0.58555664 1.03270996 1.17111328 1.04956055 1.77441406 C1.49446537 9.18030114 3.79032497 15.03381624 6.8125 21.75 C16 42.93690223 16 42.93690223 16 52 C17.485 52.495 17.485 52.495 19 53 C13.9977221 65.66970387 13.9977221 65.66970387 10 71 C9.34 70.67 8.68 70.34 8 70 C7.45336914 68.20922852 7.45336914 68.20922852 7.03515625 65.87890625 C6.87635986 65.02981689 6.71756348 64.18072754 6.55395508 63.3059082 C6.3917749 62.4005835 6.22959473 61.49525879 6.0625 60.5625 C4.74666326 48.99585398 4.74666326 48.99585398 0 39 C-0.66 39.66 -1.32 40.32 -2 41 C-1.34 27.47 -0.68 13.94 0 0 Z " fill="#DE406A" transform="translate(277,200)"/>
<path d="M0 0 C0.33 0 0.66 0 1 0 C1 11.22 1 22.44 1 34 C0.67 34 0.34 34 0 34 C-0.33 31.36 -0.66 28.72 -1 26 C-2.99983534 26.79117904 -2.99983534 26.79117904 -5 28 C-5.33 28.99 -5.66 29.98 -6 31 C-7.63671875 32.39453125 -7.63671875 32.39453125 -9.6875 33.8125 C-12.5028933 35.82927186 -14.97970356 37.87324594 -17.375 40.375 C-18.24125 41.24125 -19.1075 42.1075 -20 43 C-20.66 43 -21.32 43 -22 43 C-22 33.43 -22 23.86 -22 14 C-21.34 15.32 -20.68 16.64 -20 18 C-17.93702698 16.41727985 -15.87461051 14.83384324 -13.8125 13.25 C-12.9452832 12.58484375 -12.9452832 12.58484375 -12.06054688 11.90625 C-11.49013672 11.46796875 -10.91972656 11.0296875 -10.33203125 10.578125 C-9.76822754 10.14564453 -9.20442383 9.71316406 -8.62353516 9.26757812 C-7.12561229 8.09807203 -5.66064843 6.88667568 -4.19921875 5.671875 C-2 4 -2 4 0 4 C0 2.68 0 1.36 0 0 Z " fill="#CF5468" transform="translate(82,156)"/>
<path d="M0 0 C0.66 0 1.32 0 2 0 C1.99226563 1.216875 1.98453125 2.43375 1.9765625 3.6875 C2.31941147 6.41585602 2.58670243 7.61818941 4.62792969 9.50390625 C6.82780333 10.8199113 9.04552491 11.93042075 11.375 13 C12.54675781 13.58974609 12.54675781 13.58974609 13.7421875 14.19140625 C18.15858461 16.40939534 18.15858461 16.40939534 23 17 C23 32.84 23 48.68 23 65 C22.67 65 22.34 65 22 65 C21.99589111 64.26362305 21.99178223 63.52724609 21.98754883 62.76855469 C21.95463008 59.42822305 21.88398686 56.08971949 21.8125 52.75 C21.80669922 51.59113281 21.80089844 50.43226563 21.79492188 49.23828125 C21.85399309 42.63332522 21.85399309 42.63332522 18.44921875 37.328125 C17.64097656 36.88984375 16.83273437 36.4515625 16 36 C16 35.34 16 34.68 16 34 C15.443125 33.896875 14.88625 33.79375 14.3125 33.6875 C11.5230899 32.85821592 9.3860936 31.65700944 7 30 C7 29.34 7 28.68 7 28 C4.525 27.01 4.525 27.01 2 26 C1.34 17.42 0.68 8.84 0 0 Z " fill="#CD3083" transform="translate(276,139)"/>
<path d="M0 0 C0.99 0 1.98 0 3 0 C3 0.66 3 1.32 3 2 C6.465 1.505 6.465 1.505 10 1 C10 4.52599722 9.46519566 4.97292161 7.1875 7.5 C6.66542969 8.0878125 6.14335937 8.675625 5.60546875 9.28125 C4.1027361 10.89001488 2.56826546 12.45528207 1 14 C0.67 13.34 0.34 12.68 0 12 C-0.7425 12.845625 -1.485 13.69125 -2.25 14.5625 C-3.1575 15.366875 -4.065 16.17125 -5 17 C-7.125 16.6875 -7.125 16.6875 -9 16 C-9.99 16.66 -10.98 17.32 -12 18 C-12.66 18 -13.32 18 -14 18 C-17.8123636 18.63539393 -21.35380649 19.72807203 -25 21 C-21.75438138 6.77452263 -21.75438138 6.77452263 -19 3 C-15.8125 2.125 -15.8125 2.125 -13 2 C-13 2.66 -13 3.32 -13 4 C-12.22914063 3.77183594 -11.45828125 3.54367188 -10.6640625 3.30859375 C-9.15972656 2.87740234 -9.15972656 2.87740234 -7.625 2.4375 C-6.62726563 2.14746094 -5.62953125 1.85742188 -4.6015625 1.55859375 C-2 1 -2 1 0 2 C0 1.34 0 0.68 0 0 Z " fill="#D85063" transform="translate(144,148)"/>
<path d="M0 0 C0.33 0.66 0.66 1.32 1 2 C1.99 1.67 2.98 1.34 4 1 C7.87922884 1.90053527 10.67433852 2.78289234 14 5 C14.78375 5.144375 15.5675 5.28875 16.375 5.4375 C19 6 19 6 21.5 7.5625 C24.28155668 9.16189509 25.84930659 9.27005944 29 9 C30.905247 14.10334017 32.42589023 18.46342706 32 24 C29.48910624 24.89674777 28.35464891 25.13172674 25.8125 24.1875 C24 23 24 23 23 21 C22.01 21 21.02 21 20 21 C17.8125 19.5 17.8125 19.5 16 18 C15.34 18.33 14.68 18.66 14 19 C13.67 18.34 13.34 17.68 13 17 C12.34 17.33 11.68 17.66 11 18 C10.67 17.34 10.34 16.68 10 16 C8.68 16 7.36 16 6 16 C4.4375 13.98828125 4.4375 13.98828125 3 11.3125 C0.91644409 7.58430985 -1.19056855 4.24165167 -4 1 C-2.68 0.67 -1.36 0.34 0 0 Z " fill="#A2369D" transform="translate(265,93)"/>
<path d="M0 0 C0.66 0.33 1.32 0.66 2 1 C3.03268071 13.7172717 3.03268071 13.7172717 -0.8125 18.3125 C-2.39453125 19.92578125 -2.39453125 19.92578125 -4 21 C-4.99 21 -5.98 21 -7 21 C-7.33 21.66 -7.66 22.32 -8 23 C-8.639375 23.28875 -9.27875 23.5775 -9.9375 23.875 C-12.50169844 25.27365369 -12.80191383 26.37918649 -14 29 C-15.89520664 31.48745871 -17.78893853 33.78893853 -20 36 C-21.22403852 19.93449444 -21.22403852 19.93449444 -18.32421875 15.3515625 C-16.29519268 13.65267047 -14.28146525 12.33049121 -12 11 C-10.9890187 10.01110324 -9.98744041 9.01240379 -9 8 C-8.195625 7.54625 -7.39125 7.0925 -6.5625 6.625 C-3.66876007 4.78994541 -2.00776969 2.7513881 0 0 Z " fill="#DD6154" transform="translate(80,181)"/>
<path d="M0 0 C0.66 0.66 1.32 1.32 2 2 C1.24860112 11.4676259 1.24860112 11.4676259 -1.375 14.6875 C-3 16 -3 16 -6 16 C-6.33 16.66 -6.66 17.32 -7 18 C-7.99 18.33 -8.98 18.66 -10 19 C-10.66 19.99 -11.32 20.98 -12 22 C-13.0209375 22.2475 -13.0209375 22.2475 -14.0625 22.5 C-15.0215625 22.7475 -15.0215625 22.7475 -16 23 C-16.33 23.99 -16.66 24.98 -17 26 C-18.98 27.32 -20.96 28.64 -23 30 C-23 23.73 -23 17.46 -23 11 C-22.34 12.32 -21.68 13.64 -21 15 C-19.98679687 14.25234375 -18.97359375 13.5046875 -17.9296875 12.734375 C-16.5781768 11.73951296 -15.22661139 10.74472524 -13.875 9.75 C-12.87726563 9.01330078 -12.87726563 9.01330078 -11.859375 8.26171875 C-7.96937606 5.40142541 -4.04065783 2.64342101 0 0 Z " fill="#9F3C9B" transform="translate(84,113)"/>
<path d="M0 0 C0.19658808 1.41543415 0.38187546 2.83244031 0.5625 4.25 C0.66691406 5.03890625 0.77132812 5.8278125 0.87890625 6.640625 C1.00027349 9.00532874 0.69633257 10.7511037 0 13 C-0.66 13 -1.32 13 -2 13 C-2.33 13.66 -2.66 14.32 -3 15 C-4.28295036 16.03763897 -5.60054251 17.03294214 -6.9375 18 C-9.13254231 19.59349714 -11.07863304 21.07863304 -13 23 C-14.5159375 23.680625 -14.5159375 23.680625 -16.0625 24.375 C-19.60714767 27.54255749 -19.51257771 28.6521053 -19.875 33.25 C-19.9437519 35.16588632 -19.99397135 37.08288997 -20 39 C-20.33 39 -20.66 39 -21 39 C-21.31320385 35.25227692 -21.56814264 31.502791 -21.8125 27.75 C-21.90208984 26.68652344 -21.99167969 25.62304688 -22.08398438 24.52734375 C-22.25846328 21.60711795 -22.36889022 18.90308025 -22 16 C-19.57421875 13.390625 -19.57421875 13.390625 -17 12 C-16.67 11.34 -16.34 10.68 -16 10 C-14.5459375 9.2884375 -14.5459375 9.2884375 -13.0625 8.5625 C-9.78256825 7.20367158 -9.78256825 7.20367158 -8 4 C-2.20735786 0 -2.20735786 0 0 0 Z " fill="#BA497E" transform="translate(82,147)"/>
<path d="M0 0 C1.31810136 4.47140537 1.18577891 8.49724495 0 13 C-2.375 16.0625 -2.375 16.0625 -5 18 C-5.99 18 -6.98 18 -8 18 C-9.33981486 18.3062434 -10.67511887 18.63451555 -12 19 C-12 19.66 -12 20.32 -12 21 C-12.639375 21.28875 -13.27875 21.5775 -13.9375 21.875 C-16.15206079 22.82823451 -16.15206079 22.82823451 -17 25 C-17.99 25 -18.98 25 -20 25 C-20 25.66 -20 26.32 -20 27 C-20.66 27 -21.32 27 -22 27 C-22.33 29.31 -22.66 31.62 -23 34 C-23.33 34 -23.66 34 -24 34 C-24 29.05 -24 24.1 -24 19 C-20 17 -20 17 -17 16 C-16.26676204 13.98491642 -16.26676204 13.98491642 -16 12 C-15.4225 11.9175 -14.845 11.835 -14.25 11.75 C-11.84627033 11.13509577 -11.84627033 11.13509577 -10.0625 9.0625 C-7.82072155 6.82072155 -5.97835269 5.99278423 -3 5 C-3 4.34 -3 3.68 -3 3 C-2.01 3 -1.02 3 0 3 C0 2.01 0 1.02 0 0 Z " fill="#A93F91" transform="translate(84,123)"/>
<path d="M0 0 C0 4.29 0 8.58 0 13 C-1.65 13.33 -3.3 13.66 -5 14 C-5.33 14.66 -5.66 15.32 -6 16 C-6.66 16 -7.32 16 -8 16 C-9.38007251 17.2848951 -10.70420353 18.63015802 -12 20 C-12.886875 20.86625 -13.77375 21.7325 -14.6875 22.625 C-17.01291149 24.77286324 -17.01291149 24.77286324 -18 27 C-18.66 27 -19.32 27 -20 27 C-20.83737038 22.43382648 -21.08102352 18.53929782 -20 14 C-16.61584498 9.66059534 -11.57799991 6.91424848 -7 4 C-6.07574219 3.24847656 -5.15148437 2.49695313 -4.19921875 1.72265625 C-2 0 -2 0 0 0 Z " fill="#C45073" transform="translate(82,160)"/>
<path d="M0 0 C0.33 0 0.66 0 1 0 C1.33 5.94 1.66 11.88 2 18 C1.34 18.33 0.68 18.66 0 19 C-0.495 16.525 -0.495 16.525 -1 14 C-1.78375 14.66 -2.5675 15.32 -3.375 16 C-6 18 -6 18 -8 18 C-8.3403125 18.804375 -8.3403125 18.804375 -8.6875 19.625 C-11.27698284 24.31073086 -15.02088618 28.43251864 -19 32 C-19.66 32 -20.32 32 -21 32 C-22.17664223 28.47007332 -21.54234171 27.12531804 -20.015625 23.8359375 C-17.26848033 18.86994522 -13.43857658 15.40634947 -9 12 C-7.56983225 10.87106303 -6.15403862 9.72377259 -4.75 8.5625 C-4.06421875 8.00691406 -3.3784375 7.45132813 -2.671875 6.87890625 C-0.6626893 4.62091951 -0.3456083 2.96308289 0 0 Z " fill="#E3674D" transform="translate(82,190)"/>
<path d="M0 0 C0.99 0.99 1.98 1.98 3 3 C2.34 4.32 1.68 5.64 1 7 C0.34 6.34 -0.32 5.68 -1 5 C-1.7425 5.845625 -2.485 6.69125 -3.25 7.5625 C-4.1575 8.366875 -5.065 9.17125 -6 10 C-8.125 9.6875 -8.125 9.6875 -10 9 C-10.99 9.66 -11.98 10.32 -13 11 C-13.66 11 -14.32 11 -15 11 C-18.8123636 11.63539393 -22.35380649 12.72807203 -26 14 C-24.78804058 7.57661506 -24.78804058 7.57661506 -21.4375 5.125 C-17.27473594 3.76264085 -13.3427559 3.36189632 -9 3 C-5.60570748 2.47199894 -3.0056791 1.66982172 0 0 Z " fill="#DE555C" transform="translate(145,155)"/>
<path d="M0 0 C0.66 0.33 1.32 0.66 2 1 C2.32421875 3.21875 2.32421875 3.21875 2 6 C-0.23046875 8.28125 -0.23046875 8.28125 -3.1875 10.5 C-8.10354453 14.23803654 -12.54939677 17.82409515 -16 23 C-16.66 23 -17.32 23 -18 23 C-18.66 21.35 -19.32 19.7 -20 18 C-19.18595703 17.29423828 -19.18595703 17.29423828 -18.35546875 16.57421875 C-17.64003906 15.95160156 -16.92460938 15.32898438 -16.1875 14.6875 C-15.12595703 13.76517578 -15.12595703 13.76517578 -14.04296875 12.82421875 C-12.79057024 11.70592028 -11.56497244 10.55546941 -10.390625 9.35546875 C-9 8 -9 8 -6.5625 6.625 C-3.66876007 4.78994541 -2.00776969 2.7513881 0 0 Z " fill="#D55C5E" transform="translate(80,181)"/>
<path d="M0 0 C0.66 0.66 1.32 1.32 2 2 C1.67 2.66 1.34 3.32 1 4 C1.66 4 2.32 4 3 4 C2.67 4.99 2.34 5.98 2 7 C1.38125 6.814375 0.7625 6.62875 0.125 6.4375 C-2.04160178 5.76313824 -2.04160178 5.76313824 -4 7 C-4.33 5.68 -4.66 4.36 -5 3 C-3.35 2.01 -1.7 1.02 0 0 Z " fill="#C03F81" transform="translate(153,124)"/>
<path d="M0 0 C1.09570312 0.00902344 2.19140625 0.01804687 3.3203125 0.02734375 C4.16335937 0.03894531 5.00640625 0.05054687 5.875 0.0625 C5.545 0.7225 5.215 1.3825 4.875 2.0625 C2.94921875 2.546875 2.94921875 2.546875 0.5625 2.8125 C-0.60732422 2.95945312 -0.60732422 2.95945312 -1.80078125 3.109375 C-4.42633568 3.05642264 -5.88973757 2.39240442 -8.125 1.0625 C-5.36047967 -0.31976016 -3.0788637 -0.03275387 0 0 Z " fill="#BB3C86" transform="translate(180.125,117.9375)"/>
<path d="M0 0 C1.32 0.66 2.64 1.32 4 2 C4 2.99 4 3.98 4 5 C3.34 5 2.68 5 2 5 C2 6.32 2 7.64 2 9 C0.68 9 -0.64 9 -2 9 C-2 8.34 -2 7.68 -2 7 C-1.34 7 -0.68 7 0 7 C0 4.69 0 2.38 0 0 Z " fill="#E65954" transform="translate(234,290)"/>
<path d="M0 0 C2.33333333 2.33333333 4.66666667 4.66666667 7 7 C7.99 7 8.98 7 10 7 C7.525 8.485 7.525 8.485 5 10 C2 6.375 2 6.375 2 3 C1.34 3 0.68 3 0 3 C0 2.01 0 1.02 0 0 Z " fill="#E75A53" transform="translate(211,220)"/>
<path d="M0 0 C0 0.33 0 0.66 0 1 C-0.61488281 1.13277344 -1.22976562 1.26554688 -1.86328125 1.40234375 C-3.07564453 1.66724609 -3.07564453 1.66724609 -4.3125 1.9375 C-5.51326172 2.19853516 -5.51326172 2.19853516 -6.73828125 2.46484375 C-9.145401 2.99886159 -9.145401 2.99886159 -12 4 C-12.33 3.01 -12.66 2.02 -13 1 C-11.58622218 0.63447197 -10.16879424 0.28304505 -8.75 -0.0625 C-7.96109375 -0.25972656 -7.1721875 -0.45695313 -6.359375 -0.66015625 C-3.89605178 -1.01497267 -2.34395868 -0.76877544 0 0 Z " fill="#DC4B65" transform="translate(176,141)"/>
</svg>
