<?xml version="1.0" encoding="UTF-8"?>
<svg version="1.1" xmlns="http://www.w3.org/2000/svg" width="256" height="256">
<path d="M0 0 C1.36639337 -0.00657338 1.36639337 -0.00657338 2.76039064 -0.01327956 C5.82564457 -0.02667897 8.89086974 -0.03284902 11.95614624 -0.03897095 C14.1488559 -0.04687106 16.34156426 -0.05513996 18.53427124 -0.06375122 C25.74698645 -0.08998356 32.9597075 -0.10528088 40.17245483 -0.11953735 C42.65458556 -0.12489669 45.13671625 -0.1302742 47.61884689 -0.13566971 C57.94385843 -0.15730092 68.2688684 -0.17603759 78.59389687 -0.1872921 C81.27291493 -0.1902217 83.95193296 -0.19318337 86.63095093 -0.19619751 C87.29679134 -0.19694356 87.96263175 -0.19768961 88.64864914 -0.19845827 C99.42862525 -0.21110488 110.20843616 -0.24431902 120.98833509 -0.28599934 C132.0614679 -0.32846161 143.13451189 -0.35158478 154.20772493 -0.35721266 C160.4226462 -0.36086652 166.63728749 -0.37289189 172.85213089 -0.4053154 C178.7011768 -0.43539256 184.54977326 -0.44170878 190.39888 -0.42993164 C192.54304555 -0.42971088 194.68723194 -0.43801832 196.83132553 -0.45558548 C199.76471667 -0.47830688 202.69648216 -0.46996784 205.62988281 -0.45410156 C206.4731933 -0.46798365 207.31650378 -0.48186574 208.18536913 -0.49616849 C215.40582103 -0.40031341 221.19980861 2.19038255 226.35214233 7.28671265 C226.79557983 7.94413452 227.23901733 8.6015564 227.69589233 9.27890015 C228.15995483 9.94147827 228.62401733 10.6040564 229.10214233 11.28671265 C231.67025159 15.67084202 231.34693716 20.04368669 231.34979248 24.95800781 C231.35417473 25.86893672 231.35855699 26.77986563 231.36307204 27.71839845 C231.37647145 30.78365238 231.3826415 33.84887755 231.38876343 36.91415405 C231.39666354 39.10686371 231.40493244 41.29957207 231.4135437 43.49227905 C231.43977604 50.70499426 231.45507336 57.91771532 231.46932983 65.13046265 C231.47468917 67.61259337 231.48006668 70.09472406 231.48546219 72.57685471 C231.5070934 82.90186624 231.52583007 93.22687621 231.53708458 103.55190468 C231.54001418 106.23092274 231.54297585 108.90994077 231.54598999 111.58895874 C231.54673604 112.25479915 231.54748209 112.92063956 231.54825075 113.60665695 C231.56089736 124.38663306 231.5941115 135.16644397 231.63579182 145.9463429 C231.67825409 157.01947571 231.70137726 168.09251971 231.70700514 179.16573274 C231.710659 185.38065401 231.72268437 191.5952953 231.75510788 197.8101387 C231.78518504 203.65918461 231.79150126 209.50778107 231.77972412 215.35688782 C231.77950336 217.50105337 231.7878108 219.64523975 231.80537796 221.78933334 C231.82809936 224.72272448 231.81976032 227.65448997 231.80389404 230.58789062 C231.81777613 231.43120111 231.83165822 232.2745116 231.84596097 233.14337695 C231.75010589 240.36382885 229.15940993 246.15781643 224.06307983 251.31015015 C223.40565796 251.75358765 222.74823608 252.19702515 222.07089233 252.65390015 C221.40831421 253.11796265 220.74573608 253.58202515 220.06307983 254.06015015 C215.67895046 256.6282594 211.30610579 256.30494497 206.39178467 256.30780029 C205.48085576 256.31218255 204.56992685 256.3165648 203.63139403 256.32107985 C200.5661401 256.33447926 197.50091493 256.34064931 194.43563843 256.34677124 C192.24292877 256.35467136 190.05022041 256.36294025 187.85751343 256.37155151 C180.64479822 256.39778385 173.43207717 256.41308118 166.21932983 256.42733765 C163.73719911 256.43269698 161.25506842 256.43807449 158.77293777 256.44347 C148.44792624 256.46510121 138.12291627 256.48383788 127.7978878 256.49509239 C125.11886974 256.49802199 122.43985171 256.50098367 119.76083374 256.5039978 C119.09499333 256.50474385 118.42915292 256.5054899 117.74313553 256.50625856 C106.96315942 256.51890518 96.18334851 256.55211932 85.40344958 256.59379964 C74.33031677 256.6362619 63.25727277 256.65938507 52.18405974 256.66501296 C45.96913847 256.66866681 39.75449718 256.68069218 33.53965378 256.71311569 C27.69060787 256.74319286 21.84201141 256.74950907 15.99290466 256.73773193 C13.84873911 256.73751117 11.70455273 256.74581861 9.56045914 256.76338577 C6.627068 256.78610717 3.69530251 256.77776813 0.76190186 256.76190186 C-0.08140863 256.77578394 -0.92471912 256.78966603 -1.79358447 256.80396879 C-9.01403637 256.7081137 -14.80802394 254.11741774 -19.96035767 249.02108765 C-20.40379517 248.36366577 -20.84723267 247.7062439 -21.30410767 247.02890015 C-21.76817017 246.36632202 -22.23223267 245.7037439 -22.71035767 245.02108765 C-25.27846692 240.63695827 -24.95515249 236.26411361 -24.95800781 231.34979248 C-24.96239007 230.43886357 -24.96677232 229.52793466 -24.97128737 228.58940184 C-24.98468678 225.52414791 -24.99085683 222.45892274 -24.99697876 219.39364624 C-25.00487888 217.20093658 -25.01314777 215.00822822 -25.02175903 212.81552124 C-25.04799137 205.60280603 -25.0632887 198.39008498 -25.07754517 191.17733765 C-25.0829045 188.69520692 -25.08828201 186.21307623 -25.09367752 183.73094559 C-25.11530873 173.40593405 -25.1340454 163.08092408 -25.14529991 152.75589561 C-25.14822951 150.07687755 -25.15119119 147.39785952 -25.15420532 144.71884155 C-25.15495137 144.05300114 -25.15569742 143.38716073 -25.15646608 142.70114334 C-25.1691127 131.92116723 -25.20232684 121.14135632 -25.24400716 110.36145739 C-25.28646942 99.28832458 -25.30959259 88.21528059 -25.31522048 77.14206755 C-25.31887433 70.92714628 -25.3308997 64.71250499 -25.36332321 58.49766159 C-25.39340038 52.64861568 -25.39971659 46.80001922 -25.38793945 40.95091248 C-25.38771869 38.80674693 -25.39602613 36.66256055 -25.41359329 34.51846695 C-25.43631469 31.58507581 -25.42797565 28.65331032 -25.41210938 25.71990967 C-25.42599146 24.87659918 -25.43987355 24.0332887 -25.45417631 23.16442335 C-25.35832122 15.94397145 -22.76762526 10.14998387 -17.67129517 4.99765015 C-17.01387329 4.55421265 -16.35645142 4.11077515 -15.67910767 3.65390015 C-15.01652954 3.18983765 -14.35395142 2.72577515 -13.67129517 2.24765015 C-9.28716579 -0.32045911 -4.91432112 0.00285532 0 0 Z M10.83261108 40.6421814 C6.76222521 46.88862081 5.75438047 52.99471155 6.63339233 60.34140015 C8.40238419 68.71969285 13.36489683 74.27461765 20.19589233 79.15390015 C26.28767333 82.68713313 32.24073728 83.10072151 39.19589233 82.15390015 C47.84292447 79.24361094 53.63257281 74.02169243 58.19589233 66.15390015 C61.55355359 56.92033169 60.20576653 49.87273846 56.19589233 41.15390015 C52.57715993 34.80781428 45.93314181 31.39964997 39.19589233 29.15390015 C27.14034232 27.86944276 18.5328887 31.19255065 10.83261108 40.6421814 Z M118.63339233 107.02890015 C117.42682983 108.57577515 117.42682983 108.57577515 116.19589233 110.15390015 C116.13981812 109.03241577 116.13981812 109.03241577 116.08261108 107.88827515 C116.0168689 106.9034314 115.95112671 105.91858765 115.88339233 104.90390015 C115.82538452 103.9293689 115.76737671 102.95483765 115.70761108 101.95077515 C115.10869105 98.67728853 114.61208653 97.44417872 112.19589233 95.15390015 C109.44599407 94.76037362 107.10074735 94.6161184 104.35214233 94.6578064 C103.58664063 94.65635117 102.82113892 94.65489594 102.03244019 94.65339661 C100.41517325 94.65505542 98.79789051 94.66661491 97.18075562 94.68734741 C94.70465069 94.71629774 92.23068733 94.70795877 89.75448608 94.69491577 C88.18286109 94.70115349 86.61124286 94.7095447 85.03964233 94.7203064 C84.29895508 94.71737076 83.55826782 94.71443512 82.7951355 94.71141052 C78.91584346 94.73362033 78.91584346 94.73362033 75.50058556 96.35890198 C73.74914332 98.76853786 73.81857912 100.31100681 73.81494141 103.27792358 C73.80648193 104.33789551 73.79802246 105.39786743 73.78930664 106.48995972 C73.79537933 107.65265381 73.80145203 108.8153479 73.80770874 110.01327515 C73.80245178 111.23784424 73.79719482 112.46241333 73.79177856 113.72409058 C73.78082569 117.08370601 73.78340879 120.44276829 73.79291582 123.80235291 C73.80050551 127.31635284 73.79346874 130.83032898 73.78875732 134.34432983 C73.78329774 140.24574025 73.79049663 146.14703807 73.80477905 152.0484314 C73.82110605 158.87349343 73.81581768 165.69828662 73.79929984 172.52334213 C73.78569068 178.38074929 73.78376248 184.23807546 73.79161584 190.09549332 C73.79629554 193.59494687 73.79690919 197.09427402 73.78700638 200.59371948 C73.7767402 204.49409454 73.79096488 208.3941679 73.80770874 212.29452515 C73.80163605 213.45721924 73.79556335 214.61991333 73.78930664 215.81784058 C73.79776611 216.8778125 73.80622559 217.93778442 73.81494141 219.02987671 C73.81607248 219.9523822 73.81720356 220.8748877 73.81836891 221.8253479 C74.02392427 224.20095072 74.02392427 224.20095072 75.50058556 225.94889832 C78.36203959 227.98278233 81.65481062 227.60090933 85.03964233 227.5874939 C86.1878949 227.59535667 86.1878949 227.59535667 87.35934448 227.6033783 C88.97656034 227.60979696 90.59382289 227.60846345 92.21102905 227.59994507 C94.6872958 227.59142971 97.16125953 227.62020293 99.63729858 227.65194702 C101.20891248 227.65355901 102.78053046 227.65298156 104.35214233 227.6499939 C105.46317322 227.66684486 105.46317322 227.66684486 106.59664917 227.68403625 C110.62944789 227.67092403 110.62944789 227.67092403 113.89096069 225.5483551 C115.63539838 222.34743841 115.57453842 219.98164976 115.58065796 216.34091187 C115.58603073 215.66388718 115.5914035 214.98686249 115.59693909 214.2893219 C115.6067048 212.82215092 115.60966486 211.35492226 115.60658264 209.88772202 C115.60209155 207.55723513 115.6161439 205.22750257 115.63497925 202.89709473 C115.6717417 197.94104224 115.68545021 192.98506883 115.69589233 188.02890015 C115.70801248 182.3030368 115.72983845 176.57754048 115.77589417 170.85184097 C115.78934877 168.57085531 115.7853131 166.29034736 115.78048706 164.00933838 C115.82128287 153.01013049 116.97629301 142.91044498 124.19589233 134.15390015 C130.92397204 128.90599798 136.87860002 128.39490769 145.19589233 129.15390015 C150.50714001 130.72760316 154.31842506 133.35812136 157.19589233 138.15390015 C160.89154885 146.63281008 160.63672621 154.97586527 160.63729858 164.04452515 C160.64908826 165.67879408 160.66245634 167.3130523 160.67732239 168.94729614 C160.71332569 173.22619831 160.73365869 177.50500552 160.74887085 181.7840271 C160.77380826 188.64565045 160.81344083 195.50706427 160.87077141 202.36849213 C160.88704734 204.75764439 160.89087208 207.14659637 160.89378357 209.53579712 C160.90356091 211.00257715 160.91382436 212.46935405 160.9246521 213.93612671 C160.93106468 215.85065643 160.93106468 215.85065643 160.93760681 217.80386353 C161.18814759 221.05344861 161.68751675 223.27968411 163.19589233 226.15390015 C166.28664778 227.69927787 169.54990248 227.31680783 172.94198608 227.3218689 C173.70890274 227.3251973 174.4758194 227.3285257 175.26597595 227.33195496 C176.88917439 227.33702078 178.51238326 227.33936339 180.1355896 227.33920288 C182.62005766 227.34138842 185.10408106 227.35954472 187.58847046 227.37850952 C189.16464081 227.38144369 190.74081328 227.38342833 192.31698608 227.3843689 C193.43272255 227.39514717 193.43272255 227.39514717 194.57099915 227.40614319 C198.32898617 227.38948441 199.9879816 227.2925073 203.19589233 225.15390015 C204.3161136 221.79323636 204.32967926 219.24735777 204.34115601 215.70492554 C204.34451462 215.05386337 204.34787323 214.40280121 204.35133362 213.73200989 C204.36085272 211.57183936 204.36278892 209.41174663 204.36386108 207.2515564 C204.36707911 205.73433908 204.37044359 204.21712208 204.37394714 202.6999054 C204.37994507 199.50625901 204.38178697 196.31263966 204.38119507 193.11898804 C204.38111455 189.88097455 204.38793124 186.64310477 204.40170288 183.40512085 C206.30258904 143.0919036 206.30258904 143.0919036 191.19589233 107.15390015 C190.67253296 106.52097046 190.14917358 105.88804077 189.60995483 105.2359314 C182.9058482 97.85511916 173.58660038 93.80880965 163.70248413 92.93295288 C146.65868475 92.19150747 130.55243221 93.30814494 118.63339233 107.02890015 Z M14.50533104 96.35592651 C12.74899915 98.7675235 12.81858446 100.30665475 12.81494141 103.27792358 C12.80648193 104.33789551 12.79802246 105.39786743 12.78930664 106.48995972 C12.79537933 107.65265381 12.80145203 108.8153479 12.80770874 110.01327515 C12.80245178 111.23784424 12.79719482 112.46241333 12.79177856 113.72409058 C12.78082569 117.08370601 12.78340879 120.44276829 12.79291582 123.80235291 C12.80050551 127.31635284 12.79346874 130.83032898 12.78875732 134.34432983 C12.78329774 140.24574025 12.79049663 146.14703807 12.80477905 152.0484314 C12.82110605 158.87349343 12.81581768 165.69828662 12.79929984 172.52334213 C12.78569068 178.38074929 12.78376248 184.23807546 12.79161584 190.09549332 C12.79629554 193.59494687 12.79690919 197.09427402 12.78700638 200.59371948 C12.7767402 204.49409454 12.79096488 208.3941679 12.80770874 212.29452515 C12.80163605 213.45721924 12.79556335 214.61991333 12.78930664 215.81784058 C12.79776611 216.8778125 12.80622559 217.93778442 12.81494141 219.02987671 C12.81607248 219.9523822 12.81720356 220.8748877 12.81836891 221.8253479 C13.02345568 224.20206071 13.02345568 224.20206071 14.50632286 225.94989014 C17.31711687 227.95289988 20.49591132 227.58042781 23.82089233 227.55233765 C24.564198 227.55520782 25.30750366 227.558078 26.07333374 227.56103516 C27.64349124 227.56307491 29.21367419 227.55755115 30.78378296 227.54501343 C33.18735566 227.52895717 35.58924694 227.54486367 37.99276733 227.5640564 C39.51881271 227.56207395 41.04485704 227.55823023 42.57089233 227.55233765 C43.64911255 227.56144669 43.64911255 227.56144669 44.74911499 227.57073975 C48.69072787 227.52685593 48.69072787 227.52685593 52.10995483 225.7539978 C54.13693627 222.76729899 54.32288294 220.88924487 54.3296051 217.30871582 C54.33387009 216.28522034 54.33813507 215.26172485 54.3425293 214.20721436 C54.34207611 213.07989899 54.34162292 211.95258362 54.34115601 210.79110718 C54.34451462 209.60730469 54.34787323 208.4235022 54.35133362 207.2038269 C54.35922131 203.95170442 54.36251211 200.69962018 54.3631494 197.44748926 C54.36409808 194.73378466 54.36777596 192.02008621 54.3713215 189.30638397 C54.3794696 182.90382761 54.38190544 176.50128531 54.38119507 170.09872437 C54.38059441 163.4924551 54.39114307 156.88626752 54.40693873 150.28001893 C54.42001241 144.61032003 54.42537903 138.94064784 54.42473966 133.27093399 C54.42448459 129.88379095 54.42734064 126.49672047 54.43791771 123.10959244 C54.44768337 119.3314862 54.44485295 115.55359162 54.43881226 111.77548218 C54.44443176 110.65221527 54.45005127 109.52894836 54.45584106 108.37164307 C54.45164658 107.34250793 54.44745209 106.3133728 54.44313049 105.25305176 C54.44367526 104.35966661 54.44422003 103.46628147 54.4447813 102.54582405 C54.17508848 99.95396666 53.59005581 98.34501521 52.19589233 96.15390015 C49.16099338 94.63645067 45.99913247 94.97032635 42.66854858 94.95077515 C41.92382797 94.94507507 41.17910736 94.939375 40.41181946 94.9335022 C38.83570782 94.92405223 37.25957642 94.91751823 35.68344116 94.91366577 C33.2712263 94.90395183 30.85986057 94.87292654 28.44784546 94.84140015 C26.91725157 94.83487083 25.38665157 94.82962008 23.85604858 94.82577515 C23.13409805 94.81342834 22.41214752 94.80108154 21.6683197 94.7883606 C17.85739184 94.76017786 17.85739184 94.76017786 14.50533104 96.35592651 Z " fill="#0077B7" transform="translate(24.804107666015625,-0.153900146484375)"/>
</svg>
